<svg width="255" height="110" viewBox="0 0 255 110" fill="none" xmlns="http://www.w3.org/2000/svg">
<g clip-path="url(#clip0_75_128)">
<path d="M170.8 50.9728H180.349V36.9627L161.11 15.2545H148.43L170.8 41.7704V50.9728Z" fill="white"/>
<path d="M181.856 28.931L206.18 0.0565186H193.698L175.377 21.7986L181.856 28.931Z" fill="white"/>
<path d="M131.847 50.9729H122.298V9.5362L116.952 0H169.232L161.269 9.5362H131.847V50.9729Z" fill="white"/>
<path d="M114.035 9.5362H96.3251L91.0524 0H108.7L114.035 9.5362Z" fill="white"/>
<path d="M73.3822 0.0678733L82.1607 0L104.464 39.9321H94.0427L77.8847 14.0385L59.1724 50.9729H48.8252L73.3822 0.0678733Z" fill="white"/>
<path d="M4.71205 104.491L7.64009 110H5.69184L5.28406 109.191H2.35602L1.94825 110H0L2.9337 104.491H4.71205ZM4.54781 107.732L3.82288 106.29L3.09795 107.732H4.54781Z" fill="white"/>
<path d="M11.7745 106.035C11.5762 106.035 11.4177 106.063 11.2931 106.126C11.1685 106.188 11.0665 106.273 10.9929 106.38C10.9193 106.488 10.8683 106.618 10.84 106.765C10.8117 106.912 10.7947 107.07 10.7947 107.246C10.7947 107.421 10.8117 107.585 10.84 107.732C10.8683 107.879 10.9193 108.009 10.9929 108.117C11.0665 108.224 11.1628 108.309 11.2931 108.371C11.4177 108.433 11.5819 108.462 11.7745 108.462H13.196C13.4395 108.462 13.6378 108.422 13.785 108.349C13.9379 108.269 14.0285 108.151 14.0682 107.981H11.7292V106.963H15.9315V110H14.8781L14.6685 109.519C14.5156 109.621 14.3514 109.706 14.1815 109.768C14.0116 109.83 13.8416 109.881 13.6774 109.915C13.5075 109.949 13.3489 109.972 13.1903 109.983C13.0318 109.994 12.8902 110 12.7542 110H11.8651C11.7008 110 11.5139 109.989 11.3044 109.972C11.0948 109.955 10.8853 109.915 10.6644 109.847C10.4492 109.785 10.234 109.689 10.0301 109.57C9.82621 109.451 9.63931 109.287 9.48073 109.084C9.32216 108.88 9.1919 108.626 9.09562 108.326C8.99934 108.026 8.94836 107.664 8.94836 107.24C8.94836 106.816 8.99934 106.459 9.09562 106.154C9.1919 105.854 9.32216 105.6 9.48073 105.396C9.63931 105.192 9.82055 105.028 10.0301 104.91C10.234 104.791 10.4492 104.695 10.6644 104.632C10.8796 104.57 11.0948 104.525 11.3044 104.508C11.5139 104.491 11.7008 104.48 11.8651 104.48H13.0601C13.2073 104.48 13.3772 104.485 13.5641 104.502C13.751 104.519 13.9436 104.548 14.1361 104.599C14.3287 104.649 14.5213 104.717 14.7138 104.813C14.9064 104.904 15.082 105.028 15.2462 105.187C15.4104 105.345 15.5464 105.537 15.6653 105.764C15.7842 105.996 15.8692 106.267 15.9202 106.584H14.0399C14.0002 106.363 13.9039 106.216 13.7567 106.137C13.6094 106.058 13.4056 106.024 13.145 106.024H11.7631L11.7745 106.035Z" fill="white"/>
<path d="M24.2569 104.491V105.956H20.0206V106.595H24.2569V107.822H20.0206V108.535H24.2569V110H18.2535V104.491H24.2569Z" fill="white"/>
<path d="M31.829 104.491H33.596V110H31.1324L28.3459 106.38V110H26.5789V104.491H29.0539L31.8347 108.111V104.491H31.829Z" fill="white"/>
<path d="M38.5799 106.035C38.3817 106.035 38.2231 106.063 38.0985 106.126C37.9739 106.188 37.8776 106.273 37.804 106.38C37.7304 106.488 37.6794 106.618 37.6511 106.765C37.6227 106.912 37.6114 107.07 37.6114 107.246C37.6114 107.421 37.6227 107.585 37.6511 107.732C37.6794 107.879 37.7304 108.009 37.804 108.117C37.8776 108.224 37.9739 108.309 38.0985 108.371C38.2231 108.433 38.3817 108.462 38.5799 108.462H39.9731C40.1147 108.462 40.245 108.45 40.3469 108.433C40.4545 108.411 40.5395 108.377 40.6131 108.32C40.6867 108.264 40.7433 108.19 40.7887 108.1C40.834 108.009 40.8736 107.89 40.8963 107.743H42.7596C42.7199 108.088 42.6406 108.382 42.5217 108.626C42.4028 108.869 42.2668 109.078 42.1026 109.242C41.9383 109.412 41.7628 109.542 41.5702 109.638C41.3777 109.734 41.1794 109.813 40.9812 109.864C40.783 109.915 40.5848 109.955 40.3922 109.966C40.1996 109.983 40.0297 109.989 39.8768 109.989H38.6705C38.5063 109.989 38.3194 109.977 38.1098 109.96C37.9003 109.944 37.6907 109.904 37.4698 109.836C37.2546 109.774 37.0451 109.678 36.8412 109.559C36.6373 109.44 36.4561 109.276 36.2918 109.072C36.1276 108.869 35.9973 108.614 35.901 108.315C35.8048 108.015 35.7538 107.653 35.7538 107.229C35.7538 106.804 35.8048 106.448 35.901 106.143C35.9973 105.837 36.1276 105.588 36.2918 105.385C36.4561 105.181 36.6373 105.017 36.8412 104.898C37.0451 104.779 37.2546 104.683 37.4698 104.621C37.685 104.559 37.9003 104.514 38.1098 104.497C38.3194 104.48 38.5063 104.468 38.6705 104.468H39.8768C40.0297 104.468 40.2053 104.474 40.3922 104.491C40.5848 104.508 40.7773 104.542 40.9812 104.593C41.1794 104.649 41.3777 104.723 41.5702 104.819C41.7628 104.915 41.9383 105.051 42.1026 105.215C42.2668 105.385 42.4028 105.588 42.5217 105.832C42.635 106.075 42.7142 106.369 42.7596 106.714H40.8963C40.8623 106.448 40.7717 106.261 40.6244 106.16C40.4828 106.058 40.2619 106.007 39.9674 106.007H38.5742L38.5799 106.035Z" fill="white"/>
<path d="M44.9231 104.491H46.6901V110H44.9231V104.491Z" fill="white"/>
<path d="M53.2598 104.491L56.1878 110H54.2396L53.8318 109.191H50.9038L50.496 110H48.5477L51.4814 104.491H53.2598ZM53.0955 107.732L52.3706 106.29L51.6457 107.732H53.1012H53.0955Z" fill="white"/>
<path d="M204.691 104.491L202.04 107.8V110H200.273V107.8L197.623 104.491H199.803L201.157 106.318L202.51 104.491H204.697H204.691Z" fill="white"/>
<path d="M211.799 104.485H213.566V107.24C213.566 107.664 213.515 108.02 213.418 108.326C213.322 108.631 213.192 108.88 213.033 109.084C212.875 109.287 212.693 109.451 212.484 109.57C212.28 109.689 212.065 109.785 211.85 109.847C211.634 109.91 211.419 109.955 211.21 109.972C211 109.989 210.813 110 210.649 110H209.454C209.29 110 209.103 109.989 208.893 109.972C208.684 109.955 208.474 109.915 208.253 109.847C208.038 109.785 207.823 109.689 207.619 109.57C207.415 109.451 207.228 109.287 207.07 109.084C206.911 108.88 206.781 108.626 206.684 108.326C206.588 108.026 206.537 107.664 206.537 107.24V104.485H208.304V107.24C208.304 107.415 208.321 107.579 208.361 107.726C208.395 107.873 208.457 108.003 208.536 108.111C208.616 108.218 208.729 108.303 208.859 108.365C208.995 108.428 209.159 108.456 209.352 108.456H210.813C211.011 108.456 211.17 108.428 211.295 108.365C211.419 108.303 211.521 108.218 211.595 108.111C211.668 108.003 211.719 107.873 211.748 107.726C211.776 107.579 211.793 107.415 211.793 107.24V104.485H211.799Z" fill="white"/>
<path d="M218.555 106.029C218.357 106.029 218.198 106.058 218.074 106.12C217.949 106.182 217.853 106.267 217.779 106.374C217.706 106.482 217.655 106.612 217.626 106.759C217.598 106.906 217.581 107.064 217.581 107.24C217.581 107.415 217.598 107.579 217.626 107.726C217.655 107.873 217.706 108.003 217.779 108.111C217.853 108.218 217.949 108.303 218.074 108.365C218.198 108.428 218.357 108.456 218.555 108.456H219.948C220.09 108.456 220.22 108.445 220.322 108.428C220.424 108.411 220.515 108.371 220.588 108.314C220.662 108.258 220.719 108.184 220.764 108.094C220.809 108.003 220.849 107.885 220.872 107.738H222.735C222.695 108.083 222.616 108.377 222.497 108.62C222.378 108.863 222.242 109.072 222.078 109.236C221.914 109.406 221.738 109.536 221.546 109.632C221.353 109.728 221.155 109.808 220.957 109.859C220.758 109.909 220.56 109.949 220.368 109.96C220.175 109.977 220.005 109.983 219.852 109.983H218.646C218.482 109.983 218.295 109.972 218.085 109.955C217.876 109.938 217.666 109.898 217.445 109.83C217.23 109.768 217.02 109.672 216.817 109.553C216.613 109.434 216.431 109.27 216.267 109.067C216.103 108.863 215.973 108.609 215.876 108.309C215.78 108.009 215.729 107.647 215.729 107.223C215.729 106.799 215.78 106.442 215.876 106.137C215.973 105.837 216.103 105.583 216.267 105.379C216.431 105.175 216.613 105.011 216.817 104.893C217.02 104.774 217.23 104.678 217.445 104.615C217.66 104.553 217.876 104.508 218.085 104.491C218.295 104.474 218.482 104.463 218.646 104.463H219.852C220.005 104.463 220.181 104.468 220.368 104.485C220.56 104.502 220.753 104.536 220.957 104.587C221.155 104.644 221.353 104.717 221.546 104.813C221.738 104.909 221.914 105.045 222.078 105.209C222.242 105.379 222.378 105.583 222.497 105.826C222.61 106.069 222.69 106.363 222.735 106.708H220.872C220.838 106.442 220.747 106.256 220.6 106.154C220.458 106.052 220.237 106.001 219.943 106.001H218.55L218.555 106.029Z" fill="white"/>
<path d="M228.761 104.485L231.689 109.994H229.741L229.333 109.186H226.405L225.997 109.994H224.049L226.983 104.485H228.761ZM228.597 107.726L227.872 106.284L227.147 107.726H228.597Z" fill="white"/>
<path d="M232.306 104.485H237.862V106.029H235.948V109.994H234.169V106.029H232.306V104.485Z" fill="white"/>
<path d="M243.197 104.485L246.125 109.994H244.177L243.769 109.186H240.841L240.433 109.994H238.485L241.419 104.485H243.197ZM242.75 103.931H241.583L242.659 102.178H244.477L242.755 103.931H242.75ZM243.033 107.726L242.308 106.284L241.583 107.726H243.033Z" fill="white"/>
<path d="M253.233 104.485H255V109.994H252.536L249.744 106.374V109.994H247.977V104.485H250.452L253.233 108.105V104.485Z" fill="white"/>
<path d="M69.9842 107.245C69.9842 107.669 69.9332 108.026 69.8369 108.331C69.7406 108.637 69.6104 108.885 69.4461 109.089C69.2819 109.293 69.1007 109.457 68.8968 109.576C68.6929 109.694 68.4833 109.79 68.2681 109.853C68.0529 109.915 67.8377 109.96 67.6281 109.977C67.4186 109.994 67.2317 110.005 67.0675 110.005H62.9501V104.496H67.0675C67.2317 104.496 67.4186 104.508 67.6281 104.525C67.8377 104.542 68.0472 104.581 68.2681 104.649C68.4833 104.711 68.6929 104.807 68.8968 104.926C69.1007 105.045 69.2819 105.209 69.4461 105.413C69.6104 105.616 69.7406 105.871 69.8369 106.171C69.9332 106.47 69.9842 106.832 69.9842 107.257V107.245ZM67.1637 108.467C67.362 108.467 67.5205 108.439 67.6451 108.376C67.7697 108.314 67.866 108.229 67.9396 108.122C68.0133 108.014 68.0642 107.884 68.0926 107.737C68.1209 107.59 68.1322 107.426 68.1322 107.251C68.1322 107.076 68.1209 106.917 68.0926 106.77C68.0642 106.623 68.0133 106.499 67.9396 106.385C67.866 106.278 67.7697 106.193 67.6451 106.131C67.5205 106.069 67.362 106.04 67.1637 106.04H64.7284V108.473H67.1637V108.467Z" fill="white"/>
<path d="M77.8678 104.491V105.956H73.6315V106.595H77.8678V107.822H73.6315V108.535H77.8678V110H71.8645V104.491H77.8678Z" fill="white"/>
<path d="M85.5022 104.395H91.0581V105.939H89.1438V109.904H87.3655V105.939H85.5022V104.395Z" fill="white"/>
<path d="M99.7233 106.454C99.7233 106.759 99.6837 107.019 99.61 107.234C99.5307 107.455 99.4288 107.636 99.2985 107.788C99.1683 107.941 99.021 108.06 98.8568 108.156C98.6925 108.252 98.5113 108.32 98.3301 108.371L100.006 109.898H97.6958L96.2459 108.507H94.9263V109.898H93.1479V104.389H97.0954C97.2597 104.389 97.4409 104.395 97.6391 104.406C97.8373 104.417 98.0299 104.451 98.2281 104.497C98.4264 104.542 98.6132 104.61 98.7945 104.7C98.9757 104.791 99.1343 104.915 99.2759 105.068C99.4175 105.221 99.5251 105.413 99.61 105.634C99.695 105.854 99.7403 106.131 99.7403 106.448L99.7233 106.454ZM94.915 106.968H96.9085C97.1067 106.968 97.2653 106.963 97.3899 106.951C97.5145 106.94 97.6108 106.912 97.6844 106.872C97.7581 106.833 97.809 106.782 97.8373 106.714C97.8657 106.646 97.8827 106.561 97.8827 106.454C97.8827 106.346 97.8657 106.256 97.8373 106.193C97.809 106.126 97.7581 106.075 97.6844 106.035C97.6108 105.995 97.5145 105.973 97.3899 105.956C97.2653 105.939 97.1067 105.939 96.9085 105.939H94.915V106.974V106.968Z" fill="white"/>
<path d="M106.106 104.395L109.034 109.904H107.086L106.678 109.095H103.75L103.342 109.904H101.394L104.328 104.395H106.106ZM105.942 107.636L105.217 106.193L104.492 107.636H105.942Z" fill="white"/>
<path d="M116.148 104.395H117.915V109.904H115.451L112.664 106.284V109.904H110.897V104.395H113.372L116.153 108.015V104.395H116.148Z" fill="white"/>
<path d="M121.845 106.188C121.845 106.284 121.907 106.408 122.032 106.442C122.156 106.476 122.326 106.499 122.536 106.51C122.745 106.522 122.983 106.527 123.25 106.527C123.516 106.527 123.788 106.538 124.065 106.561C124.343 106.584 124.614 106.629 124.881 106.691C125.147 106.753 125.385 106.85 125.594 106.985C125.804 107.121 125.968 107.296 126.098 107.517C126.223 107.738 126.285 107.969 126.285 108.314C126.285 108.416 126.274 108.529 126.257 108.654C126.24 108.778 126.2 108.903 126.138 109.027C126.076 109.152 125.985 109.276 125.872 109.395C125.758 109.514 125.6 109.615 125.407 109.706C125.215 109.796 124.977 109.87 124.694 109.921C124.411 109.972 124.071 110 123.674 110H122.695C122.298 110 121.958 109.966 121.681 109.898C121.398 109.83 121.165 109.745 120.973 109.638C120.78 109.531 120.627 109.412 120.508 109.27C120.395 109.129 120.305 108.993 120.242 108.852C120.18 108.71 120.14 108.569 120.123 108.433C120.106 108.298 120.095 108.179 120.095 108.077H121.862C121.879 108.133 121.902 108.19 121.936 108.247C121.97 108.303 122.021 108.354 122.089 108.399C122.156 108.445 122.247 108.479 122.355 108.501C122.462 108.524 122.598 108.541 122.762 108.541H123.997C124.19 108.541 124.32 108.524 124.394 108.484C124.467 108.45 124.507 108.388 124.507 108.309C124.507 108.207 124.445 108.083 124.32 108.037C124.195 107.998 124.025 107.969 123.816 107.958C123.606 107.947 123.368 107.941 123.102 107.941C122.836 107.941 122.564 107.936 122.287 107.913C122.009 107.89 121.737 107.851 121.471 107.788C121.205 107.732 120.967 107.636 120.758 107.506C120.548 107.376 120.384 107.2 120.254 106.98C120.129 106.759 120.067 106.533 120.067 106.188C120.067 106.029 120.089 105.848 120.14 105.656C120.191 105.458 120.305 105.277 120.48 105.102C120.656 104.932 120.922 104.785 121.262 104.666C121.607 104.548 122.077 104.491 122.666 104.491H123.657C124.054 104.491 124.394 104.525 124.671 104.593C124.949 104.661 125.186 104.745 125.379 104.853C125.572 104.96 125.725 105.085 125.843 105.221C125.957 105.356 126.047 105.498 126.11 105.639C126.172 105.781 126.212 105.922 126.229 106.058C126.246 106.193 126.257 106.312 126.257 106.42H124.49C124.462 106.278 124.388 106.165 124.263 106.08C124.139 105.995 123.912 105.956 123.589 105.956H122.355C122.156 105.956 122.026 105.973 121.947 106.007C121.873 106.041 121.834 106.103 121.834 106.188H121.845Z" fill="white"/>
<path d="M132.402 104.395C132.566 104.395 132.747 104.4 132.946 104.412C133.144 104.423 133.336 104.457 133.535 104.502C133.733 104.547 133.92 104.615 134.101 104.706C134.282 104.796 134.446 104.921 134.582 105.074C134.718 105.226 134.831 105.419 134.916 105.639C135.001 105.86 135.047 106.137 135.047 106.454C135.047 106.77 135.001 107.042 134.916 107.268C134.831 107.494 134.718 107.681 134.582 107.834C134.446 107.986 134.282 108.111 134.101 108.201C133.92 108.292 133.727 108.36 133.535 108.405C133.342 108.45 133.144 108.478 132.946 108.495C132.747 108.512 132.572 108.512 132.402 108.512H130.233V109.904H128.454V104.395H132.402ZM132.226 106.974C132.419 106.974 132.583 106.968 132.708 106.957C132.832 106.946 132.929 106.917 133.002 106.878C133.076 106.838 133.127 106.787 133.155 106.719C133.183 106.652 133.2 106.567 133.2 106.459C133.2 106.352 133.183 106.261 133.155 106.199C133.127 106.131 133.076 106.08 133.002 106.041C132.929 106.001 132.832 105.978 132.708 105.962C132.583 105.945 132.424 105.945 132.226 105.945H130.233V106.98H132.226V106.974Z" fill="white"/>
<path d="M141.163 104.395C141.328 104.395 141.514 104.406 141.724 104.423C141.934 104.44 142.143 104.48 142.364 104.547C142.579 104.61 142.789 104.706 142.998 104.825C143.202 104.943 143.389 105.107 143.548 105.311C143.706 105.515 143.836 105.769 143.933 106.069C144.029 106.369 144.08 106.731 144.08 107.155C144.08 107.579 144.029 107.935 143.933 108.241C143.836 108.541 143.706 108.795 143.548 108.999C143.389 109.202 143.208 109.366 142.998 109.485C142.794 109.604 142.579 109.7 142.364 109.762C142.149 109.825 141.934 109.87 141.724 109.887C141.514 109.904 141.328 109.915 141.163 109.915H139.963C139.798 109.915 139.611 109.904 139.402 109.887C139.192 109.87 138.983 109.83 138.762 109.762C138.547 109.7 138.337 109.604 138.128 109.485C137.924 109.366 137.737 109.202 137.578 108.999C137.42 108.795 137.289 108.541 137.193 108.241C137.097 107.941 137.046 107.579 137.046 107.155C137.046 106.731 137.097 106.374 137.193 106.069C137.289 105.769 137.42 105.515 137.578 105.311C137.737 105.107 137.918 104.943 138.128 104.825C138.332 104.706 138.547 104.61 138.762 104.547C138.977 104.485 139.192 104.44 139.402 104.423C139.611 104.406 139.798 104.395 139.963 104.395H141.163ZM141.254 108.371C141.446 108.371 141.611 108.343 141.735 108.281C141.86 108.218 141.962 108.133 142.035 108.026C142.109 107.919 142.16 107.788 142.188 107.641C142.217 107.494 142.234 107.33 142.234 107.155C142.234 106.98 142.217 106.821 142.188 106.674C142.16 106.527 142.109 106.403 142.035 106.29C141.962 106.182 141.866 106.097 141.735 106.035C141.611 105.973 141.446 105.945 141.254 105.945H139.872C139.674 105.945 139.515 105.973 139.391 106.035C139.266 106.097 139.164 106.182 139.09 106.29C139.017 106.397 138.966 106.527 138.938 106.674C138.909 106.821 138.892 106.98 138.892 107.155C138.892 107.33 138.909 107.494 138.938 107.641C138.966 107.788 139.017 107.919 139.09 108.026C139.164 108.133 139.26 108.218 139.391 108.281C139.515 108.343 139.679 108.371 139.872 108.371H141.254Z" fill="white"/>
<path d="M152.824 106.454C152.824 106.759 152.785 107.019 152.711 107.234C152.632 107.455 152.53 107.636 152.4 107.788C152.269 107.941 152.122 108.06 151.958 108.156C151.794 108.252 151.612 108.32 151.431 108.371L153.108 109.898H150.797L149.341 108.507H148.022V109.898H146.243V104.389H150.191C150.355 104.389 150.536 104.395 150.735 104.406C150.927 104.417 151.125 104.451 151.324 104.497C151.522 104.542 151.709 104.61 151.89 104.7C152.071 104.791 152.23 104.915 152.371 105.068C152.513 105.221 152.621 105.413 152.705 105.634C152.79 105.854 152.83 106.131 152.83 106.448L152.824 106.454ZM148.016 106.968H150.01C150.208 106.968 150.366 106.963 150.491 106.951C150.616 106.94 150.712 106.912 150.786 106.872C150.859 106.833 150.91 106.782 150.938 106.714C150.967 106.646 150.984 106.561 150.984 106.454C150.984 106.346 150.967 106.256 150.938 106.193C150.91 106.126 150.859 106.075 150.786 106.035C150.712 105.995 150.616 105.973 150.491 105.956C150.366 105.939 150.208 105.939 150.01 105.939H148.016V106.974V106.968Z" fill="white"/>
<path d="M154.801 104.395H160.357V105.939H158.443V109.904H156.664V105.939H154.801V104.395Z" fill="white"/>
<path d="M168.473 104.378V105.843H164.236V106.482H168.473V107.709H164.236V108.422H168.473V109.887H162.469V104.378H168.473Z" fill="white"/>
<path d="M182.575 107.24C182.575 107.664 182.524 108.02 182.428 108.326C182.331 108.631 182.201 108.88 182.037 109.084C181.873 109.287 181.691 109.451 181.487 109.57C181.284 109.689 181.074 109.785 180.859 109.847C180.644 109.909 180.428 109.955 180.219 109.972C180.009 109.989 179.822 110 179.658 110H175.541V104.491H179.658C179.822 104.491 180.009 104.502 180.219 104.519C180.428 104.536 180.638 104.576 180.859 104.644C181.074 104.706 181.284 104.802 181.487 104.921C181.691 105.039 181.873 105.204 182.037 105.407C182.201 105.611 182.331 105.865 182.428 106.165C182.524 106.465 182.575 106.827 182.575 107.251V107.24ZM179.754 108.461C179.953 108.461 180.111 108.433 180.236 108.371C180.36 108.309 180.457 108.224 180.53 108.116C180.604 108.009 180.655 107.879 180.683 107.732C180.712 107.585 180.723 107.421 180.723 107.245C180.723 107.07 180.712 106.912 180.683 106.765C180.655 106.618 180.604 106.493 180.53 106.38C180.457 106.273 180.36 106.188 180.236 106.125C180.111 106.063 179.953 106.035 179.754 106.035H177.319V108.467H179.754V108.461Z" fill="white"/>
<path d="M190.459 104.485V105.95H186.222V106.589H190.459V107.817H186.222V108.529H190.459V109.994H184.455V104.485H190.459Z" fill="white"/>
</g>
<defs>
<clipPath id="clip0_75_128">
<rect width="255" height="110" fill="white"/>
</clipPath>
</defs>
</svg>
