<svg width="22" height="22" viewBox="0 0 22 22" fill="none" xmlns="http://www.w3.org/2000/svg">
<circle cx="11" cy="11" r="11" fill="#05549F"/>
<path fill-rule="evenodd" clip-rule="evenodd" d="M17.7436 7.22915C17.9078 7.37591 18 7.57494 18 7.78247C18 7.99 17.9078 8.18903 17.7436 8.3358L9.42461 15.7709C9.2604 15.9176 9.0377 16 8.8055 16C8.5733 16 8.35061 15.9176 8.18639 15.7709L4.24582 12.249C4.0863 12.1014 3.99804 11.9037 4.00003 11.6985C4.00203 11.4933 4.09412 11.297 4.25648 11.1519C4.41884 11.0068 4.63847 10.9245 4.86808 10.9227C5.09768 10.9209 5.31888 10.9998 5.48403 11.1423L8.8055 14.1109L16.5054 7.22915C16.6696 7.08242 16.8923 7 17.1245 7C17.3567 7 17.5794 7.08242 17.7436 7.22915Z" fill="white"/>
</svg>
