<svg width="379" height="151" viewBox="0 0 379 151" fill="none" xmlns="http://www.w3.org/2000/svg">
<path d="M105.326 0H21.4492C9.68134 0 0 9.68135 0 21.4492V34.2185C0 45.9864 9.68134 55.6677 21.4492 55.6677H105.326C117.094 55.6677 126.776 45.9864 126.776 34.2185V21.4492C126.776 9.68135 117.094 0 105.326 0ZM38.1412 40.8953H30.9636L29.6283 34.8862C28.7937 30.6298 27.9591 25.3718 27.7921 23.4522C27.6252 25.3718 26.7906 30.6298 25.8726 34.8862L24.5372 40.8953H17.5266L11.0167 13.1032H18.8619L19.6965 17.8604C20.3642 21.783 21.0319 26.5402 21.3657 29.7952C21.6996 26.5402 22.5342 21.783 23.4522 17.8604L24.4537 13.1032H31.4644L32.4659 17.8604C33.3005 21.783 34.1351 26.5402 34.3855 29.7952C34.7193 26.5402 35.5539 21.783 36.2216 17.8604L36.8893 13.1032H44.7345L38.1412 40.8953ZM55.3339 40.8953H48.1563V20.7815H55.3339V40.8953ZM51.7451 18.4446C49.4917 18.4446 47.6556 17.1093 47.6556 15.0228C47.6556 12.9363 49.4917 11.6009 51.7451 11.6009C54.1655 11.6009 56.0016 12.9363 56.0016 15.0228C55.9181 17.1927 54.1655 18.4446 51.7451 18.4446ZM122.519 34.1351C122.519 43.6495 114.841 51.4947 105.326 51.4947H57.4204C62.8453 47.5721 66.2671 41.3961 66.2671 34.1351V21.4492C66.2671 11.7678 74.1124 4.08953 83.6268 4.08953H105.41C114.924 4.08953 122.603 11.7678 122.603 21.4492V34.1351H122.519Z" fill="white"/>
<path d="M108.08 11.601C105.827 11.601 103.991 12.9363 103.991 15.0228C103.991 17.1093 105.744 18.4447 108.08 18.4447C110.501 18.4447 112.337 17.1093 112.337 15.0228C112.337 12.9363 110.584 11.601 108.08 11.601Z" fill="white"/>
<path d="M111.669 20.7815H104.492V40.8953H111.669V20.7815Z" fill="white"/>
<path d="M76.032 40.8953H83.7103V32.3824H98.4827V25.789H83.7103V19.613H100.068V13.1031H76.032V40.8953Z" fill="white"/>
<path d="M178.771 27.7922H185.782V39.4765C184.196 40.645 182.36 41.4796 180.273 42.1473C178.187 42.8149 176.1 43.0653 174.014 43.0653C171.093 43.0653 168.422 42.4811 166.085 41.2292C163.748 39.9773 161.912 38.2247 160.577 36.0547C159.241 33.8013 158.574 31.2975 158.574 28.4598C158.574 25.6222 159.241 23.1184 160.577 20.865C161.912 18.6116 163.748 16.9424 166.169 15.6905C168.589 14.4386 171.26 13.8544 174.264 13.8544C176.851 13.8544 179.272 14.2717 181.358 15.1897C183.445 16.1078 185.197 17.3597 186.616 19.0289L181.525 23.6192C179.606 21.5327 177.352 20.4477 174.681 20.4477C172.261 20.4477 170.342 21.1988 168.839 22.6177C167.337 24.1199 166.669 26.0395 166.669 28.4598C166.669 30.0456 167.003 31.3809 167.671 32.6328C168.339 33.8847 169.257 34.8028 170.508 35.4705C171.677 36.1382 173.096 36.472 174.681 36.472C176.184 36.472 177.603 36.1382 179.021 35.5539V27.7922H178.771Z" fill="#FBC703"/>
<path d="M203.141 35.0531H198.801V42.5645H190.873V14.3551H203.725C206.313 14.3551 208.483 14.7724 210.319 15.607C212.155 16.4416 213.657 17.6935 214.659 19.1958C215.66 20.7815 216.161 22.6176 216.161 24.7041C216.161 26.7072 215.66 28.5433 214.742 30.0456C213.824 31.5478 212.405 32.7163 210.653 33.6343L216.745 42.4811H208.232L203.141 35.0531ZM206.98 21.6996C206.146 20.9484 204.894 20.6146 203.308 20.6146H198.885V28.8771H203.308C204.977 28.8771 206.146 28.5433 206.98 27.7921C207.815 27.041 208.232 26.0395 208.232 24.7876C208.149 23.4522 207.732 22.4507 206.98 21.6996Z" fill="#FBC703"/>
<path d="M239.613 37.0562H227.678L225.508 42.5646H217.413L229.848 14.4386H237.694L250.129 42.5646H241.867L239.613 37.0562ZM237.276 31.1306L233.688 22.1169L230.099 31.1306H237.276Z" fill="#FBC703"/>
<path d="M257.724 20.6981H249.044V14.3551H274.249V20.6981H265.653V42.5645H257.724V20.6981Z" fill="#FBC703"/>
<path d="M280.926 39.6434C278.589 37.39 277.421 34.1351 277.421 29.9621V14.3551H285.349V29.7117C285.349 34.2185 287.102 36.472 290.691 36.472C294.196 36.472 296.032 34.2185 296.032 29.7117V14.3551H303.877V29.9621C303.877 34.1351 302.709 37.39 300.372 39.6434C298.035 41.8969 294.78 43.0653 290.607 43.0653C286.434 43.0653 283.179 41.8969 280.926 39.6434Z" fill="#FBC703"/>
<path d="M309.219 14.3552H317.147V42.4812H309.219V14.3552Z" fill="#FBC703"/>
<path d="M329.249 20.6981H320.569V14.3551H345.774V20.6981H337.178V42.5645H329.249V20.6981Z" fill="#FBC703"/>
<path d="M355.289 41.1458C352.952 39.8939 351.032 38.1412 349.697 35.8878C348.362 33.6344 347.694 31.1306 347.694 28.3764C347.694 25.6223 348.362 23.1185 349.697 20.865C351.032 18.6116 352.952 16.859 355.289 15.6071C357.626 14.3552 360.296 13.6875 363.301 13.6875C366.305 13.6875 368.976 14.3552 371.313 15.6071C373.65 16.859 375.569 18.6116 376.905 20.865C378.24 23.1185 378.908 25.6223 378.908 28.3764C378.908 31.1306 378.24 33.6344 376.905 35.8878C375.569 38.1412 373.65 39.8939 371.313 41.1458C368.976 42.3977 366.305 43.0654 363.301 43.0654C360.296 43.0654 357.709 42.3977 355.289 41.1458ZM367.223 35.4705C368.392 34.8028 369.31 33.8848 369.978 32.6329C370.645 31.381 370.979 30.0456 370.979 28.4599C370.979 26.8742 370.645 25.4553 369.978 24.2869C369.31 23.035 368.392 22.1169 367.223 21.4493C366.055 20.7816 364.803 20.4477 363.384 20.4477C361.965 20.4477 360.714 20.7816 359.545 21.4493C358.377 22.1169 357.459 23.035 356.791 24.2869C356.123 25.5388 355.789 26.8742 355.789 28.4599C355.789 30.0456 356.123 31.4644 356.791 32.6329C357.459 33.8848 358.377 34.8028 359.545 35.4705C360.714 36.1382 361.965 36.472 363.384 36.472C364.72 36.472 366.055 36.1382 367.223 35.4705Z" fill="#FBC703"/>
<path d="M264.067 139.628L264.318 138.794C264.735 139.044 265.236 139.211 265.82 139.211C266.404 139.211 266.821 138.961 266.821 138.46C266.821 137.959 266.321 137.709 265.736 137.458C264.985 137.125 264.151 136.707 264.151 135.789C264.151 134.871 264.902 134.287 265.987 134.287C266.487 134.287 267.155 134.37 267.489 134.621L267.239 135.372C266.905 135.205 266.321 135.038 265.987 135.038C265.486 135.038 265.069 135.288 265.069 135.706C265.069 136.206 265.569 136.457 266.154 136.707C266.905 137.041 267.739 137.375 267.739 138.376C267.739 139.378 266.988 139.962 265.82 139.962C265.236 140.046 264.568 139.879 264.067 139.628Z" fill="white"/>
<path d="M268.574 135.205C268.574 134.871 268.741 134.704 269.075 134.704C269.409 134.704 269.576 134.871 269.576 135.205C269.576 135.539 269.409 135.706 269.075 135.706C268.741 135.706 268.574 135.539 268.574 135.205ZM268.657 136.123H269.409V139.962H268.657V136.123Z" fill="white"/>
<path d="M270.16 139.628L270.243 138.961C270.577 139.211 271.245 139.378 271.662 139.378C272.079 139.378 272.33 139.211 272.33 138.877C272.33 138.543 271.912 138.376 271.412 138.209C270.827 138.043 270.16 137.792 270.16 137.041C270.16 136.29 270.744 135.956 271.495 135.956C271.912 135.956 272.413 136.04 272.83 136.206L272.747 136.874C272.413 136.707 271.912 136.54 271.578 136.54C271.245 136.54 270.911 136.707 270.911 136.958C270.911 137.291 271.245 137.375 271.745 137.458C272.33 137.625 272.997 137.876 272.997 138.627C272.997 139.461 272.413 139.795 271.495 139.795C271.078 140.046 270.494 139.879 270.16 139.628Z" fill="white"/>
<path d="M275.751 139.795C275.501 139.879 275.334 139.962 275.084 139.962C274.416 139.962 273.999 139.628 273.999 138.96V136.791H273.415L273.581 136.123H273.999V134.787H274.75V136.123H275.501V136.791H274.75V138.877C274.75 139.127 274.917 139.294 275.167 139.294C275.251 139.294 275.418 139.294 275.501 139.211L275.751 139.795Z" fill="white"/>
<path d="M276.002 138.042C276.002 136.79 276.67 136.039 277.755 136.039C278.84 136.039 279.34 136.707 279.34 137.875C279.34 137.959 279.34 138.126 279.34 138.209H276.837C276.837 139.044 277.254 139.378 277.922 139.378C278.422 139.378 278.84 139.211 279.173 138.96L279.257 139.628C278.923 139.962 278.422 140.129 277.838 140.129C276.67 140.045 276.002 139.294 276.002 138.042ZM278.506 137.709C278.506 137.124 278.255 136.707 277.755 136.707C277.17 136.707 276.92 137.124 276.837 137.709H278.506Z" fill="white"/>
<path d="M285.6 137.124V139.962H284.849V137.375C284.849 137.041 284.598 136.791 284.264 136.791C283.931 136.791 283.597 136.958 283.346 137.291V139.962H282.595V137.375C282.595 137.041 282.345 136.791 282.011 136.791C281.677 136.791 281.343 136.958 281.093 137.291V139.962H280.342V136.123H281.009L281.093 136.624C281.427 136.206 281.928 135.956 282.428 135.956C282.929 135.956 283.346 136.206 283.43 136.624C283.68 136.206 284.264 135.956 284.765 135.956C285.182 136.04 285.6 136.457 285.6 137.124Z" fill="white"/>
<path d="M289.355 137.291V139.962H288.688L288.604 139.461C288.27 139.795 287.77 140.045 287.352 140.045C286.685 140.045 286.267 139.628 286.267 138.96C286.267 138.042 287.102 137.542 288.604 137.542V137.208C288.604 136.874 288.354 136.707 287.937 136.707C287.519 136.707 287.102 136.79 286.685 137.041L286.518 136.457C287.018 136.206 287.603 136.039 288.103 136.039C288.855 136.039 289.355 136.54 289.355 137.291ZM287.686 139.461C288.02 139.461 288.354 139.294 288.604 139.044V138.042C287.686 138.042 287.102 138.376 287.102 138.877C287.102 139.211 287.269 139.461 287.686 139.461Z" fill="white"/>
<path d="M292.527 134.454H293.695L295.281 138.376H295.364L296.95 134.454H298.119L298.286 139.962H297.367L297.284 135.873H297.117L295.615 139.461H294.864L293.361 135.873H293.278L293.194 139.962H292.36L292.527 134.454Z" fill="white"/>
<path d="M299.12 138.043C299.12 136.791 299.788 136.04 300.873 136.04C301.958 136.04 302.459 136.707 302.459 137.876C302.459 137.959 302.459 138.126 302.459 138.21H299.955C299.955 139.044 300.372 139.378 301.04 139.378C301.54 139.378 301.958 139.211 302.292 138.961L302.375 139.628C302.041 139.962 301.54 140.129 300.956 140.129C299.704 140.046 299.12 139.295 299.12 138.043ZM301.624 137.709C301.624 137.125 301.374 136.707 300.873 136.707C300.289 136.707 300.038 137.125 299.955 137.709H301.624Z" fill="white"/>
<path d="M305.046 139.795C304.795 139.879 304.628 139.962 304.378 139.962C303.71 139.962 303.293 139.628 303.293 138.961V136.791H302.709L302.876 136.123H303.293V134.788H304.044V136.123H304.795V136.791H304.044V138.877C304.044 139.128 304.211 139.295 304.461 139.295C304.545 139.295 304.712 139.295 304.795 139.211L305.046 139.795Z" fill="white"/>
<path d="M307.633 136.707C307.216 136.707 306.715 136.874 306.381 137.208V139.962H305.63V136.123H306.298L306.381 136.624C306.715 136.207 307.216 135.956 307.633 135.956V136.707Z" fill="white"/>
<path d="M307.967 138.043C307.967 136.791 308.634 136.04 309.719 136.04C310.804 136.04 311.472 136.791 311.472 138.043C311.472 139.295 310.804 140.046 309.719 140.046C308.634 140.046 307.967 139.295 307.967 138.043ZM310.721 138.043C310.721 137.208 310.387 136.707 309.719 136.707C309.052 136.707 308.718 137.208 308.718 138.043C308.718 138.877 309.052 139.378 309.719 139.378C310.387 139.378 310.721 138.877 310.721 138.043Z" fill="white"/>
<path d="M315.728 138.043C315.728 139.295 315.144 140.046 314.226 140.046C313.809 140.046 313.392 139.879 313.058 139.545V141.548H312.307V136.123H312.974L313.058 136.54C313.392 136.123 313.809 136.04 314.226 136.04C315.144 136.04 315.728 136.791 315.728 138.043ZM314.977 138.043C314.977 137.208 314.643 136.707 314.059 136.707C313.725 136.707 313.392 136.874 313.141 137.125V138.877C313.392 139.128 313.642 139.295 314.059 139.295C314.56 139.378 314.977 138.877 314.977 138.043Z" fill="white"/>
<path d="M316.981 138.042C316.981 136.79 317.648 136.039 318.733 136.039C319.818 136.039 320.486 136.79 320.486 138.042C320.486 139.294 319.818 140.045 318.733 140.045C317.648 140.045 316.981 139.294 316.981 138.042ZM319.735 138.042C319.735 137.208 319.401 136.707 318.733 136.707C318.066 136.707 317.732 137.208 317.732 138.042C317.732 138.877 318.066 139.378 318.733 139.378C319.401 139.378 319.735 138.877 319.735 138.042Z" fill="white"/>
<path d="M321.321 134.12H322.072V139.962H321.321V134.12Z" fill="white"/>
<path d="M323.073 135.205C323.073 134.871 323.24 134.704 323.574 134.704C323.908 134.704 324.075 134.871 324.075 135.205C324.075 135.539 323.908 135.705 323.574 135.705C323.24 135.705 323.073 135.539 323.073 135.205ZM323.157 136.123H323.908V139.962H323.157V136.123Z" fill="white"/>
<path d="M326.829 139.795C326.579 139.879 326.412 139.962 326.161 139.962C325.494 139.962 325.076 139.628 325.076 138.96V136.791H324.492L324.659 136.123H325.076V134.787H325.828V136.123H326.579V136.791H325.828V138.877C325.828 139.127 325.994 139.294 326.245 139.294C326.328 139.294 326.495 139.294 326.579 139.211L326.829 139.795Z" fill="white"/>
<path d="M330.251 137.291V139.962H329.583L329.5 139.461C329.166 139.795 328.665 140.045 328.248 140.045C327.58 140.045 327.163 139.628 327.163 138.96C327.163 138.042 327.997 137.542 329.5 137.542V137.208C329.5 136.874 329.249 136.707 328.832 136.707C328.415 136.707 327.997 136.79 327.58 137.041L327.413 136.457C327.914 136.206 328.498 136.039 328.999 136.039C329.75 136.039 330.251 136.54 330.251 137.291ZM328.582 139.461C328.916 139.461 329.249 139.294 329.5 139.044V138.042C328.582 138.042 327.997 138.376 327.997 138.877C327.997 139.211 328.164 139.461 328.582 139.461Z" fill="white"/>
<path d="M334.34 137.124V139.962H333.589V137.375C333.589 137.041 333.339 136.79 333.005 136.79C332.671 136.79 332.337 136.957 332.087 137.291V139.962H331.336V136.123H332.004L332.087 136.623C332.421 136.206 332.922 135.956 333.422 135.956C333.923 136.039 334.34 136.457 334.34 137.124Z" fill="white"/>
<path d="M335.092 138.042C335.092 136.79 335.759 136.039 336.844 136.039C337.929 136.039 338.597 136.79 338.597 138.042C338.597 139.294 337.929 140.045 336.844 140.045C335.759 140.045 335.092 139.294 335.092 138.042ZM337.846 138.042C337.846 137.208 337.512 136.707 336.844 136.707C336.177 136.707 335.843 137.208 335.843 138.042C335.843 138.877 336.177 139.378 336.844 139.378C337.512 139.378 337.846 138.877 337.846 138.042Z" fill="white"/>
<path d="M323.407 148.141L323.657 147.306C324.075 147.557 324.575 147.724 325.16 147.724C325.744 147.724 326.161 147.473 326.161 146.973C326.161 146.472 325.66 146.221 325.076 145.971C324.325 145.637 323.49 145.22 323.49 144.302C323.49 143.384 324.242 142.8 325.327 142.8C325.827 142.8 326.495 142.883 326.829 143.133L326.578 143.885C326.245 143.718 325.66 143.551 325.327 143.551C324.826 143.551 324.409 143.801 324.409 144.218C324.409 144.719 324.909 144.97 325.493 145.22C326.245 145.554 327.079 145.888 327.079 146.889C327.079 147.891 326.328 148.475 325.16 148.475C324.575 148.475 323.908 148.308 323.407 148.141Z" fill="white"/>
<path d="M327.747 146.472C327.747 145.22 328.415 144.469 329.5 144.469C330.585 144.469 331.252 145.22 331.252 146.472C331.252 147.724 330.585 148.475 329.5 148.475C328.415 148.475 327.747 147.724 327.747 146.472ZM330.501 146.472C330.501 145.637 330.167 145.137 329.5 145.137C328.832 145.137 328.498 145.637 328.498 146.472C328.498 147.307 328.832 147.807 329.5 147.807C330.167 147.807 330.501 147.39 330.501 146.472Z" fill="white"/>
<path d="M331.836 148.141L331.92 147.473C332.254 147.724 332.921 147.891 333.339 147.891C333.756 147.891 334.006 147.724 334.006 147.39C334.006 147.056 333.589 146.889 333.088 146.722C332.504 146.555 331.836 146.305 331.836 145.554C331.836 144.803 332.421 144.469 333.172 144.469C333.589 144.469 334.09 144.552 334.507 144.719L334.424 145.387C334.09 145.22 333.589 145.053 333.255 145.053C332.921 145.053 332.588 145.22 332.588 145.47C332.588 145.804 332.921 145.888 333.422 145.971C334.006 146.138 334.674 146.388 334.674 147.14C334.674 147.974 334.09 148.308 333.172 148.308C332.754 148.475 332.17 148.308 331.836 148.141Z" fill="white"/>
<path d="M337.345 148.225C337.094 148.308 336.927 148.391 336.677 148.391C336.009 148.391 335.592 148.058 335.592 147.39V145.22H335.008L335.175 144.552H335.592V143.217H336.343V144.552H337.094V145.22H336.343V147.306C336.343 147.557 336.51 147.724 336.76 147.724C336.844 147.724 337.011 147.724 337.094 147.64L337.345 148.225Z" fill="white"/>
<path d="M337.679 146.472C337.679 145.22 338.346 144.469 339.431 144.469C340.516 144.469 341.017 145.137 341.017 146.305C341.017 146.388 341.017 146.555 341.017 146.639H338.513C338.513 147.473 338.931 147.807 339.598 147.807C340.099 147.807 340.516 147.64 340.85 147.39L340.934 148.058C340.6 148.391 340.099 148.558 339.515 148.558C338.263 148.475 337.679 147.724 337.679 146.472ZM340.183 146.138C340.183 145.554 339.932 145.137 339.431 145.137C338.847 145.137 338.597 145.554 338.513 146.138H340.183Z" fill="white"/>
<path d="M344.856 145.554V148.392H344.105V145.804C344.105 145.47 343.855 145.22 343.521 145.22C343.187 145.22 342.853 145.387 342.603 145.721V148.392H341.852V144.552H342.519L342.603 145.053C342.937 144.636 343.437 144.385 343.938 144.385C344.439 144.469 344.856 144.886 344.856 145.554Z" fill="white"/>
<path d="M345.774 143.634C345.774 143.3 345.941 143.134 346.275 143.134C346.609 143.134 346.776 143.3 346.776 143.634C346.776 143.968 346.609 144.135 346.275 144.135C345.941 144.135 345.774 143.968 345.774 143.634ZM345.858 144.636H346.609V148.475H345.858V144.636Z" fill="white"/>
<path d="M351.116 146.472C351.116 147.724 350.531 148.475 349.613 148.475C349.113 148.475 348.695 148.308 348.445 147.891L348.362 148.391H347.694V142.549H348.445V144.97C348.779 144.636 349.196 144.469 349.53 144.469C350.531 144.469 351.116 145.22 351.116 146.472ZM350.281 146.472C350.281 145.637 349.947 145.136 349.363 145.136C349.029 145.136 348.695 145.303 348.445 145.554V147.306C348.695 147.557 348.946 147.724 349.363 147.724C349.947 147.807 350.281 147.306 350.281 146.472Z" fill="white"/>
<path d="M351.867 142.549H352.618V148.391H351.867V142.549Z" fill="white"/>
<path d="M353.452 146.472C353.452 145.22 354.12 144.469 355.205 144.469C356.29 144.469 356.791 145.137 356.791 146.305C356.791 146.388 356.791 146.555 356.791 146.639H354.287C354.287 147.473 354.704 147.807 355.372 147.807C355.873 147.807 356.29 147.64 356.624 147.39L356.707 148.058C356.373 148.391 355.873 148.558 355.289 148.558C354.12 148.475 353.452 147.724 353.452 146.472ZM355.956 146.138C355.956 145.554 355.706 145.137 355.205 145.137C354.621 145.137 354.37 145.554 354.287 146.138H355.956Z" fill="white"/>
<path d="M293.445 147.14H291.108L290.607 148.475H289.606L291.609 142.967H292.861L294.864 148.475H293.862L293.445 147.14ZM293.194 146.388L292.36 143.801H292.276L291.358 146.388H293.194Z" fill="white"/>
<path d="M300.956 145.637V148.475H300.205V145.888C300.205 145.554 299.955 145.303 299.621 145.303C299.287 145.303 298.953 145.47 298.703 145.804V148.475H297.952V145.888C297.952 145.554 297.701 145.303 297.367 145.303C297.034 145.303 296.7 145.47 296.449 145.804V148.475H295.698V144.636H296.366L296.449 145.137C296.783 144.719 297.284 144.469 297.785 144.469C298.285 144.469 298.703 144.719 298.786 145.137C299.037 144.719 299.621 144.469 300.122 144.469C300.539 144.552 300.956 144.97 300.956 145.637Z" fill="white"/>
<path d="M304.795 145.804V148.475H304.128L304.044 147.974C303.71 148.308 303.21 148.559 302.792 148.559C302.125 148.559 301.707 148.141 301.707 147.474C301.707 146.556 302.542 146.055 304.044 146.055V145.721C304.044 145.387 303.794 145.22 303.376 145.22C302.959 145.22 302.542 145.304 302.125 145.554L301.958 144.97C302.458 144.719 303.043 144.552 303.543 144.552C304.295 144.636 304.795 145.053 304.795 145.804ZM303.043 147.974C303.376 147.974 303.71 147.807 303.961 147.557V146.556C303.043 146.556 302.458 146.889 302.458 147.39C302.458 147.724 302.709 147.974 303.043 147.974Z" fill="white"/>
<path d="M309.135 146.555C309.135 147.807 308.551 148.558 307.633 148.558C307.132 148.558 306.715 148.392 306.465 147.974L306.381 148.475H305.714V142.633H306.465V145.053C306.799 144.719 307.216 144.552 307.55 144.552C308.635 144.552 309.135 145.387 309.135 146.555ZM308.384 146.555C308.384 145.721 308.051 145.22 307.466 145.22C307.132 145.22 306.799 145.387 306.548 145.637V147.39C306.799 147.64 307.049 147.807 307.466 147.807C307.967 147.891 308.384 147.473 308.384 146.555Z" fill="white"/>
<path d="M309.97 142.633H310.721V148.475H309.97V142.633Z" fill="white"/>
<path d="M311.556 146.556C311.556 145.304 312.223 144.552 313.308 144.552C314.393 144.552 314.894 145.22 314.894 146.389C314.894 146.472 314.894 146.639 314.894 146.722H312.39C312.39 147.557 312.808 147.891 313.475 147.891C313.976 147.891 314.393 147.724 314.727 147.474L314.811 148.141C314.477 148.475 313.976 148.642 313.392 148.642C312.14 148.559 311.556 147.891 311.556 146.556ZM314.059 146.222C314.059 145.637 313.809 145.22 313.308 145.22C312.724 145.22 312.474 145.637 312.39 146.222H314.059Z" fill="white"/>
<path d="M321.237 144.719L319.818 148.642C319.485 149.56 319.151 150.061 318.4 150.061C318.316 150.061 318.149 150.061 317.982 149.977L317.899 149.31C317.982 149.31 318.066 149.31 318.149 149.31C318.483 149.31 318.817 149.226 318.984 148.475L317.565 144.552H318.4L319.401 147.473L320.403 144.552H321.237V144.719Z" fill="white"/>
<path d="M256.138 142.883H257.307L258.893 146.806H258.976L260.562 142.883H261.73L261.897 148.391H260.979L260.896 144.302H260.812L259.31 147.891H258.559L257.056 144.302H256.973L256.89 148.391H256.055L256.138 142.883Z" fill="white"/>
<path d="M262.648 146.472C262.648 145.22 263.316 144.469 264.401 144.469C265.486 144.469 266.153 145.22 266.153 146.472C266.153 147.724 265.486 148.475 264.401 148.475C263.316 148.475 262.648 147.724 262.648 146.472ZM265.486 146.472C265.486 145.637 265.152 145.137 264.484 145.137C263.817 145.137 263.483 145.637 263.483 146.472C263.483 147.307 263.817 147.807 264.484 147.807C265.152 147.807 265.486 147.39 265.486 146.472Z" fill="white"/>
<path d="M270.16 144.636L268.824 148.475H267.906L266.571 144.636H267.405L268.407 147.557L269.408 144.636H270.16Z" fill="white"/>
<path d="M270.577 143.634C270.577 143.3 270.744 143.134 271.078 143.134C271.412 143.134 271.579 143.3 271.579 143.634C271.579 143.968 271.412 144.135 271.078 144.135C270.744 144.135 270.577 143.968 270.577 143.634ZM270.744 144.636H271.495V148.475H270.744V144.636Z" fill="white"/>
<path d="M272.497 142.549H273.248V148.391H272.497V142.549Z" fill="white"/>
<path d="M274.249 143.634C274.249 143.3 274.416 143.134 274.75 143.134C275.084 143.134 275.251 143.3 275.251 143.634C275.251 143.968 275.084 144.135 274.75 144.135C274.416 144.135 274.249 143.968 274.249 143.634ZM274.333 144.636H275.084V148.475H274.333V144.636Z" fill="white"/>
<path d="M279.34 142.549V148.391H278.673L278.589 147.891C278.339 148.308 277.921 148.475 277.421 148.475C276.419 148.475 275.918 147.724 275.918 146.472C275.918 145.22 276.503 144.469 277.504 144.469C277.921 144.469 278.339 144.636 278.589 144.97V142.549H279.34ZM278.506 147.39V145.637C278.255 145.387 277.921 145.22 277.588 145.22C277.003 145.22 276.67 145.721 276.67 146.555C276.67 147.473 277.087 147.891 277.671 147.891C278.005 147.807 278.339 147.64 278.506 147.39Z" fill="white"/>
<path d="M283.18 145.721V148.391H282.512L282.428 147.891C282.095 148.225 281.594 148.475 281.177 148.475C280.509 148.475 280.092 148.058 280.092 147.39C280.092 146.472 280.926 145.971 282.428 145.971V145.637C282.428 145.303 282.178 145.137 281.761 145.137C281.343 145.137 280.926 145.22 280.509 145.47L280.342 144.886C280.843 144.636 281.427 144.469 281.928 144.469C282.679 144.469 283.18 144.97 283.18 145.721ZM281.427 147.891C281.761 147.891 282.095 147.724 282.345 147.473V146.472C281.427 146.472 280.843 146.806 280.843 147.307C280.843 147.64 281.093 147.891 281.427 147.891Z" fill="white"/>
<path d="M287.269 142.549V148.391H286.601L286.518 147.891C286.267 148.308 285.85 148.475 285.349 148.475C284.348 148.475 283.847 147.724 283.847 146.472C283.847 145.22 284.431 144.469 285.433 144.469C285.85 144.469 286.267 144.636 286.518 144.97V142.549H287.269ZM286.518 147.39V145.637C286.267 145.387 285.934 145.22 285.6 145.22C285.016 145.22 284.682 145.721 284.682 146.555C284.682 147.473 285.099 147.891 285.683 147.891C286.017 147.807 286.351 147.64 286.518 147.39Z" fill="white"/>
<path d="M344.355 134.12V139.962H343.688L343.604 139.461C343.354 139.879 342.937 140.046 342.436 140.046C341.434 140.046 340.934 139.294 340.934 138.042C340.934 136.791 341.518 136.039 342.519 136.039C342.937 136.039 343.354 136.206 343.604 136.54V134.12H344.355ZM343.604 138.961V137.208C343.354 136.958 343.02 136.791 342.686 136.791C342.102 136.791 341.768 137.291 341.768 138.126C341.768 139.044 342.186 139.461 342.77 139.461C343.02 139.378 343.354 139.211 343.604 138.961Z" fill="white"/>
<path d="M345.19 138.042C345.19 136.79 345.858 136.039 346.943 136.039C348.028 136.039 348.528 136.707 348.528 137.875C348.528 137.959 348.528 138.126 348.528 138.209H346.025C346.025 139.044 346.442 139.378 347.11 139.378C347.61 139.378 348.028 139.211 348.361 138.96L348.445 139.628C348.111 139.962 347.61 140.129 347.026 140.129C345.774 140.045 345.19 139.294 345.19 138.042ZM347.694 137.709C347.694 137.124 347.443 136.707 346.943 136.707C346.358 136.707 346.108 137.124 346.025 137.709H347.694Z" fill="white"/>
<path d="M297.534 76.8664C299.538 76.783 301.29 77.4507 303.043 78.2852C303.46 78.5356 303.794 78.8695 303.377 79.4537C303.293 79.6206 303.21 79.7875 303.043 79.9544C302.375 81.1229 302.292 81.1229 301.207 80.5387C299.287 79.6206 297.284 79.3702 295.198 79.9544C292.777 80.7056 290.941 82.2079 289.773 84.5447C288.855 86.4643 288.688 88.4674 289.105 90.4704C289.439 92.1396 290.357 93.5584 291.609 94.7269C292.61 95.7284 293.862 96.4795 295.281 96.7299C298.202 97.3976 300.789 96.8133 303.043 94.9772C303.544 94.5599 303.961 94.0592 304.378 93.475C304.545 93.2246 304.545 93.0576 304.295 92.7238C302.542 90.8042 300.789 88.8847 298.953 86.9651C298.453 86.3809 297.785 86.047 296.95 86.2974C296.032 86.6312 295.448 87.2155 295.365 88.217C295.281 88.9681 295.865 89.8027 296.533 90.1366C297.117 90.3869 297.701 90.3869 298.286 90.1366C298.786 89.8862 299.204 89.9696 299.538 90.4704C299.788 90.8042 300.122 91.0546 300.372 91.3885C300.622 91.7223 300.706 92.1396 300.289 92.3065C298.119 93.6419 294.947 93.475 293.361 90.9712C292.11 88.9681 292.193 87.0485 293.528 85.2959C295.365 82.8755 298.703 82.5417 300.956 85.0455C302.959 87.2155 305.046 89.4689 307.049 91.6388C307.717 92.39 307.717 93.0576 307.216 93.9757C306.381 95.3945 305.38 96.563 304.044 97.5645C302.375 98.8164 300.622 99.4841 298.619 99.7344C296.366 99.9848 294.196 99.651 292.277 98.566C289.773 97.2306 288.02 95.2276 286.935 92.5569C285.85 89.9696 285.767 87.2989 286.601 84.6282C287.603 81.5402 289.522 79.2033 292.527 77.7845C294.196 77.2837 295.782 76.8664 297.534 76.8664Z" fill="white"/>
<path d="M315.395 76.8664C318.316 76.8664 320.736 77.701 322.74 79.3702C325.828 81.874 327.33 85.2124 327.079 89.2185C326.829 92.6404 325.327 95.5614 322.573 97.7314C320.736 99.1502 318.566 99.9848 316.23 100.068C314.06 100.152 311.973 99.651 310.054 98.4825C309.636 98.2322 309.803 97.8983 309.803 97.5645L309.887 97.481C311.055 95.7284 310.721 95.7284 312.724 96.6464C313.893 97.1472 315.145 97.3141 316.397 97.2306C318.733 97.0637 320.653 96.1457 322.155 94.393C324.075 92.1396 324.909 89.4689 324.158 86.5478C323.491 83.8771 321.988 81.9575 319.485 80.7056C316.146 79.0364 312.14 79.871 309.72 82.4582C309.302 82.8755 308.802 83.2928 308.802 83.7101C308.802 84.1274 309.469 84.5447 309.803 84.8786C311.306 86.5478 312.808 88.1335 314.31 89.8027C314.894 90.4704 315.979 90.7208 316.73 90.4704C317.482 90.1366 317.982 89.2185 317.899 88.4674C317.815 87.4658 317.148 86.7147 316.146 86.4643C315.729 86.3809 315.395 86.4643 315.061 86.6312C314.477 86.8816 313.976 86.7982 313.642 86.2974C313.475 86.1305 313.392 85.9636 313.225 85.7966C312.474 84.962 312.557 84.7951 313.559 84.2109C315.061 83.4598 316.647 83.3763 318.149 84.2109C319.902 85.2124 320.903 87.0485 320.653 89.135C320.486 90.8042 319.651 91.9727 318.233 92.8073C317.482 93.308 316.647 93.3915 315.812 93.3915C314.31 93.3915 313.142 92.7238 312.14 91.6388C310.221 89.4689 308.301 87.3824 306.298 85.2959C305.463 84.4613 305.463 83.7936 305.964 82.7921C307.299 80.4552 309.219 78.6191 311.723 77.701C312.891 77.1168 314.227 76.6995 315.395 76.8664Z" fill="white"/>
<path d="M306.715 116.844C306.715 118.763 306.715 120.766 306.715 122.686C306.715 123.771 306.465 124.856 305.881 125.857C305.129 127.193 303.794 127.693 302.375 127.86C300.623 128.111 298.87 127.777 297.368 126.525C296.95 126.191 296.616 125.774 296.45 125.357C296.283 124.939 296.199 124.522 296.783 124.272C297.034 124.188 297.284 123.938 297.535 123.854C298.202 123.52 298.536 123.52 298.953 124.188C299.955 125.774 302.876 125.69 303.627 124.188C303.961 123.437 303.961 122.686 303.961 121.851C303.961 121.601 303.711 121.601 303.544 121.601C303.126 121.684 302.709 121.768 302.292 121.768C300.539 121.935 298.786 121.935 297.368 120.599C296.533 119.848 296.116 118.763 296.116 117.678C296.032 115.258 296.116 112.754 296.116 110.25C296.116 110.083 296.116 109.917 296.116 109.833C296.7 109.165 297.535 109.499 298.202 109.499C298.62 109.499 298.87 109.833 298.87 110.334C298.87 112.587 298.87 114.841 298.87 117.011C298.87 118.263 299.704 119.181 300.956 119.181C301.708 119.181 302.459 119.264 303.21 119.097C303.711 118.93 303.877 118.763 303.877 118.263C303.877 115.759 303.877 113.171 303.877 110.668C303.877 109.666 304.044 109.499 305.046 109.499C305.213 109.499 305.38 109.499 305.547 109.499C306.465 109.499 306.715 109.666 306.715 110.668C306.715 112.754 306.715 114.841 306.715 116.844Z" fill="white"/>
<path d="M266.404 118.596C266.738 116.677 267.489 114.924 268.073 113.088C268.824 110.835 269.575 108.498 270.243 106.244C270.577 105.243 270.911 104.909 271.996 104.909C272.33 104.909 272.663 104.909 272.997 104.909C273.581 104.909 273.832 105.243 273.665 105.827C273.164 107.162 272.663 108.498 272.163 109.917C271.662 111.419 271.161 112.838 270.577 114.34C270.076 115.842 269.492 117.261 268.908 118.68C268.49 119.681 268.157 120.766 267.739 121.768C267.656 122.018 267.489 122.185 267.239 122.185C266.988 122.185 266.654 122.269 266.404 122.269C264.735 122.269 264.818 122.269 264.234 120.683C263.65 118.93 262.982 117.178 262.314 115.508C261.647 113.756 260.979 112.003 260.478 110.167C259.978 108.665 259.393 107.246 258.809 105.744C258.642 105.243 258.726 104.993 259.31 104.909C259.811 104.826 260.311 104.909 260.812 104.909C262.064 104.993 262.064 105.994 262.398 106.829C262.815 108.081 263.232 109.332 263.65 110.501C264.151 112.087 264.735 113.756 265.235 115.342C265.903 116.343 266.07 117.511 266.404 118.596Z" fill="white"/>
<path d="M323.073 118.513C323.407 116.927 323.991 115.425 324.492 113.923C324.993 112.337 325.493 110.751 325.994 109.166C326.412 107.997 326.829 106.745 327.246 105.493C327.33 105.159 327.58 104.993 327.914 104.909C328.581 104.659 329.333 104.742 330 104.826C330.501 104.826 330.584 105.326 330.418 105.744C329.917 107.079 329.416 108.414 328.915 109.833C328.331 111.586 327.747 113.255 327.079 115.008C326.411 116.76 325.827 118.513 325.16 120.266C324.993 120.683 324.826 121.1 324.742 121.518C324.575 122.102 324.242 122.269 323.657 122.269C323.574 122.269 323.574 122.269 323.49 122.269C321.738 122.352 321.487 122.185 320.82 120.182C320.402 119.014 320.069 117.845 319.651 116.677C319.067 115.175 318.483 113.672 317.982 112.087C317.398 110.334 316.73 108.581 316.062 106.829C315.896 106.411 315.812 105.994 315.562 105.577C315.311 105.076 315.729 104.909 316.062 104.826C316.647 104.742 317.231 104.742 317.899 104.826C318.483 104.909 318.817 105.326 318.984 105.827C319.401 107.079 319.818 108.331 320.235 109.499C320.736 111.085 321.237 112.671 321.821 114.257C322.155 115.175 322.405 116.093 322.739 117.011C322.906 117.595 322.823 118.096 323.073 118.513Z" fill="white"/>
<path d="M337.178 116.76C336.093 116.76 334.924 116.76 333.839 116.76C333.422 116.76 333.255 116.927 333.255 117.345C333.255 118.68 333.923 120.015 335.676 120.015C336.927 120.015 338.096 119.932 338.93 118.68C339.181 118.263 339.682 118.012 340.182 118.513L340.266 118.596C341.768 119.181 341.685 119.848 340.683 120.85C339.682 122.018 338.263 122.352 336.761 122.436C335.425 122.519 334.09 122.436 332.754 121.768C331.336 121.017 330.668 119.681 330.501 118.263C330.251 116.343 330.167 114.423 330.751 112.504C331.169 111.085 332.504 109.833 334.006 109.583C335.342 109.332 336.594 109.332 337.929 109.583C339.849 110 341.351 111.836 341.518 113.756C341.518 114.423 341.518 115.091 341.518 115.759C341.518 116.593 341.267 116.844 340.433 116.844C339.348 116.844 338.263 116.844 337.178 116.76ZM336.009 114.674C336.761 114.674 337.512 114.674 338.346 114.674C338.513 114.674 338.847 114.757 338.847 114.423C338.847 114.006 338.93 113.589 338.764 113.088C338.43 112.087 337.595 111.753 336.594 111.586C334.757 111.419 333.506 112.087 333.255 114.006C333.172 114.423 333.339 114.674 333.839 114.674C334.507 114.674 335.258 114.757 336.009 114.674Z" fill="white"/>
<path d="M284.598 117.011C284.598 118.179 284.598 119.348 284.598 120.516C284.598 121.518 284.181 121.851 283.263 122.102C281.26 122.602 279.257 122.686 277.254 122.352C275.501 122.102 274.166 121.1 274.249 118.93C274.249 117.762 274.249 116.677 275.251 115.842C276.169 115.091 277.254 115.008 278.255 114.841C279.34 114.674 280.342 114.757 281.427 114.841C281.594 114.841 281.76 114.924 281.844 114.674C282.094 113.839 281.677 112.42 280.842 112.087C279.757 111.586 277.921 111.669 277.087 112.838C276.92 113.088 276.753 113.505 276.336 113.422C275.668 113.255 275 113.172 274.583 112.587C274.416 112.337 274.499 112.003 274.666 111.669C275.501 110.334 276.669 109.666 278.172 109.416C279.674 109.165 281.093 109.249 282.428 109.917C283.68 110.501 284.348 111.753 284.515 113.172C284.682 114.423 284.598 115.675 284.598 117.011ZM281.927 118.43C281.927 118.096 281.927 117.762 281.927 117.428C281.927 117.261 281.927 117.094 281.677 117.094C280.425 117.011 279.173 116.677 277.921 117.178C277.254 117.428 277.003 117.845 277.087 118.847C277.17 119.514 277.504 119.848 278.172 120.015C279.006 120.182 279.841 120.182 280.675 120.099C281.927 119.932 281.927 119.848 281.927 118.43Z" fill="white"/>
<path d="M343.688 116.343C343.688 114.841 343.688 113.339 343.688 111.836C343.688 110.668 344.188 110.084 345.357 109.833C346.275 109.666 347.193 109.416 348.111 109.332C350.031 109.166 351.867 109.249 353.286 110.835C354.12 111.753 354.287 113.005 354.287 114.173C354.287 116.51 354.287 118.847 354.287 121.184C354.287 122.018 354.12 122.185 353.286 122.185C351.533 122.269 351.533 122.269 351.533 120.433C351.533 118.43 351.533 116.427 351.533 114.424C351.533 113.339 351.366 112.337 350.114 112.003C349.029 111.669 347.861 111.753 346.692 112.17C346.358 112.254 346.442 112.587 346.442 112.838C346.442 115.592 346.442 118.263 346.442 121.017C346.442 122.102 346.275 122.185 345.19 122.185C344.105 122.185 343.604 121.685 343.604 120.683C343.688 119.264 343.688 117.762 343.688 116.343Z" fill="white"/>
<path d="M311.973 114.423C312.891 114.423 313.893 114.423 314.811 114.423C315.311 114.423 315.478 114.59 315.478 115.091C315.478 117.094 315.812 117.094 313.559 117.094C312.14 117.094 310.721 117.094 309.302 117.094C308.551 117.094 308.384 116.927 308.384 116.176C308.384 115.008 308.885 114.423 310.053 114.423C310.721 114.423 311.305 114.423 311.973 114.423Z" fill="white"/>
<path d="M290.107 114.423C291.108 114.423 292.11 114.423 293.111 114.423C293.445 114.423 293.612 114.507 293.612 114.841C293.695 115.341 293.695 115.842 293.612 116.26C293.612 116.76 293.278 117.011 292.777 117.011C291.025 117.011 289.189 117.011 287.436 117.011C286.852 117.011 286.518 116.844 286.601 116.176C286.601 115.926 286.601 115.592 286.601 115.341C286.601 114.423 286.601 114.423 287.603 114.34C288.437 114.423 289.272 114.423 290.107 114.423Z" fill="white"/>
<path d="M78.8696 135.121H84.8787V126.358L72.8604 112.671H64.9318L78.8696 129.363V135.121Z" fill="white"/>
<path d="M85.7967 121.267L101.07 103.156H93.2246L81.7906 116.844L85.7967 121.267Z" fill="white"/>
<path d="M54.4992 135.122H48.4901V109.165L45.1517 103.156H77.9515L72.9439 109.165H54.4992V135.122Z" fill="white"/>
<path d="M43.3157 109.165H32.299L28.9606 103.156H39.9773L43.3157 109.165Z" fill="white"/>
<path d="M17.8604 103.156H23.3688L37.39 128.194H30.7967L20.698 111.92L9.01365 135.122H2.50378L17.8604 103.156Z" fill="white"/>
<path d="M133.369 104.074L136.54 110.083H134.37L133.953 109.165H130.782L130.364 110.083H128.278L131.449 104.074H133.369ZM133.202 107.58L132.451 105.994L131.7 107.58H133.202Z" fill="white"/>
<path d="M140.964 105.744C140.797 105.744 140.546 105.744 140.463 105.827C140.296 105.91 140.213 105.994 140.129 106.077C140.046 106.161 139.962 106.328 139.962 106.495C139.962 106.662 139.879 106.829 139.879 106.995C139.879 107.162 139.879 107.329 139.962 107.496C140.046 107.663 140.046 107.83 140.129 107.914C140.213 107.997 140.296 108.08 140.463 108.164C140.63 108.247 140.797 108.247 140.964 108.247H142.549C142.8 108.247 143.05 108.164 143.217 108.164C143.384 108.08 143.467 107.914 143.551 107.747H141.047V106.662H145.637V109.917H144.386L144.135 109.416C143.968 109.499 143.801 109.583 143.634 109.666C143.468 109.75 143.301 109.75 143.05 109.833C142.883 109.833 142.716 109.917 142.549 109.917C142.383 109.917 142.216 109.917 142.049 109.917H141.131C140.964 109.917 140.713 109.917 140.546 109.917C140.296 109.917 140.046 109.833 139.879 109.75C139.712 109.666 139.378 109.583 139.211 109.416C138.961 109.249 138.794 109.082 138.627 108.915C138.46 108.665 138.293 108.414 138.21 108.08C138.126 107.747 138.043 107.329 138.043 106.912C138.043 106.495 138.126 106.077 138.21 105.744C138.293 105.41 138.46 105.159 138.627 104.909C138.794 104.659 138.961 104.492 139.211 104.408C139.461 104.325 139.628 104.158 139.879 104.074C140.129 103.991 140.379 103.991 140.546 103.907C140.713 103.824 140.964 103.907 141.131 103.907H142.466C142.633 103.907 142.8 103.907 143.05 103.907C143.217 103.907 143.468 103.991 143.634 103.991C143.801 103.991 144.052 104.158 144.302 104.241C144.552 104.325 144.719 104.492 144.886 104.659C145.053 104.826 145.22 105.076 145.387 105.326C145.471 105.577 145.637 105.827 145.637 106.244H143.634C143.551 105.994 143.467 105.827 143.301 105.744C143.134 105.66 142.883 105.66 142.633 105.66L140.964 105.744Z" fill="white"/>
<path d="M154.484 104.074V105.66H149.894V106.328H154.484V107.663H149.894V108.414H154.484V110H147.974V103.991H154.484V104.074Z" fill="white"/>
<path d="M162.747 104.074H164.666V110.083H161.996L158.991 106.161V110.083H157.071V104.074H159.742L162.747 107.997V104.074Z" fill="white"/>
<path d="M170.008 105.744C169.841 105.744 169.59 105.744 169.507 105.827C169.423 105.91 169.257 105.994 169.173 106.077C169.09 106.161 169.006 106.328 169.006 106.495C169.006 106.662 168.923 106.829 168.923 106.995C168.923 107.162 168.923 107.329 169.006 107.496C169.006 107.663 169.09 107.83 169.173 107.913C169.257 107.997 169.34 108.08 169.507 108.164C169.674 108.247 169.841 108.247 170.008 108.247H171.51C171.677 108.247 171.844 108.247 171.927 108.247C172.011 108.247 172.094 108.164 172.261 108.164C172.345 108.08 172.428 107.997 172.428 107.913C172.428 107.83 172.511 107.663 172.511 107.496H174.515C174.431 107.83 174.348 108.164 174.264 108.414C174.181 108.665 174.014 108.915 173.847 109.082C173.68 109.249 173.513 109.416 173.263 109.499C173.012 109.583 172.845 109.666 172.595 109.75C172.345 109.833 172.178 109.833 171.927 109.833C171.677 109.833 171.51 109.833 171.343 109.833H170.008C169.841 109.833 169.59 109.833 169.423 109.833C169.173 109.833 168.923 109.75 168.756 109.666C168.589 109.583 168.255 109.499 168.088 109.332C167.838 109.165 167.671 108.998 167.504 108.832C167.337 108.581 167.17 108.331 167.087 107.997C167.003 107.663 166.92 107.246 166.92 106.829C166.92 106.411 167.003 105.994 167.087 105.66C167.17 105.326 167.337 105.076 167.504 104.825C167.671 104.575 167.838 104.408 168.088 104.325C168.338 104.158 168.505 104.074 168.756 103.991C169.006 103.907 169.257 103.907 169.423 103.824C169.59 103.74 169.841 103.824 170.008 103.824H171.343C171.51 103.824 171.677 103.824 171.927 103.824C172.094 103.824 172.345 103.907 172.595 103.907C172.845 103.991 173.012 104.074 173.263 104.158C173.513 104.241 173.68 104.408 173.847 104.575C174.014 104.742 174.181 104.992 174.264 105.243C174.348 105.493 174.431 105.827 174.515 106.161H172.511C172.428 105.827 172.345 105.66 172.178 105.577C172.011 105.493 171.76 105.41 171.427 105.41L170.008 105.744Z" fill="white"/>
<path d="M176.935 104.074H178.855V110.083H176.935V104.074Z" fill="white"/>
<path d="M185.948 104.074L189.12 110.083H187.033L186.616 109.165H183.445L183.027 110.083H180.941L184.112 104.074H185.948ZM185.782 107.58L185.03 105.994L184.279 107.58H185.782Z" fill="white"/>
<path d="M204.059 107.079C204.059 107.58 203.976 107.913 203.892 108.247C203.809 108.581 203.642 108.832 203.475 109.082C203.308 109.332 203.058 109.499 202.891 109.583C202.641 109.75 202.474 109.833 202.223 109.917C201.973 110 201.722 110 201.556 110.083C201.389 110.167 201.138 110.083 200.971 110.083H196.464V104.074H200.971C201.138 104.074 201.389 104.074 201.556 104.074C201.806 104.074 201.973 104.158 202.223 104.241C202.474 104.325 202.641 104.408 202.891 104.575C203.141 104.742 203.308 104.909 203.475 105.076C203.642 105.326 203.809 105.577 203.892 105.91C203.976 106.244 204.059 106.578 204.059 107.079ZM201.055 108.331C201.222 108.331 201.472 108.331 201.556 108.247C201.639 108.164 201.806 108.08 201.889 107.997C201.973 107.913 202.056 107.747 202.056 107.58C202.056 107.413 202.056 107.246 202.056 107.079C202.056 106.912 202.056 106.745 202.056 106.578C202.056 106.411 201.973 106.244 201.889 106.161C201.806 106.077 201.722 105.994 201.556 105.91C201.389 105.827 201.222 105.827 201.055 105.827H198.384V108.498H201.055V108.331Z" fill="white"/>
<path d="M128.278 116.176H134.287V117.845H132.2V122.185H130.281V117.845H128.278V116.176Z" fill="white"/>
<path d="M143.634 118.346C143.634 118.68 143.551 118.93 143.551 119.181C143.467 119.431 143.384 119.598 143.217 119.765C143.05 119.932 142.883 120.099 142.716 120.182C142.549 120.266 142.382 120.349 142.132 120.433L143.968 122.102H141.464L139.879 120.599H138.46V122.102H136.54V116.093H140.797C140.964 116.093 141.131 116.093 141.381 116.093C141.548 116.093 141.798 116.176 142.049 116.176C142.216 116.26 142.466 116.26 142.633 116.426C142.8 116.51 142.967 116.677 143.134 116.844C143.301 117.011 143.384 117.178 143.467 117.428C143.551 117.678 143.634 118.012 143.634 118.346ZM138.46 118.93H140.63C140.797 118.93 141.047 118.93 141.131 118.93C141.297 118.93 141.381 118.847 141.464 118.847C141.548 118.763 141.631 118.763 141.631 118.68C141.631 118.596 141.715 118.513 141.715 118.43C141.715 118.346 141.715 118.263 141.631 118.179C141.548 118.096 141.548 118.012 141.464 118.012C141.381 117.929 141.297 117.929 141.131 117.929C140.964 117.929 140.797 117.929 140.63 117.929H138.46V118.93Z" fill="white"/>
<path d="M150.562 116.176L153.733 122.185H151.647L151.229 121.267H148.058L147.64 122.185H145.554L148.725 116.176H150.562ZM150.395 119.681L149.643 118.096L148.892 119.681H150.395Z" fill="white"/>
<path d="M161.411 116.176H163.331V122.185H160.66L157.656 118.263V122.185H155.736V116.176H158.407L161.411 120.099V116.176Z" fill="white"/>
<path d="M167.587 118.096C167.587 118.179 167.671 118.346 167.754 118.346C167.921 118.429 168.088 118.429 168.255 118.429C168.505 118.429 168.756 118.429 169.006 118.429C169.257 118.429 169.59 118.429 169.924 118.513C170.258 118.596 170.508 118.596 170.842 118.68C171.176 118.763 171.427 118.847 171.593 119.014C171.844 119.181 172.011 119.348 172.094 119.598C172.261 119.848 172.261 120.099 172.261 120.433C172.261 120.516 172.261 120.683 172.261 120.766C172.261 120.933 172.178 121.017 172.094 121.184C172.011 121.351 171.927 121.434 171.76 121.601C171.677 121.684 171.426 121.851 171.26 121.935C171.093 122.018 170.759 122.102 170.508 122.185C170.258 122.269 169.841 122.269 169.423 122.269H168.338C167.921 122.269 167.587 122.269 167.254 122.185C166.92 122.102 166.669 122.018 166.502 121.935C166.335 121.851 166.169 121.684 166.002 121.517C165.918 121.351 165.751 121.184 165.668 121.017C165.584 120.85 165.584 120.683 165.501 120.599C165.501 120.433 165.501 120.349 165.501 120.182H167.42C167.42 120.266 167.504 120.266 167.504 120.349C167.504 120.433 167.587 120.433 167.671 120.516C167.754 120.599 167.838 120.599 168.005 120.599C168.172 120.599 168.255 120.683 168.422 120.683H169.757C169.924 120.683 170.091 120.683 170.175 120.599C170.258 120.516 170.258 120.516 170.258 120.433C170.258 120.349 170.175 120.182 170.091 120.099C169.924 120.015 169.757 120.015 169.59 120.015C169.34 120.015 169.09 120.015 168.839 120.015C168.589 120.015 168.255 120.015 167.921 120.015C167.587 120.015 167.337 119.932 167.003 119.848C166.753 119.765 166.502 119.681 166.252 119.514C166.002 119.348 165.835 119.181 165.751 118.93C165.584 118.68 165.584 118.429 165.584 118.096C165.584 117.929 165.584 117.762 165.668 117.511C165.751 117.344 165.835 117.094 166.002 116.927C166.169 116.76 166.502 116.593 166.836 116.426C167.17 116.343 167.754 116.26 168.338 116.26H169.423C169.841 116.26 170.175 116.26 170.508 116.343C170.842 116.426 171.093 116.51 171.26 116.593C171.426 116.677 171.593 116.844 171.76 117.011C171.844 117.178 172.011 117.344 172.094 117.511C172.178 117.678 172.178 117.845 172.261 117.929C172.261 118.096 172.261 118.179 172.261 118.346H170.342C170.342 118.179 170.258 118.096 170.091 118.012C169.924 117.929 169.674 117.845 169.34 117.845H168.005C167.838 117.845 167.671 117.845 167.587 117.929C167.671 117.929 167.587 118.012 167.587 118.096Z" fill="white"/>
<path d="M179.021 116.176C179.188 116.176 179.355 116.176 179.606 116.176C179.772 116.176 180.023 116.26 180.273 116.26C180.44 116.343 180.691 116.343 180.857 116.51C181.024 116.593 181.191 116.76 181.358 116.927C181.525 117.094 181.609 117.261 181.692 117.511C181.776 117.762 181.859 118.012 181.859 118.43C181.859 118.847 181.776 119.097 181.692 119.348C181.609 119.598 181.442 119.765 181.358 119.932C181.275 120.099 181.024 120.266 180.857 120.349C180.691 120.433 180.44 120.516 180.273 120.6C180.106 120.683 179.856 120.683 179.606 120.683C179.355 120.683 179.188 120.683 179.021 120.683H176.684V122.185H174.765V116.176H179.021ZM178.854 118.93C179.021 118.93 179.272 118.93 179.355 118.93C179.522 118.93 179.606 118.847 179.689 118.847C179.772 118.763 179.856 118.763 179.856 118.68C179.856 118.596 179.939 118.513 179.939 118.43C179.939 118.346 179.939 118.263 179.856 118.179C179.772 118.096 179.772 118.012 179.689 118.012C179.606 118.012 179.522 117.929 179.355 117.929C179.188 117.929 179.021 117.929 178.854 117.929H176.684V119.014L178.854 118.93Z" fill="white"/>
<path d="M188.536 116.176C188.703 116.176 188.953 116.176 189.12 116.176C189.37 116.176 189.537 116.26 189.788 116.343C190.038 116.427 190.205 116.51 190.455 116.677C190.706 116.844 190.873 117.011 191.04 117.178C191.207 117.428 191.373 117.678 191.457 118.012C191.54 118.346 191.624 118.763 191.624 119.181C191.624 119.598 191.54 120.015 191.457 120.349C191.373 120.683 191.207 120.933 191.04 121.184C190.873 121.434 190.706 121.601 190.455 121.684C190.205 121.768 190.038 121.935 189.788 122.018C189.537 122.102 189.287 122.102 189.12 122.185C188.953 122.269 188.703 122.185 188.536 122.185H187.2C187.034 122.185 186.783 122.185 186.616 122.185C186.366 122.185 186.199 122.102 185.949 122.018C185.698 121.935 185.531 121.851 185.281 121.684C185.03 121.518 184.864 121.351 184.697 121.184C184.53 120.933 184.363 120.683 184.279 120.349C184.196 120.015 184.112 119.598 184.112 119.181C184.112 118.763 184.196 118.346 184.279 118.012C184.363 117.678 184.53 117.428 184.697 117.178C184.864 116.927 185.03 116.76 185.281 116.677C185.531 116.593 185.698 116.427 185.949 116.343C186.199 116.26 186.449 116.26 186.616 116.176C186.783 116.093 187.034 116.176 187.2 116.176H188.536ZM188.619 120.433C188.786 120.433 189.037 120.433 189.12 120.349C189.287 120.266 189.37 120.182 189.454 120.099C189.537 120.015 189.621 119.848 189.621 119.681C189.621 119.515 189.704 119.348 189.704 119.181C189.704 119.014 189.704 118.847 189.621 118.68C189.537 118.513 189.537 118.346 189.454 118.263C189.37 118.179 189.287 118.096 189.12 118.012C188.953 117.929 188.786 117.929 188.619 117.929H187.117C186.95 117.929 186.7 117.929 186.616 118.012C186.449 118.096 186.366 118.179 186.282 118.263C186.199 118.346 186.115 118.513 186.115 118.68C186.115 118.847 186.032 119.014 186.032 119.181C186.032 119.348 186.032 119.515 186.115 119.681C186.199 119.848 186.199 120.015 186.282 120.099C186.366 120.182 186.449 120.266 186.616 120.349C186.783 120.433 186.95 120.433 187.117 120.433H188.619Z" fill="white"/>
<path d="M201.222 118.346C201.222 118.68 201.222 118.93 201.138 119.181C201.055 119.431 200.971 119.598 200.804 119.765C200.638 119.932 200.471 120.099 200.304 120.182C200.137 120.266 199.886 120.349 199.719 120.433L201.556 122.102H199.052L197.466 120.599H196.047V122.102H194.128V116.093H198.384C198.551 116.093 198.801 116.093 198.968 116.093C199.135 116.093 199.386 116.176 199.636 116.176C199.803 116.26 200.053 116.26 200.22 116.426C200.387 116.51 200.554 116.677 200.721 116.844C200.888 117.011 200.971 117.178 201.055 117.428C201.138 117.678 201.222 118.012 201.222 118.346ZM195.964 118.93H198.134C198.301 118.93 198.551 118.93 198.635 118.93C198.801 118.93 198.885 118.847 198.968 118.847C199.052 118.847 199.135 118.763 199.135 118.68C199.135 118.596 199.219 118.513 199.219 118.43C199.219 118.346 199.219 118.263 199.135 118.179C199.052 118.096 199.052 118.012 198.968 118.012C198.885 117.929 198.801 117.929 198.635 117.929C198.468 117.929 198.301 117.929 198.134 117.929H195.964V118.93Z" fill="white"/>
<path d="M203.308 116.176H209.317V117.845H207.231V122.185H205.311V117.845H203.308V116.176Z" fill="white"/>
<path d="M158.24 128.194L155.402 131.783V134.203H153.483V131.783L150.645 128.194H152.982L154.484 130.197L155.986 128.194H158.24Z" fill="white"/>
<path d="M166.002 128.194H167.921V131.199C167.921 131.7 167.838 132.033 167.754 132.367C167.671 132.701 167.504 132.952 167.337 133.202C167.17 133.452 167.003 133.619 166.753 133.703C166.502 133.786 166.335 133.953 166.085 134.037C165.835 134.12 165.584 134.12 165.417 134.203C165.25 134.287 165 134.203 164.833 134.203H163.498C163.331 134.203 163.081 134.203 162.914 134.203C162.663 134.203 162.413 134.12 162.246 134.037C162.079 133.953 161.745 133.87 161.578 133.703C161.328 133.536 161.161 133.369 160.994 133.202C160.827 132.952 160.66 132.701 160.577 132.367C160.493 132.033 160.41 131.616 160.41 131.199V128.194H162.329V131.199C162.329 131.366 162.329 131.533 162.413 131.7C162.496 131.867 162.496 132.033 162.58 132.117C162.663 132.2 162.747 132.284 162.914 132.367C163.081 132.451 163.247 132.451 163.414 132.451H165C165.167 132.451 165.417 132.451 165.501 132.367C165.668 132.284 165.751 132.2 165.835 132.117C165.918 132.033 166.002 131.867 166.002 131.7C166.002 131.533 166.085 131.366 166.085 131.199L166.002 128.194Z" fill="white"/>
<path d="M173.263 129.863C173.096 129.863 172.845 129.863 172.762 129.947C172.678 130.03 172.512 130.114 172.428 130.197C172.345 130.281 172.261 130.448 172.261 130.615C172.261 130.781 172.178 130.948 172.178 131.115C172.178 131.282 172.178 131.449 172.261 131.616C172.345 131.783 172.345 131.95 172.428 132.033C172.512 132.117 172.595 132.2 172.762 132.284C172.929 132.367 173.096 132.367 173.263 132.367H174.765C174.932 132.367 175.099 132.367 175.182 132.367C175.266 132.367 175.349 132.284 175.516 132.284C175.6 132.2 175.683 132.117 175.683 132.033C175.683 131.95 175.767 131.783 175.767 131.616H177.77C177.686 131.95 177.603 132.284 177.519 132.534C177.436 132.785 177.269 133.035 177.102 133.202C176.935 133.369 176.768 133.536 176.518 133.619C176.267 133.703 176.1 133.786 175.85 133.869C175.6 133.953 175.433 133.953 175.182 133.953C175.015 133.953 174.765 133.953 174.598 133.953H173.263C173.096 133.953 172.845 133.953 172.678 133.953C172.428 133.953 172.178 133.869 172.011 133.786C171.844 133.703 171.51 133.619 171.343 133.452C171.093 133.285 170.926 133.118 170.759 132.951C170.592 132.701 170.425 132.451 170.342 132.117C170.258 131.783 170.175 131.366 170.175 130.948C170.175 130.531 170.258 130.114 170.342 129.78C170.425 129.446 170.592 129.196 170.759 128.945C170.926 128.695 171.093 128.528 171.343 128.445C171.594 128.278 171.76 128.194 172.011 128.111C172.261 128.027 172.512 128.027 172.678 127.944C172.845 127.86 173.096 127.944 173.263 127.944H174.598C174.765 127.944 174.932 127.944 175.182 127.944C175.433 127.944 175.6 128.027 175.85 128.027C176.1 128.111 176.267 128.194 176.518 128.278C176.768 128.361 176.935 128.528 177.102 128.695C177.269 128.862 177.436 129.112 177.519 129.363C177.603 129.613 177.686 129.947 177.77 130.281H175.767C175.683 129.947 175.6 129.78 175.433 129.696C175.266 129.613 175.015 129.53 174.682 129.53L173.263 129.863Z" fill="white"/>
<path d="M184.363 128.194L187.534 134.203H185.448L185.031 133.285H181.859L181.442 134.203H179.355L182.527 128.194H184.363ZM184.196 131.7L183.445 130.114L182.694 131.7H184.196Z" fill="white"/>
<path d="M188.202 128.194H194.211V129.864H192.125V134.203H190.205V129.864H188.202V128.194Z" fill="white"/>
<path d="M199.97 128.194L203.141 134.203H201.055L200.638 133.285H197.466L197.049 134.203H194.962L198.134 128.194H199.97ZM199.469 127.61H198.217L199.386 125.691H201.389L199.469 127.61ZM199.803 131.7L199.052 130.114L198.301 131.7H199.803Z" fill="white"/>
<path d="M210.903 128.194H212.823V134.203H210.152L207.147 130.281V134.203H205.228V128.194H207.899L210.903 132.117V128.194Z" fill="white"/>
<path d="M212.572 104.074V105.66H207.982V106.328H212.572V107.663H207.982V108.414H212.572V110H206.062V103.991H212.572V104.074Z" fill="white"/>
<path d="M218.164 116.093V117.678H213.574V118.346H218.164V119.681H213.574V120.433H218.164V122.018H211.654V116.009H218.164V116.093Z" fill="white"/>
<path d="M115.008 101.905H113.923V136.29H115.008V101.905Z" fill="white"/>
<path d="M136.04 131.199C136.04 131.7 135.956 132.033 135.873 132.367C135.789 132.701 135.622 132.952 135.455 133.202C135.288 133.452 135.122 133.619 134.871 133.703C134.621 133.87 134.454 133.953 134.203 134.037C133.953 134.12 133.703 134.12 133.536 134.203C133.369 134.287 133.118 134.203 132.952 134.203H128.445V128.194H132.952C133.118 128.194 133.369 128.194 133.536 128.194C133.786 128.194 134.037 128.278 134.203 128.361C134.37 128.445 134.704 128.528 134.871 128.695C135.122 128.862 135.288 129.029 135.455 129.196C135.622 129.446 135.789 129.697 135.873 130.03C135.956 130.364 136.04 130.782 136.04 131.199ZM133.035 132.534C133.202 132.534 133.452 132.534 133.536 132.451C133.619 132.367 133.786 132.284 133.87 132.2C133.953 132.117 134.037 131.95 134.037 131.783C134.037 131.616 134.12 131.449 134.12 131.282C134.12 131.115 134.12 130.949 134.037 130.782C134.037 130.615 133.953 130.448 133.87 130.364C133.786 130.281 133.703 130.197 133.536 130.114C133.369 130.03 133.202 130.03 133.035 130.03H130.364V132.701H133.035V132.534Z" fill="white"/>
<path d="M144.636 128.194V129.78H140.046V130.448H144.636V131.783H140.046V132.534H144.636V134.12H138.126V128.111H144.636V128.194Z" fill="white"/>
</svg>
