<svg width="125" height="71" viewBox="0 0 125 71" fill="none" xmlns="http://www.w3.org/2000/svg">
<g clip-path="url(#clip0_3_28)">
<path d="M34.7455 0.147062C40.7326 -0.147051 46.2329 1.92598 51.5584 4.54454C52.9287 5.21815 53.7179 6.41358 52.683 8.0407C52.3475 8.56725 52.0687 9.13176 51.7427 9.66306C49.6399 13.1308 49.4934 13.2351 46.025 11.4942C40.1561 8.54828 33.9517 7.77504 27.7851 9.6773C20.4041 11.9543 14.7431 16.589 11.2936 23.8185C8.48198 29.7055 8.00472 35.7823 9.29002 41.9824C10.3532 47.0914 13.0467 51.5221 16.8128 55.1036C19.9599 58.0922 23.6598 60.3597 27.9647 61.3607C36.7396 63.4005 44.7066 61.7544 51.6576 55.8531C53.1981 54.5439 54.5732 53.0496 55.6789 51.3323C56.194 50.5306 56.2885 49.9472 55.5182 49.1217C50.051 43.2632 44.6972 37.2955 39.2063 31.4607C37.6233 29.7814 35.6292 28.714 33.1106 29.5015C30.2045 30.4123 28.6451 32.4 28.4088 35.379C28.2245 37.7177 29.8831 40.3505 32.071 41.2613C33.8241 41.9919 35.6953 42.0203 37.4106 41.2471C39.0409 40.5165 40.1939 40.73 41.2524 42.1864C41.9848 43.1968 42.9771 44.0222 43.7143 45.0279C44.4325 46.0051 44.631 47.2574 43.4922 47.9643C36.8105 52.1056 27.2984 51.598 22.4407 43.9368C18.5801 37.8411 18.8825 31.8402 22.9132 26.5129C28.6026 18.9798 38.6534 17.9884 45.6942 25.7444C51.8419 32.5138 58.0747 39.1978 64.2413 45.9482C66.3629 48.2679 66.344 50.3978 64.7185 53.0496C62.1007 57.319 59.0623 61.114 54.9984 64.15C50.0085 67.8786 44.4987 69.9611 38.3746 70.7439C31.4945 71.6214 24.9121 70.3738 18.9487 67.1623C11.4306 63.1064 5.93029 57.0438 2.66506 48.8608C-0.557633 40.7727 -0.836429 32.6277 1.71527 24.6202C4.71115 15.2085 10.7076 7.91736 19.8087 3.59104C24.4915 1.36147 29.3823 -0.0711512 34.7455 0.147062Z" fill="#05549F"/>
<path d="M89.3707 0.0996262C98.3158 0.0332134 105.607 2.66601 111.698 7.67068C121.021 15.3319 125.695 25.6259 124.915 37.713C124.234 48.2774 119.566 57.1529 111.051 63.7895C105.324 68.2534 98.8262 70.6347 91.6909 70.9478C84.9714 71.2419 78.6016 69.648 72.7705 66.095C71.4947 65.317 71.9152 64.3255 71.953 63.3151C71.953 63.206 72.1279 63.1111 72.2035 62.9973C75.8231 57.5894 74.7788 57.651 80.8131 60.4451C84.3051 62.058 88.1563 62.4517 91.998 62.1576C99.001 61.6216 104.983 58.818 109.557 53.4196C115.507 46.4036 117.926 38.4577 115.615 29.2643C113.569 21.1098 108.877 15.1326 101.453 11.3945C91.2939 6.27601 79.1687 8.81393 71.679 16.8783C70.5213 18.126 68.8201 19.5064 68.7398 20.792C68.6689 21.9589 70.6488 23.2777 71.764 24.4968C76.3335 29.5015 80.9218 34.4872 85.4959 39.4919C87.3577 41.5317 90.6182 42.4093 92.7683 41.4131C95.079 40.3458 96.6809 37.6513 96.4399 35.2415C96.1233 32.0679 94.1717 29.8573 91.1333 29.2406C89.9614 29.0034 88.8651 29.307 87.8397 29.8004C86.0346 30.6685 84.5887 30.3506 83.4262 28.6998C83.0198 28.1258 82.5993 27.5613 82.1267 27.0442C79.8019 24.4731 80.0003 23.8375 83.2136 22.2483C87.9011 19.9286 92.5651 19.7056 97.1723 22.2862C102.602 25.3317 105.55 30.9389 104.771 37.4378C104.161 42.5042 101.652 46.043 97.5172 48.6616C95.2491 50.099 92.6974 50.5401 90.0984 50.5259C85.5574 50.5022 81.9188 48.5145 78.8946 45.1512C73.0257 38.6238 67.1899 32.0584 61.1083 25.735C58.6275 23.1543 58.4527 21.0481 60.0499 18.1781C64.0995 10.9059 69.9826 5.49804 77.6896 2.49049C81.6353 0.948761 85.8267 -0.393726 89.3707 0.0948824V0.0996262Z" fill="#05549F"/>
</g>
<defs>
<clipPath id="clip0_3_28">
<rect width="125" height="71" fill="white"/>
</clipPath>
</defs>
</svg>
