<svg width="194" height="141" viewBox="0 0 194 141" fill="none" xmlns="http://www.w3.org/2000/svg">
<g clip-path="url(#clip0_4_318)">
<path d="M15.6288 120.951L16.0752 119.414C16.8285 119.845 17.81 120.152 18.8854 120.152C20.0369 120.152 20.8815 119.645 20.8815 118.693C20.8815 117.664 19.9126 117.235 18.8398 116.728C17.4727 116.083 15.8748 115.315 15.8748 113.501C15.8748 111.687 17.3814 110.691 19.3775 110.691C20.392 110.691 21.65 110.937 22.312 111.32L21.896 112.809C21.2036 112.441 20.1764 112.195 19.4383 112.195C18.3934 112.195 17.7187 112.656 17.7187 113.501C17.7187 114.452 18.7028 114.929 19.7604 115.452C21.1427 116.081 22.7254 116.804 22.7254 118.678C22.7254 120.553 21.2822 121.659 18.9615 121.659C17.8557 121.659 16.4734 121.397 15.6288 120.951Z" fill="white"/>
<path d="M24.1837 112.38C24.1837 111.797 24.5058 111.49 25.1044 111.49C25.703 111.49 26.0099 111.797 26.0099 112.38C26.0099 112.963 25.6878 113.255 25.1044 113.255C24.521 113.255 24.1837 112.963 24.1837 112.38ZM24.3384 114.163H25.845V121.476H24.3384V114.163Z" fill="white"/>
<path d="M27.3491 120.966L27.4709 119.645C28.1151 120.061 29.3909 120.398 30.2202 120.398C31.0496 120.398 31.5569 120.106 31.5569 119.477C31.5569 118.848 30.7427 118.541 29.8525 118.28C28.7314 117.943 27.4404 117.481 27.4404 116.098C27.4404 114.64 28.5767 113.978 30.0351 113.978C30.834 113.978 31.8156 114.178 32.5689 114.5L32.4623 115.746C31.8638 115.469 30.8492 115.162 30.1594 115.162C29.4695 115.162 28.947 115.485 28.947 116.022C28.947 116.651 29.6546 116.821 30.484 117.067C31.6355 117.39 32.9721 117.882 32.9721 119.34C32.9721 120.893 31.7902 121.659 30.0528 121.659C29.0535 121.659 27.9477 121.382 27.3491 120.966Z" fill="white"/>
<path d="M38.0244 121.243C37.5933 121.458 37.1646 121.565 36.7182 121.565C35.4273 121.565 34.6917 120.842 34.6917 119.569V115.436H33.5707L33.8928 114.161H34.6917V111.563H36.1983V114.161H37.6415V115.436H36.1983V119.508C36.1983 120.03 36.4595 120.322 36.9516 120.322C37.1976 120.322 37.4436 120.307 37.6592 120.215L38.027 121.245L38.0244 121.243Z" fill="white"/>
<path d="M38.5621 117.818C38.5621 115.36 39.8227 113.978 41.9405 113.978C44.0583 113.978 44.9511 115.223 44.9511 117.45C44.9511 117.587 44.9511 117.864 44.9207 118.064H40.1118C40.1118 119.601 40.8955 120.368 42.2322 120.368C43.1529 120.368 43.9822 120.045 44.5986 119.508L44.7685 120.735C44.109 121.334 43.125 121.656 41.9735 121.656C39.8075 121.656 38.5647 120.274 38.5647 117.816L38.5621 117.818ZM43.4014 117.111C43.4014 115.929 42.8789 115.251 41.8948 115.251C40.7738 115.251 40.2209 116.02 40.1296 117.111H43.4014Z" fill="white"/>
<path d="M56.9782 115.989V121.473H55.4717V116.497C55.4717 115.774 54.9796 115.315 54.2898 115.315C53.676 115.315 53.014 115.698 52.4763 116.284V121.476H50.9697V116.499C50.9697 115.776 50.4777 115.317 49.7878 115.317C49.174 115.317 48.4968 115.7 47.9743 116.286V121.479H46.4678V114.166H47.6801L47.8171 115.211C48.5095 114.457 49.3997 113.98 50.3813 113.98C51.3629 113.98 52.1009 114.457 52.3622 115.256C52.8999 114.473 53.8992 113.98 54.8807 113.98C56.1565 113.98 56.9706 114.749 56.9706 115.992L56.9782 115.989Z" fill="white"/>
<path d="M64.2752 116.342V121.473H63.0147L62.8777 120.583C62.2335 121.243 61.3103 121.659 60.42 121.659C59.1443 121.659 58.3453 120.829 58.3453 119.599C58.3453 117.833 59.9432 116.864 62.7687 116.864V116.22C62.7687 115.576 62.3375 115.19 61.4168 115.19C60.6331 115.19 59.8037 115.436 59.02 115.819L58.6827 114.759C59.5881 114.252 60.7574 113.975 61.6781 113.975C63.3064 113.975 64.2727 114.866 64.2727 116.342H64.2752ZM61.0186 120.489C61.5867 120.489 62.2639 120.198 62.7687 119.69V117.785C60.9248 117.785 59.8976 118.353 59.8976 119.383C59.8976 120.028 60.2958 120.489 61.0186 120.489Z" fill="white"/>
<path d="M70.4132 110.873H72.64L75.6354 118.387H75.742L78.7982 110.873H80.9794L81.2711 121.474H79.5058L79.3055 113.684H79.1837L76.3126 120.642H74.9151L72.0745 113.684H71.9527L71.7219 121.474H70.0784L70.4157 110.873H70.4132Z" fill="white"/>
<path d="M82.9629 117.818C82.9629 115.36 84.2234 113.978 86.3413 113.978C88.4591 113.978 89.3519 115.223 89.3519 117.451C89.3519 117.588 89.3519 117.864 89.3214 118.064H84.5126C84.5126 119.602 85.2963 120.368 86.6329 120.368C87.5536 120.368 88.383 120.045 88.9993 119.508L89.1692 120.735C88.5098 121.334 87.5257 121.656 86.3742 121.656C84.2082 121.656 82.9654 120.274 82.9654 117.816L82.9629 117.818ZM87.8022 117.111C87.8022 115.929 87.2797 115.251 86.2956 115.251C85.1746 115.251 84.6216 116.02 84.5303 117.111H87.8022Z" fill="white"/>
<path d="M94.5285 121.243C94.0973 121.458 93.6687 121.565 93.2223 121.565C91.9313 121.565 91.1958 120.842 91.1958 119.569V115.437H90.0747L90.3968 114.161H91.1958V111.563H92.7023V114.161H94.1455V115.437H92.7023V119.508C92.7023 120.03 92.9636 120.322 93.4556 120.322C93.7016 120.322 93.9477 120.307 94.1632 120.215L94.531 121.245L94.5285 121.243Z" fill="white"/>
<path d="M99.4896 115.251C98.6145 115.297 97.7699 115.65 97.1384 116.236V121.474H95.6318V114.161H96.8442L97.0141 115.19C97.6888 114.437 98.5968 113.975 99.3653 113.975L99.487 115.251H99.4896Z" fill="white"/>
<path d="M100.012 117.818C100.012 115.36 101.257 113.978 103.454 113.978C105.65 113.978 106.911 115.36 106.911 117.818C106.911 120.276 105.665 121.659 103.454 121.659C101.242 121.659 100.012 120.276 100.012 117.818ZM105.389 117.818C105.389 116.159 104.714 115.254 103.469 115.254C102.224 115.254 101.534 116.159 101.534 117.818C101.534 119.477 102.211 120.368 103.469 120.368C104.727 120.368 105.389 119.477 105.389 117.818Z" fill="white"/>
<path d="M115.05 117.818C115.05 120.246 113.929 121.659 112.1 121.659C111.21 121.659 110.456 121.337 109.919 120.644V124.545H108.412V114.161H109.624L109.779 115.005C110.393 114.267 111.238 113.975 112.067 113.975C113.802 113.975 115.047 115.404 115.047 117.816L115.05 117.818ZM113.497 117.818C113.497 116.205 112.805 115.254 111.654 115.254C110.979 115.254 110.347 115.561 109.919 116.114V119.523C110.335 120.076 110.948 120.368 111.623 120.368C112.79 120.368 113.497 119.462 113.497 117.818Z" fill="white"/>
<path d="M117.37 117.818C117.37 115.36 118.616 113.978 120.812 113.978C123.009 113.978 124.269 115.36 124.269 117.818C124.269 120.276 123.024 121.659 120.812 121.659C118.6 121.659 117.37 120.276 117.37 117.818ZM122.747 117.818C122.747 116.159 122.073 115.254 120.827 115.254C119.582 115.254 118.892 116.159 118.892 117.818C118.892 119.477 119.567 120.368 120.827 120.368C122.088 120.368 122.747 119.477 122.747 117.818Z" fill="white"/>
<path d="M125.771 110.259H127.277V121.474H125.771V110.259Z" fill="white"/>
<path d="M129.088 112.38C129.088 111.797 129.41 111.49 130.009 111.49C130.607 111.49 130.914 111.797 130.914 112.38C130.914 112.963 130.592 113.255 130.009 113.255C129.425 113.255 129.088 112.963 129.088 112.38ZM129.243 114.163H130.749V121.476H129.243V114.163Z" fill="white"/>
<path d="M136.4 121.243C135.969 121.458 135.54 121.565 135.094 121.565C133.803 121.565 133.068 120.842 133.068 119.569V115.437H131.947L132.269 114.161H133.068V111.563H134.574V114.161H136.017V115.437H134.574V119.508C134.574 120.03 134.835 120.322 135.327 120.322C135.573 120.322 135.819 120.307 136.035 120.215L136.403 121.245L136.4 121.243Z" fill="white"/>
<path d="M142.959 116.342V121.474H141.699L141.562 120.583C140.917 121.243 139.994 121.659 139.104 121.659C137.828 121.659 137.029 120.829 137.029 119.599C137.029 117.834 138.627 116.865 141.453 116.865V116.22C141.453 115.576 141.021 115.19 140.101 115.19C139.317 115.19 138.488 115.437 137.704 115.82L137.367 114.759C138.272 114.252 139.441 113.975 140.362 113.975C141.99 113.975 142.957 114.866 142.957 116.342H142.959ZM139.703 120.489C140.271 120.489 140.948 120.198 141.453 119.69V117.785C139.609 117.785 138.582 118.354 138.582 119.383C138.582 120.028 138.98 120.489 139.703 120.489Z" fill="white"/>
<path d="M150.809 115.99V121.474H149.302V116.497C149.302 115.774 148.81 115.315 148.121 115.315C147.507 115.315 146.83 115.698 146.307 116.284V121.476H144.801V114.163H146.013L146.15 115.208C146.842 114.455 147.733 113.978 148.714 113.978C149.99 113.978 150.804 114.747 150.804 115.99H150.809Z" fill="white"/>
<path d="M152.207 117.818C152.207 115.36 153.452 113.978 155.648 113.978C157.845 113.978 159.105 115.36 159.105 117.818C159.105 120.276 157.86 121.659 155.648 121.659C153.437 121.659 152.207 120.276 152.207 117.818ZM157.584 117.818C157.584 116.159 156.909 115.254 155.664 115.254C154.418 115.254 153.728 116.159 153.728 117.818C153.728 119.477 154.403 120.368 155.664 120.368C156.924 120.368 157.584 119.477 157.584 117.818Z" fill="white"/>
<path d="M129.869 137.221L130.316 135.683C131.069 136.115 132.051 136.422 133.126 136.422C134.278 136.422 135.122 135.914 135.122 134.963C135.122 133.933 134.153 133.505 133.08 132.997C131.713 132.353 130.115 131.584 130.115 129.771C130.115 127.957 131.622 126.96 133.618 126.96C134.633 126.96 135.891 127.206 136.553 127.589L136.137 129.078C135.444 128.71 134.417 128.464 133.679 128.464C132.634 128.464 131.959 128.926 131.959 129.771C131.959 130.722 132.943 131.199 134.001 131.721C135.383 132.35 136.966 133.073 136.966 134.948C136.966 136.822 135.523 137.928 133.202 137.928C132.096 137.928 130.714 137.667 129.869 137.221Z" fill="white"/>
<path d="M138.087 134.088C138.087 131.63 139.332 130.248 141.529 130.248C143.725 130.248 144.986 131.63 144.986 134.088C144.986 136.546 143.741 137.928 141.529 137.928C139.317 137.928 138.087 136.546 138.087 134.088ZM143.464 134.088C143.464 132.429 142.789 131.523 141.544 131.523C140.299 131.523 139.609 132.429 139.609 134.088C139.609 135.747 140.286 136.637 141.544 136.637C142.802 136.637 143.464 135.747 143.464 134.088Z" fill="white"/>
<path d="M145.998 137.236L146.12 135.914C146.764 136.33 148.04 136.668 148.869 136.668C149.698 136.668 150.206 136.376 150.206 135.747C150.206 135.118 149.391 134.811 148.501 134.55C147.38 134.212 146.089 133.751 146.089 132.368C146.089 130.91 147.225 130.248 148.684 130.248C149.483 130.248 150.464 130.448 151.218 130.77L151.111 132.016C150.512 131.739 149.498 131.432 148.808 131.432C148.118 131.432 147.596 131.754 147.596 132.292C147.596 132.921 148.303 133.091 149.133 133.337C150.284 133.659 151.621 134.151 151.621 135.61C151.621 137.162 150.439 137.928 148.702 137.928C147.702 137.928 146.596 137.652 145.998 137.236Z" fill="white"/>
<path d="M156.673 137.512C156.242 137.728 155.813 137.834 155.367 137.834C154.076 137.834 153.341 137.112 153.341 135.838V131.706H152.219L152.542 130.43H153.341V127.833H154.847V130.43H156.29V131.706H154.847V135.777C154.847 136.3 155.108 136.592 155.6 136.592C155.846 136.592 156.092 136.576 156.308 136.485L156.676 137.515L156.673 137.512Z" fill="white"/>
<path d="M157.211 134.088C157.211 131.63 158.471 130.248 160.589 130.248C162.707 130.248 163.6 131.493 163.6 133.72C163.6 133.857 163.6 134.134 163.569 134.334H158.761C158.761 135.871 159.544 136.637 160.881 136.637C161.802 136.637 162.631 136.315 163.247 135.777L163.417 137.005C162.758 137.604 161.774 137.926 160.622 137.926C158.456 137.926 157.213 136.543 157.213 134.085L157.211 134.088ZM162.05 133.38C162.05 132.198 161.528 131.521 160.544 131.521C159.423 131.521 158.87 132.29 158.778 133.38H162.05Z" fill="white"/>
<path d="M171.128 132.259V137.743H169.621V132.766C169.621 132.043 169.129 131.584 168.439 131.584C167.825 131.584 167.148 131.967 166.626 132.553V137.746H165.119V130.433H166.331L166.468 131.478C167.161 130.724 168.051 130.248 169.033 130.248C170.308 130.248 171.123 131.016 171.123 132.259H171.128Z" fill="white"/>
<path d="M172.817 128.649C172.817 128.066 173.139 127.759 173.737 127.759C174.336 127.759 174.643 128.066 174.643 128.649C174.643 129.233 174.321 129.525 173.737 129.525C173.154 129.525 172.817 129.233 172.817 128.649ZM172.971 130.433H174.478V137.746H172.971V130.433Z" fill="white"/>
<path d="M183.063 134.088C183.063 136.515 181.942 137.928 180.114 137.928C179.178 137.928 178.364 137.56 177.826 136.777L177.656 137.746H176.444V126.531H177.95V131.125C178.534 130.511 179.317 130.25 180.101 130.25C181.991 130.25 183.066 131.709 183.066 134.09L183.063 134.088ZM181.511 134.088C181.511 132.475 180.834 131.523 179.667 131.523C179.008 131.523 178.361 131.83 177.948 132.368V135.81C178.379 136.348 178.993 136.64 179.652 136.64C180.819 136.64 181.511 135.734 181.511 134.09V134.088Z" fill="white"/>
<path d="M184.583 126.529H186.089V137.743H184.583V126.529Z" fill="white"/>
<path d="M187.609 134.088C187.609 131.63 188.869 130.248 190.987 130.248C193.105 130.248 193.998 131.493 193.998 133.72C193.998 133.857 193.998 134.134 193.967 134.334H189.158C189.158 135.871 189.942 136.637 191.279 136.637C192.199 136.637 193.029 136.315 193.645 135.777L193.815 137.005C193.156 137.604 192.171 137.926 191.02 137.926C188.854 137.926 187.611 136.543 187.611 134.085L187.609 134.088ZM192.448 133.38C192.448 132.198 191.925 131.521 190.941 131.521C189.82 131.521 189.267 132.29 189.176 133.38H192.448Z" fill="white"/>
<path d="M72.0743 135.3H67.6358L66.7303 137.928H64.8712L68.7416 127.328H71.0928L74.9632 137.928H72.9823L72.0769 135.3H72.0743ZM71.6127 133.948L69.9235 129.002H69.817L68.1126 133.948H71.6153H71.6127Z" fill="white"/>
<path d="M86.6074 132.444V137.928H85.1008V132.952C85.1008 132.229 84.6088 131.77 83.9189 131.77C83.3051 131.77 82.6431 132.153 82.1054 132.739V137.931H80.5989V132.954C80.5989 132.231 80.1068 131.772 79.417 131.772C78.8032 131.772 78.126 132.155 77.6035 132.741V137.933H76.0969V130.62H77.3093L77.4462 131.666C78.1387 130.912 79.0289 130.435 80.0105 130.435C80.992 130.435 81.7301 130.912 81.9913 131.711C82.529 130.927 83.5283 130.435 84.5099 130.435C85.7856 130.435 86.5998 131.204 86.5998 132.447L86.6074 132.444Z" fill="white"/>
<path d="M93.9018 132.797V137.928H92.6413L92.5043 137.038C91.8601 137.697 90.9369 138.113 90.0466 138.113C88.7709 138.113 87.9719 137.284 87.9719 136.054C87.9719 134.288 89.5698 133.319 92.3953 133.319V132.675C92.3953 132.031 91.9641 131.645 91.0434 131.645C90.2597 131.645 89.4303 131.891 88.6466 132.274L88.3092 131.214C89.2147 130.707 90.384 130.43 91.3046 130.43C92.9329 130.43 93.8993 131.321 93.8993 132.797H93.9018ZM90.6452 136.944C91.2133 136.944 91.8905 136.652 92.3953 136.145V134.24C90.5514 134.24 89.5216 134.808 89.5216 135.838C89.5216 136.482 89.9198 136.944 90.6427 136.944H90.6452Z" fill="white"/>
<path d="M102.366 134.273C102.366 136.701 101.245 138.113 99.4159 138.113C98.48 138.113 97.6658 137.746 97.1281 136.962L96.9582 137.931H95.7458V126.717H97.2524V131.31C97.8358 130.697 98.6195 130.435 99.4032 130.435C101.293 130.435 102.368 131.894 102.368 134.276L102.366 134.273ZM100.813 134.273C100.813 132.66 100.136 131.709 98.9695 131.709C98.3101 131.709 97.6633 132.016 97.2499 132.553V135.995C97.6811 136.533 98.2948 136.825 98.9543 136.825C100.121 136.825 100.813 135.919 100.813 134.276V134.273Z" fill="white"/>
<path d="M103.887 126.714H105.394V137.928H103.887V126.714Z" fill="white"/>
<path d="M106.913 134.273C106.913 131.815 108.174 130.433 110.291 130.433C112.409 130.433 113.302 131.678 113.302 133.905C113.302 134.042 113.302 134.319 113.272 134.519H108.463C108.463 136.056 109.246 136.822 110.583 136.822C111.504 136.822 112.333 136.5 112.95 135.962L113.119 137.19C112.46 137.789 111.476 138.111 110.324 138.111C108.158 138.111 106.916 136.728 106.916 134.271L106.913 134.273ZM111.752 133.565C111.752 132.383 111.23 131.706 110.246 131.706C109.125 131.706 108.572 132.475 108.481 133.565H111.752Z" fill="white"/>
<path d="M125.525 130.615L122.76 138.22C122.177 139.909 121.484 141 120.041 141C119.795 141 119.549 140.97 119.303 140.924L119.103 139.648C119.273 139.694 119.455 139.709 119.625 139.709C120.269 139.709 120.822 139.509 121.253 138.126L118.519 130.615H120.193L122.113 136.285L123.972 130.615H125.525Z" fill="white"/>
<path d="M0.33733 127.143H2.56421L5.5596 134.656H5.66612L8.72238 127.143H10.9036L11.1953 137.743H9.43001L9.22964 129.953H9.1079L6.23679 136.911H4.83928L1.99861 129.953H1.87687L1.64607 137.743H0L0.33733 127.143Z" fill="white"/>
<path d="M12.887 134.088C12.887 131.63 14.1323 130.248 16.3287 130.248C18.5252 130.248 19.7857 131.63 19.7857 134.088C19.7857 136.546 18.5404 137.928 16.3287 137.928C14.1171 137.928 12.887 136.546 12.887 134.088ZM18.2639 134.088C18.2639 132.429 17.5893 131.523 16.344 131.523C15.0986 131.523 14.4088 132.429 14.4088 134.088C14.4088 135.747 15.0859 136.637 16.344 136.637C17.602 136.637 18.2639 135.747 18.2639 134.088Z" fill="white"/>
<path d="M27.2502 130.433L24.5921 137.746H22.8877L20.2449 130.433H21.9036L23.8388 136.102L25.6979 130.433H27.2502Z" fill="white"/>
<path d="M28.1708 128.649C28.1708 128.066 28.4929 127.759 29.0915 127.759C29.69 127.759 29.9969 128.066 29.9969 128.649C29.9969 129.233 29.6748 129.525 29.0915 129.525C28.5081 129.525 28.1708 129.233 28.1708 128.649ZM28.3255 130.433H29.8321V137.746H28.3255V130.433Z" fill="white"/>
<path d="M31.7952 126.529H33.3017V137.743H31.7952V126.529Z" fill="white"/>
<path d="M35.1127 128.649C35.1127 128.066 35.4348 127.759 36.0334 127.759C36.6319 127.759 36.9388 128.066 36.9388 128.649C36.9388 129.233 36.6167 129.525 36.0334 129.525C35.45 129.525 35.1127 129.233 35.1127 128.649ZM35.2674 130.433H36.774V137.746H35.2674V130.433Z" fill="white"/>
<path d="M44.913 126.529V137.743H43.6828L43.5129 136.774C42.9752 137.558 42.1763 137.926 41.2252 137.926C39.366 137.926 38.2906 136.498 38.2906 134.101C38.2906 131.703 39.366 130.245 41.2556 130.245C42.0393 130.245 42.823 130.506 43.4064 131.12V126.526H44.913V126.529ZM43.4064 135.808V132.366C42.9904 131.843 42.3462 131.521 41.6868 131.521C40.5353 131.521 39.8429 132.472 39.8429 134.07C39.8429 135.79 40.5962 136.635 41.7172 136.635C42.3614 136.635 42.993 136.343 43.4064 135.805V135.808Z" fill="white"/>
<path d="M52.2861 132.612V137.743H51.0255L50.8886 136.853C50.2444 137.512 49.3211 137.928 48.4309 137.928C47.1551 137.928 46.3562 137.099 46.3562 135.869C46.3562 134.103 47.9541 133.134 50.7795 133.134V132.49C50.7795 131.846 50.3484 131.46 49.4277 131.46C48.644 131.46 47.8146 131.706 47.0309 132.089L46.6935 131.029C47.599 130.521 48.7682 130.245 49.6889 130.245C51.3172 130.245 52.2836 131.135 52.2836 132.612H52.2861ZM49.0295 136.759C49.5976 136.759 50.2748 136.467 50.7795 135.96V134.055C48.9356 134.055 47.9059 134.623 47.9059 135.653C47.9059 136.297 48.3041 136.759 49.0269 136.759H49.0295Z" fill="white"/>
<path d="M60.3059 126.529V137.743H59.0758L58.9059 136.774C58.3682 137.558 57.5692 137.926 56.6181 137.926C54.759 137.926 53.6836 136.498 53.6836 134.101C53.6836 131.703 54.759 130.245 56.6485 130.245C57.4323 130.245 58.216 130.506 58.7993 131.12V126.526H60.3059V126.529ZM58.7993 135.808V132.366C58.3834 131.843 57.7392 131.521 57.0797 131.521C55.9282 131.521 55.2358 132.472 55.2358 134.07C55.2358 135.79 55.9891 136.635 57.1102 136.635C57.7544 136.635 58.3859 136.343 58.7993 135.805V135.808Z" fill="white"/>
<path d="M170.154 110.259V121.474H168.923L168.754 120.505C168.216 121.288 167.417 121.656 166.466 121.656C164.607 121.656 163.531 120.228 163.531 117.831C163.531 115.434 164.607 113.975 166.496 113.975C167.28 113.975 168.064 114.237 168.647 114.851V110.257H170.154V110.259ZM168.647 119.538V116.096C168.231 115.573 167.587 115.251 166.927 115.251C165.776 115.251 165.083 116.203 165.083 117.801C165.083 119.52 165.837 120.365 166.958 120.365C167.602 120.365 168.234 120.073 168.647 119.536V119.538Z" fill="white"/>
<path d="M171.673 117.818C171.673 115.36 172.933 113.978 175.051 113.978C177.169 113.978 178.062 115.223 178.062 117.451C178.062 117.588 178.062 117.864 178.031 118.064H173.223C173.223 119.602 174.006 120.368 175.343 120.368C176.264 120.368 177.093 120.045 177.709 119.508L177.879 120.735C177.22 121.334 176.236 121.656 175.084 121.656C172.918 121.656 171.675 120.274 171.675 117.816L171.673 117.818ZM176.512 117.111C176.512 115.929 175.99 115.251 175.006 115.251C173.885 115.251 173.332 116.02 173.24 117.111H176.512Z" fill="white"/>
<path d="M79.9497 0.0938805C83.7237 -0.0912887 87.1909 1.20997 90.5515 2.8562C91.4138 3.27981 91.9135 4.02809 91.2616 5.05286C91.0511 5.38515 90.8736 5.73774 90.6681 6.07256C89.3417 8.25147 89.2503 8.31742 87.0615 7.22163C83.361 5.36993 79.4475 4.88545 75.5619 6.08017C70.9077 7.50826 67.3391 10.4202 65.163 14.9607C63.3901 18.6565 63.0883 22.4765 63.8999 26.3702C64.5695 29.5789 66.2688 32.3641 68.6428 34.6114C70.6262 36.491 72.9596 37.9141 75.6735 38.5406C81.2077 39.8216 86.2296 38.7866 90.6123 35.0807C91.5838 34.2589 92.4486 33.3203 93.1487 32.2398C93.4733 31.7375 93.5342 31.3697 93.0447 30.8497C89.5953 27.1692 86.222 23.4201 82.7574 19.7548C81.7581 18.6996 80.5026 18.0299 78.9149 18.5246C77.0837 19.0953 76.0996 20.3458 75.9499 22.2178C75.8333 23.6865 76.8807 25.3403 78.258 25.9136C79.3613 26.3727 80.5432 26.3904 81.6262 25.9034C82.6534 25.4443 83.3813 25.5787 84.0484 26.4944C84.51 27.1286 85.1339 27.646 85.6031 28.2802C86.0546 28.894 86.1814 29.6804 85.4636 30.1243C81.2508 32.7268 75.2524 32.4072 72.1911 27.5928C69.7562 23.7651 69.949 19.9958 72.4879 16.6475C76.0767 11.9168 82.4124 11.2954 86.851 16.163C90.7265 20.4143 94.6578 24.6148 98.5459 28.8534C99.8826 30.312 99.8724 31.6487 98.8478 33.3127C97.1992 35.9964 95.2817 38.3782 92.72 40.2832C89.5725 42.6245 86.1002 43.9333 82.2374 44.4229C77.8978 44.9733 73.7484 44.1921 69.9896 42.1729C65.2492 39.6262 61.7821 35.8189 59.7226 30.6772C57.691 25.6092 57.5135 20.4904 59.124 15.4604C61.0136 9.55019 64.7927 4.97169 70.5324 2.2525C73.4872 0.852313 76.5688 -0.0456305 79.9522 0.091344L79.9497 0.0938805Z" fill="white"/>
<path d="M114.39 0.0634006C120.029 0.0228156 124.629 1.67666 128.469 4.81946C134.346 9.63132 137.296 16.097 136.804 23.6915C136.375 30.3297 133.43 35.9025 128.061 40.0701C124.449 42.873 120.353 44.3721 115.854 44.5674C111.618 44.7526 107.601 43.7532 103.923 41.521C103.119 41.034 103.385 40.41 103.408 39.7758C103.408 39.7074 103.52 39.649 103.565 39.578C105.848 36.1815 105.189 36.2196 108.996 37.9749C111.197 38.9895 113.627 39.2356 116.049 39.0504C120.465 38.713 124.236 36.9501 127.12 33.5613C130.871 29.1553 132.396 24.1633 130.94 18.3875C129.649 13.2662 126.689 9.5121 122.012 7.16324C115.605 3.94688 107.961 5.54238 103.238 10.6104C102.508 11.3942 101.435 12.2617 101.384 13.0684C101.338 13.8014 102.589 14.6284 103.289 15.3944C106.17 18.5372 109.064 21.6699 111.948 24.8152C113.122 26.0962 115.179 26.6491 116.534 26.0226C117.989 25.3504 119.001 23.6611 118.849 22.1467C118.651 20.153 117.419 18.7655 115.504 18.3774C114.766 18.2277 114.073 18.418 113.427 18.7274C112.29 19.2728 111.377 19.0724 110.644 18.0375C110.391 17.6773 110.122 17.3222 109.825 16.9975C108.362 15.3817 108.483 14.9835 110.51 13.9866C113.467 12.5306 116.404 12.3886 119.311 14.012C122.735 15.9245 124.594 19.4478 124.102 23.5292C123.719 26.71 122.134 28.9346 119.526 30.5783C118.096 31.4813 116.488 31.7578 114.847 31.7502C111.983 31.7349 109.691 30.487 107.781 28.3715C104.08 24.2698 100.4 20.1479 96.5677 16.1757C95.0053 14.5548 94.8912 13.2307 95.8981 11.4272C98.4496 6.85886 102.16 3.4624 107.02 1.57519C109.508 0.608762 112.151 -0.235914 114.385 0.0684737L114.39 0.0634006Z" fill="white"/>
<path d="M97.6785 77.0303C97.6785 80.7921 97.7317 84.5538 97.6582 88.313C97.6151 90.4462 97.1966 92.511 96.106 94.4236C94.5943 97.0743 92.0326 98.0077 89.334 98.3324C85.8745 98.7484 82.5037 98.2157 79.6783 95.844C78.925 95.2124 78.3036 94.4692 77.8826 93.6093C77.4996 92.8255 77.3778 92.0493 78.509 91.5623C78.9909 91.3543 79.4551 90.9662 79.9547 90.6948C81.2279 89.9998 81.9508 90.119 82.7523 91.2985C84.7636 94.2638 90.2902 94.1724 91.7207 91.2554C92.4156 89.84 92.3345 88.318 92.3243 86.8063C92.3218 86.2584 91.8982 86.2888 91.5583 86.3345C90.767 86.4359 89.9884 86.6388 89.197 86.7175C85.8111 87.0523 82.5088 87.0041 79.7848 84.498C78.1159 82.9659 77.393 80.9417 77.3347 78.811C77.2028 74.0676 77.2967 69.3192 77.3017 64.5733C77.3017 64.3069 77.2155 63.9366 77.355 63.7869C78.5065 62.5415 80.0181 63.0792 81.3852 63.1173C82.2602 63.1426 82.6939 63.7337 82.6787 64.7635C82.6153 69.0605 82.6534 73.3599 82.661 77.6594C82.666 80.0539 84.3375 81.7864 86.7115 81.761C88.1749 81.7458 89.6434 81.9563 91.1069 81.5429C92.0225 81.2842 92.3725 80.9087 92.3598 79.8967C92.299 75.0163 92.3345 70.136 92.3395 65.2556C92.3395 63.3963 92.654 63.0843 94.5132 63.0539C94.8251 63.0488 95.1396 63.0463 95.4541 63.0463C97.2777 63.0386 97.6785 63.4191 97.681 65.2099C97.6861 69.1492 97.681 73.0911 97.681 77.0303H97.6861H97.6785Z" fill="white"/>
<path d="M20.1155 80.3203C20.7978 76.6347 22.2257 73.2078 23.3519 69.6947C24.7646 65.2912 26.2382 60.908 27.6154 56.4918C28.219 54.5539 28.9571 53.8893 31.0267 53.8614C31.6989 53.8513 32.371 53.831 33.0406 53.869C34.1616 53.9324 34.6105 54.526 34.2402 55.5609C33.3069 58.1787 32.3 60.7685 31.3565 63.3837C30.3394 66.2043 29.3832 69.0453 28.3585 71.8634C27.3339 74.6841 26.2534 77.4844 25.2084 80.2975C24.4704 82.2836 23.7374 84.2723 23.0323 86.2711C22.8497 86.7911 22.6112 87.1183 22.0127 87.1412C21.4826 87.1614 20.9576 87.3187 20.4275 87.3238C17.2292 87.3593 17.3053 87.3238 16.2882 84.3129C15.1469 80.9367 13.8305 77.6189 12.6258 74.2655C11.4007 70.8589 10.1275 67.4726 9.00393 64.028C8.06296 61.1439 6.89118 58.3334 5.7955 55.5C5.4252 54.5438 5.70673 53.9908 6.84299 53.8893C7.81947 53.8031 8.81117 53.8437 9.79273 53.8893C12.1337 53.9959 12.2352 56.0175 12.7957 57.5673C13.6505 59.9264 14.3835 62.331 15.1722 64.7154C16.1969 67.81 17.2216 70.9071 18.2919 73.9815C19.0173 76.064 19.413 78.2099 20.1155 80.3254V80.3203Z" fill="white"/>
<path d="M129.147 80.2949C129.824 77.2511 130.886 74.3467 131.838 71.4068C132.824 68.3528 133.699 65.2582 134.8 62.2448C135.65 59.9238 136.373 57.5648 137.179 55.2337C137.397 54.6046 137.826 54.3357 138.384 54.143C139.69 53.694 141.042 53.8234 142.371 53.9096C143.418 53.9781 143.527 54.7974 143.243 55.599C142.313 58.2167 141.306 60.8065 140.37 63.4217C139.185 66.7319 138.062 70.0675 136.87 73.3752C135.657 76.7412 134.394 80.092 133.149 83.4454C132.857 84.2317 132.449 84.9901 132.266 85.7993C132.008 86.9484 131.214 87.2147 130.235 87.306C130.146 87.3136 130.057 87.3136 129.966 87.3187C126.575 87.5191 126.042 87.0701 124.853 83.3109C124.135 81.0432 123.349 78.7958 122.542 76.5561C121.482 73.6136 120.373 70.6941 119.389 67.7212C118.268 64.3298 116.929 61.0094 115.674 57.6637C115.379 56.8774 115.177 56.0682 114.781 55.3073C114.258 54.2977 115.136 53.9781 115.808 53.9172C116.955 53.8132 118.116 53.8005 119.28 53.9781C120.465 54.1607 120.985 54.8684 121.317 55.911C122.078 58.3004 122.887 60.6721 123.676 63.0539C124.685 66.1029 125.616 69.1797 126.732 72.1881C127.379 73.9332 127.84 75.7291 128.454 77.4743C128.779 78.3951 128.682 79.3869 129.149 80.2924L129.147 80.2949Z" fill="white"/>
<path d="M156.285 76.9213C154.139 76.9213 151.991 76.9569 149.845 76.9036C148.955 76.8808 148.704 77.1928 148.722 78.0603C148.775 80.5841 150.079 83.1689 153.417 83.1968C155.877 83.2171 158.088 83.0066 159.603 80.6856C160.112 79.9043 161.005 79.4021 161.961 80.2975C162.022 80.3559 162.119 80.3761 162.202 80.4091C165.127 81.5709 164.898 82.7529 163.088 84.7771C161.081 87.0194 158.411 87.7093 155.572 87.8818C152.947 88.0442 150.37 87.8894 147.946 86.5907C145.186 85.1119 144.012 82.6159 143.677 79.775C143.238 76.0589 143.063 72.3175 144.129 68.6141C144.917 65.8619 147.583 63.5105 150.434 62.9246C152.975 62.3995 155.4 62.3944 157.946 62.9144C161.708 63.6855 164.619 67.1962 164.807 70.9021C164.873 72.1957 164.82 73.497 164.812 74.7957C164.802 76.3481 164.297 76.8909 162.727 76.9137C160.582 76.9467 158.433 76.9213 156.288 76.9213H156.285ZM154.084 72.911V72.9161C155.56 72.9161 157.033 72.9263 158.507 72.9085C158.872 72.9034 159.433 73.0708 159.428 72.4519C159.42 71.6174 159.552 70.7879 159.255 69.9407C158.563 67.9647 156.937 67.2824 155.149 67.0795C151.672 66.6838 149.138 68.1017 148.732 71.729C148.641 72.5483 148.841 72.9745 149.795 72.9288C151.223 72.8603 152.653 72.911 154.084 72.911Z" fill="white"/>
<path d="M55.0431 77.3449C55.0431 79.5821 55.071 81.8168 55.0355 84.0541C55.005 85.954 54.3202 86.6642 52.4738 87.1157C48.6592 88.0492 44.7964 88.2166 40.9437 87.623C37.6414 87.1132 35.0417 85.2463 35.1102 81.0102C35.1457 78.7907 35.133 76.6524 37.0378 75.0569C38.7371 73.6314 40.8397 73.5197 42.8688 73.1849C44.9131 72.8476 46.97 73.0809 49.0193 73.1875C49.3465 73.2052 49.7067 73.3802 49.8842 72.8526C50.4067 71.3053 49.4784 68.5253 47.9389 67.815C45.8388 66.846 42.2829 66.9678 40.6546 69.2177C40.264 69.758 39.9647 70.4987 39.1683 70.3338C37.9255 70.0776 36.5965 69.8138 35.7823 68.7485C35.4425 68.302 35.6225 67.5893 36.003 66.9932C37.611 64.4718 39.9216 63.1883 42.8307 62.6683C45.6841 62.161 48.474 62.369 51.023 63.5815C53.5137 64.7686 54.7666 67.12 54.9543 69.8367C55.1268 72.3276 54.9924 74.8413 54.9924 77.3474C55.0101 77.3474 55.0253 77.3474 55.0431 77.3474V77.3449ZM49.8969 80.1453C49.8969 79.4756 49.8994 78.8034 49.8969 78.1338C49.8969 77.8167 49.8969 77.4768 49.4531 77.4514C47.0258 77.3195 44.5859 76.7006 42.184 77.6696C40.8321 78.2149 40.3528 79.0165 40.5075 80.8809C40.6089 82.1009 41.2658 82.8467 42.5264 83.1638C44.1293 83.5671 45.7323 83.5113 47.3124 83.2957C49.9071 82.9431 49.8969 82.8695 49.8969 80.1453Z" fill="white"/>
<path d="M168.855 75.9854C168.855 73.0759 168.855 70.169 168.855 67.2596C168.855 65.0046 169.811 63.9671 172.003 63.4776C173.776 63.0819 175.556 62.7394 177.352 62.5669C181.017 62.2118 184.565 62.4198 187.248 65.4713C188.879 67.3255 189.12 69.6237 189.151 71.937C189.209 76.4115 189.191 80.886 189.189 85.3605C189.189 86.9661 188.874 87.268 187.294 87.3441C183.936 87.5064 183.865 87.4329 183.87 84.0466C183.878 80.1986 183.888 76.3506 183.87 72.5027C183.86 70.4506 183.477 68.4416 181.207 67.8024C179.051 67.1962 176.806 67.2621 174.645 68.0561C173.978 68.3021 174.232 68.8855 174.232 69.3269C174.212 74.5623 174.214 79.7978 174.209 85.0333C174.209 87.0524 173.945 87.3111 171.886 87.3492C169.867 87.3847 168.858 86.4174 168.858 84.4473C168.858 81.6292 168.858 78.8086 168.858 75.9904H168.853L168.855 75.9854Z" fill="white"/>
<path d="M107.834 72.3733C109.668 72.3733 111.501 72.3911 113.333 72.3657C114.233 72.353 114.631 72.7081 114.613 73.6391C114.542 77.5124 115.21 77.5225 110.954 77.4921C108.227 77.4718 105.498 77.4921 102.771 77.4769C101.303 77.4693 100.971 77.1218 100.922 75.6582C100.85 73.4649 101.901 72.3665 104.078 72.3632C105.331 72.3632 106.581 72.3632 107.834 72.3632C107.834 72.3682 107.834 72.3708 107.834 72.3758V72.3733Z" fill="white"/>
<path d="M65.7513 72.3732C67.6688 72.3732 69.5862 72.3961 71.5037 72.3606C72.1682 72.3479 72.4218 72.5914 72.5563 73.2331C72.7516 74.1691 72.7008 75.1026 72.64 76.0284C72.5765 76.9796 72.082 77.5149 70.9964 77.4996C67.5623 77.454 64.1281 77.4768 60.6939 77.487C59.5678 77.4895 58.9033 77.0862 59.025 75.828C59.0758 75.2979 59.0326 74.7576 59.0326 74.2224C59.0301 72.3758 59.0276 72.3707 60.9374 72.3606C62.5429 72.353 64.1484 72.3606 65.7539 72.3606C65.7539 72.3656 65.7539 72.3707 65.7539 72.3758L65.7513 72.3732Z" fill="white"/>
</g>
<defs>
<clipPath id="clip0_4_318">
<rect width="194" height="141" fill="white"/>
</clipPath>
</defs>
</svg>
