<svg width="342" height="93" viewBox="0 0 342 93" fill="none" xmlns="http://www.w3.org/2000/svg">
<g clip-path="url(#clip0_102_294)">
<path d="M224.312 79.7762L224.606 78.7623C225.103 79.0467 225.751 79.2492 226.46 79.2492C227.22 79.2492 227.777 78.9146 227.777 78.2872C227.777 77.6079 227.138 77.3252 226.43 76.9906C225.528 76.5656 224.474 76.0587 224.474 74.8624C224.474 73.6662 225.468 73.0087 226.785 73.0087C227.454 73.0087 228.285 73.171 228.721 73.4236L228.447 74.4057C227.99 74.1631 227.312 74.0008 226.825 74.0008C226.136 74.0008 225.691 74.3053 225.691 74.8624C225.691 75.4898 226.34 75.8044 227.038 76.149C227.95 76.5639 228.994 77.0408 228.994 78.2771C228.994 79.5135 228.042 80.243 226.511 80.243C225.781 80.243 224.869 80.0707 224.312 79.7762Z" fill="white"/>
<path d="M229.956 74.1229C229.956 73.7381 230.169 73.5357 230.564 73.5357C230.959 73.5357 231.161 73.7381 231.161 74.1229C231.161 74.5078 230.949 74.7001 230.564 74.7001C230.179 74.7001 229.956 74.5078 229.956 74.1229ZM230.058 75.2991H231.052V80.1225H230.058V75.2991Z" fill="white"/>
<path d="M232.045 79.7862L232.125 78.9146C232.55 79.189 233.392 79.4115 233.939 79.4115C234.486 79.4115 234.821 79.2191 234.821 78.8041C234.821 78.3892 234.284 78.1868 233.696 78.0145C232.957 77.792 232.105 77.4875 232.105 76.5756C232.105 75.6136 232.855 75.177 233.817 75.177C234.344 75.177 234.992 75.3091 235.489 75.5216L235.418 76.3431C235.023 76.1607 234.354 75.9583 233.899 75.9583C233.444 75.9583 233.099 76.1708 233.099 76.5255C233.099 76.9404 233.566 77.0525 234.113 77.2147C234.873 77.4272 235.755 77.7518 235.755 78.7138C235.755 79.7377 234.975 80.243 233.829 80.243C233.169 80.243 232.44 80.0606 232.045 79.7862Z" fill="white"/>
<path d="M239.088 79.9686C238.804 80.1108 238.521 80.1811 238.226 80.1811C237.375 80.1811 236.889 79.7043 236.889 78.8644V76.139H236.15L236.362 75.2974H236.889V73.5842H237.883V75.2974H238.836V76.139H237.883V78.8242C237.883 79.1689 238.056 79.3613 238.38 79.3613C238.543 79.3613 238.705 79.3512 238.847 79.291L239.09 79.9703L239.088 79.9686Z" fill="white"/>
<path d="M239.443 77.71C239.443 76.0888 240.275 75.177 241.672 75.177C243.069 75.177 243.658 75.9984 243.658 77.4674C243.658 77.5577 243.658 77.7401 243.638 77.8723H240.466C240.466 78.8861 240.983 79.3914 241.865 79.3914C242.472 79.3914 243.019 79.1789 243.426 78.8242L243.538 79.634C243.103 80.0288 242.454 80.2413 241.694 80.2413C240.265 80.2413 239.445 79.3295 239.445 77.7083L239.443 77.71ZM242.636 77.2432C242.636 76.4636 242.291 76.0168 241.642 76.0168C240.902 76.0168 240.537 76.5238 240.477 77.2432H242.636Z" fill="white"/>
<path d="M251.594 76.5037V80.1209H250.6V76.8383C250.6 76.3615 250.275 76.0587 249.82 76.0587C249.415 76.0587 248.978 76.3113 248.624 76.6978V80.1225H247.63V76.84C247.63 76.3632 247.305 76.0603 246.85 76.0603C246.445 76.0603 245.998 76.313 245.653 76.6995V80.1242H244.659V75.3008H245.459L245.549 75.9901C246.006 75.4932 246.594 75.1786 247.241 75.1786C247.889 75.1786 248.376 75.4932 248.548 76.0202C248.903 75.5032 249.562 75.1786 250.21 75.1786C251.052 75.1786 251.589 75.6856 251.589 76.5054L251.594 76.5037Z" fill="white"/>
<path d="M256.408 76.7363V80.1208H255.577L255.486 79.5336C255.061 79.9686 254.452 80.243 253.865 80.243C253.023 80.243 252.496 79.6959 252.496 78.8845C252.496 77.72 253.55 77.0809 255.414 77.0809V76.6559C255.414 76.231 255.13 75.9767 254.522 75.9767C254.005 75.9767 253.458 76.139 252.941 76.3916L252.718 75.6923C253.316 75.3577 254.087 75.1753 254.695 75.1753C255.769 75.1753 256.407 75.7625 256.407 76.7363H256.408ZM254.26 79.4717C254.635 79.4717 255.081 79.2793 255.414 78.9447V77.6882C254.198 77.6882 253.52 78.063 253.52 78.7422C253.52 79.1672 253.783 79.4717 254.26 79.4717Z" fill="white"/>
<path d="M260.458 73.1292H261.927L263.904 78.0847H263.974L265.991 73.1292H267.43L267.622 80.1208H266.457L266.325 74.9829H266.245L264.351 79.5721H263.429L261.554 74.9829H261.474L261.322 80.1208H260.237L260.46 73.1292H260.458Z" fill="white"/>
<path d="M268.738 77.71C268.738 76.0888 269.57 75.177 270.967 75.177C272.365 75.177 272.954 75.9984 272.954 77.4674C272.954 77.5577 272.954 77.7401 272.934 77.8723H269.761C269.761 78.8861 270.278 79.3914 271.16 79.3914C271.767 79.3914 272.314 79.1789 272.721 78.8242L272.833 79.634C272.398 80.0288 271.749 80.2413 270.989 80.2413C269.56 80.2413 268.74 79.3295 268.74 77.7083L268.738 77.71ZM271.931 77.2432C271.931 76.4636 271.587 76.0168 270.937 76.0168C270.198 76.0168 269.833 76.5238 269.773 77.2432H271.931Z" fill="white"/>
<path d="M276.369 79.9686C276.085 80.1108 275.802 80.1811 275.507 80.1811C274.656 80.1811 274.17 79.7043 274.17 78.8644V76.139H273.431L273.643 75.2974H274.17V73.5842H275.164V75.2974H276.117V76.139H275.164V78.8242C275.164 79.1689 275.337 79.3613 275.661 79.3613C275.824 79.3613 275.986 79.3512 276.128 79.291L276.371 79.9703L276.369 79.9686Z" fill="white"/>
<path d="M279.642 76.0168C279.065 76.047 278.508 76.2795 278.091 76.666V80.1208H277.097V75.2974H277.897L278.009 75.9767C278.454 75.4798 279.053 75.1753 279.56 75.1753L279.641 76.0168H279.642Z" fill="white"/>
<path d="M279.987 77.71C279.987 76.0888 280.809 75.177 282.258 75.177C283.707 75.177 284.539 76.0888 284.539 77.71C284.539 79.3312 283.717 80.243 282.258 80.243C280.799 80.243 279.987 79.3312 279.987 77.71ZM283.535 77.71C283.535 76.6158 283.09 76.0185 282.268 76.0185C281.446 76.0185 280.991 76.6158 280.991 77.71C280.991 78.8042 281.438 79.3914 282.268 79.3914C283.098 79.3914 283.535 78.8042 283.535 77.71Z" fill="white"/>
<path d="M289.909 77.71C289.909 79.3111 289.169 80.243 287.963 80.243C287.375 80.243 286.878 80.0305 286.524 79.5738V82.1469H285.53V75.2974H286.33L286.432 75.8546C286.837 75.3677 287.394 75.1753 287.941 75.1753C289.086 75.1753 289.907 76.1172 289.907 77.7083L289.909 77.71ZM288.885 77.71C288.885 76.6459 288.428 76.0185 287.668 76.0185C287.223 76.0185 286.807 76.221 286.524 76.5857V78.8343C286.798 79.199 287.203 79.3914 287.648 79.3914C288.418 79.3914 288.885 78.7941 288.885 77.71Z" fill="white"/>
<path d="M291.44 77.71C291.44 76.0888 292.262 75.177 293.711 75.177C295.16 75.177 295.992 76.0888 295.992 77.71C295.992 79.3312 295.17 80.243 293.711 80.243C292.252 80.243 291.44 79.3312 291.44 77.71ZM294.988 77.71C294.988 76.6158 294.543 76.0185 293.721 76.0185C292.899 76.0185 292.444 76.6158 292.444 77.71C292.444 78.8042 292.889 79.3914 293.721 79.3914C294.553 79.3914 294.988 78.8042 294.988 77.71Z" fill="white"/>
<path d="M296.983 72.7243H297.977V80.1208H296.983V72.7243Z" fill="white"/>
<path d="M299.172 74.1229C299.172 73.7381 299.384 73.5357 299.779 73.5357C300.174 73.5357 300.376 73.7381 300.376 74.1229C300.376 74.5078 300.164 74.7001 299.779 74.7001C299.394 74.7001 299.172 74.5078 299.172 74.1229ZM299.274 75.2991H300.268V80.1225H299.274V75.2991Z" fill="white"/>
<path d="M303.996 79.9686C303.712 80.1108 303.429 80.1811 303.134 80.1811C302.282 80.1811 301.797 79.7043 301.797 78.8644V76.139H301.057L301.27 75.2974H301.797V73.5842H302.791V75.2974H303.743V76.139H302.791V78.8242C302.791 79.1689 302.964 79.3613 303.288 79.3613C303.451 79.3613 303.613 79.3512 303.755 79.291L303.998 79.9703L303.996 79.9686Z" fill="white"/>
<path d="M308.324 76.7363V80.1208H307.492L307.402 79.5336C306.977 79.9686 306.367 80.243 305.78 80.243C304.938 80.243 304.411 79.6959 304.411 78.8845C304.411 77.72 305.465 77.0809 307.33 77.0809V76.6559C307.33 76.231 307.045 75.9767 306.438 75.9767C305.921 75.9767 305.373 76.139 304.856 76.3916L304.634 75.6923C305.231 75.3577 306.003 75.1753 306.61 75.1753C307.684 75.1753 308.322 75.7625 308.322 76.7363H308.324ZM306.175 79.4717C306.55 79.4717 306.997 79.2793 307.33 78.9447V77.6882C306.113 77.6882 305.435 78.063 305.435 78.7422C305.435 79.1672 305.698 79.4717 306.175 79.4717Z" fill="white"/>
<path d="M313.503 76.5037V80.1208H312.509V76.8383C312.509 76.3615 312.184 76.0587 311.729 76.0587C311.324 76.0587 310.877 76.3113 310.533 76.6978V80.1225H309.539V75.2991H310.338L310.429 75.9884C310.886 75.4915 311.473 75.177 312.121 75.177C312.962 75.177 313.5 75.6839 313.5 76.5037H313.503Z" fill="white"/>
<path d="M314.425 77.71C314.425 76.0888 315.247 75.177 316.696 75.177C318.145 75.177 318.977 76.0888 318.977 77.71C318.977 79.3312 318.155 80.243 316.696 80.243C315.237 80.243 314.425 79.3312 314.425 77.71ZM317.973 77.71C317.973 76.6158 317.528 76.0185 316.706 76.0185C315.884 76.0185 315.429 76.6158 315.429 77.71C315.429 78.8042 315.874 79.3914 316.706 79.3914C317.538 79.3914 317.973 78.8042 317.973 77.71Z" fill="white"/>
<path d="M299.687 90.5072L299.982 89.4933C300.479 89.7777 301.126 89.9801 301.836 89.9801C302.595 89.9801 303.153 89.6455 303.153 89.0181C303.153 88.3389 302.513 88.0561 301.806 87.7215C300.904 87.2966 299.849 86.7896 299.849 85.5934C299.849 84.3972 300.843 83.7397 302.16 83.7397C302.83 83.7397 303.66 83.9019 304.097 84.1546L303.822 85.1367C303.365 84.8941 302.687 84.7318 302.201 84.7318C301.511 84.7318 301.066 85.0363 301.066 85.5934C301.066 86.2208 301.715 86.5353 302.413 86.88C303.325 87.2949 304.369 87.7717 304.369 89.0081C304.369 90.2445 303.417 90.9739 301.886 90.9739C301.156 90.9739 300.244 90.8016 299.687 90.5072Z" fill="white"/>
<path d="M305.109 88.4409C305.109 86.8197 305.931 85.9079 307.38 85.9079C308.829 85.9079 309.661 86.8197 309.661 88.4409C309.661 90.0621 308.839 90.9739 307.38 90.9739C305.921 90.9739 305.109 90.0621 305.109 88.4409ZM308.657 88.4409C308.657 87.3468 308.212 86.7495 307.39 86.7495C306.568 86.7495 306.113 87.3468 306.113 88.4409C306.113 89.5351 306.56 90.1223 307.39 90.1223C308.22 90.1223 308.657 89.5351 308.657 88.4409Z" fill="white"/>
<path d="M310.328 90.5172L310.409 89.6455C310.834 89.9199 311.676 90.1424 312.223 90.1424C312.77 90.1424 313.105 89.95 313.105 89.5351C313.105 89.1202 312.567 88.9178 311.98 88.7454C311.24 88.5229 310.389 88.2184 310.389 87.3066C310.389 86.3446 311.138 85.9079 312.101 85.9079C312.628 85.9079 313.275 86.0401 313.772 86.2526L313.702 87.0741C313.307 86.8917 312.638 86.6893 312.183 86.6893C311.727 86.6893 311.383 86.9017 311.383 87.2564C311.383 87.6713 311.85 87.7834 312.397 87.9457C313.157 88.1582 314.038 88.4828 314.038 89.4448C314.038 90.4687 313.259 90.9739 312.112 90.9739C311.453 90.9739 310.723 90.7916 310.328 90.5172Z" fill="white"/>
<path d="M317.372 90.6996C317.087 90.8418 316.805 90.912 316.51 90.912C315.658 90.912 315.173 90.4352 315.173 89.5953V86.8699H314.433L314.646 86.0284H315.173V84.3152H316.167V86.0284H317.119V86.8699H316.167V89.5552C316.167 89.8998 316.339 90.0922 316.664 90.0922C316.826 90.0922 316.989 90.0822 317.131 90.022L317.374 90.7012L317.372 90.6996Z" fill="white"/>
<path d="M317.727 88.4409C317.727 86.8197 318.558 85.9079 319.956 85.9079C321.353 85.9079 321.942 86.7294 321.942 88.1983C321.942 88.2887 321.942 88.4711 321.922 88.6032H318.749C318.749 89.6171 319.266 90.1223 320.148 90.1223C320.756 90.1223 321.303 89.9099 321.71 89.5552L321.822 90.3649C321.387 90.7598 320.737 90.9723 319.978 90.9723C318.548 90.9723 317.728 90.0604 317.728 88.4393L317.727 88.4409ZM320.92 87.9742C320.92 87.1945 320.575 86.7478 319.926 86.7478C319.186 86.7478 318.821 87.2547 318.761 87.9742H320.92Z" fill="white"/>
<path d="M326.909 87.2347V90.8518H325.915V87.5693C325.915 87.0924 325.59 86.7896 325.135 86.7896C324.73 86.7896 324.283 87.0423 323.939 87.4287V90.8535H322.945V86.0301H323.744L323.835 86.7194C324.292 86.2225 324.879 85.9079 325.527 85.9079C326.368 85.9079 326.906 86.4149 326.906 87.2347H326.909Z" fill="white"/>
<path d="M328.023 84.8539C328.023 84.4691 328.236 84.2667 328.631 84.2667C329.026 84.2667 329.228 84.4691 329.228 84.8539C329.228 85.2387 329.016 85.4311 328.631 85.4311C328.246 85.4311 328.023 85.2387 328.023 84.8539ZM328.126 86.0301H329.12V90.8535H328.126V86.0301Z" fill="white"/>
<path d="M334.784 88.4409C334.784 90.042 334.044 90.9739 332.838 90.9739C332.22 90.9739 331.683 90.7313 331.328 90.2144L331.216 90.8535H330.416V83.4569H331.41V86.4868C331.795 86.0819 332.312 85.9096 332.83 85.9096C334.076 85.9096 334.786 86.8716 334.786 88.4426L334.784 88.4409ZM333.76 88.4409C333.76 87.3769 333.313 86.7495 332.543 86.7495C332.108 86.7495 331.682 86.9519 331.409 87.3066V89.5769C331.693 89.9316 332.098 90.124 332.533 90.124C333.303 90.124 333.76 89.5267 333.76 88.4426V88.4409Z" fill="white"/>
<path d="M335.786 83.4552H336.781V90.8518H335.786V83.4552Z" fill="white"/>
<path d="M337.783 88.4409C337.783 86.8197 338.615 85.9079 340.012 85.9079C341.409 85.9079 341.998 86.7294 341.998 88.1983C341.998 88.2887 341.998 88.4711 341.978 88.6032H338.805C338.805 89.6171 339.323 90.1223 340.204 90.1223C340.812 90.1223 341.359 89.9099 341.766 89.5552L341.878 90.3649C341.443 90.7598 340.793 90.9723 340.034 90.9723C338.605 90.9723 337.785 90.0604 337.785 88.4393L337.783 88.4409ZM340.976 87.9742C340.976 87.1945 340.631 86.7478 339.982 86.7478C339.242 86.7478 338.877 87.2547 338.817 87.9742H340.976Z" fill="white"/>
<path d="M261.554 89.2406H258.626L258.028 90.9739H256.802L259.355 83.9822H260.907L263.46 90.9739H262.153L261.556 89.2406H261.554ZM261.25 88.3489L260.135 85.0865H260.065L258.94 88.3489H261.251H261.25Z" fill="white"/>
<path d="M271.143 87.3568V90.9739H270.149V87.6914C270.149 87.2146 269.824 86.9118 269.369 86.9118C268.964 86.9118 268.527 87.1644 268.173 87.5509V90.9756H267.179V87.6931C267.179 87.2163 266.854 86.9134 266.399 86.9134C265.994 86.9134 265.547 87.1661 265.202 87.5525V90.9773H264.208V86.1539H265.008L265.099 86.8432C265.555 86.3463 266.143 86.0317 266.79 86.0317C267.438 86.0317 267.925 86.3463 268.097 86.8733C268.452 86.3563 269.112 86.0317 269.759 86.0317C270.601 86.0317 271.138 86.5387 271.138 87.3585L271.143 87.3568Z" fill="white"/>
<path d="M275.956 87.5893V90.9739H275.124L275.034 90.3867C274.609 90.8217 274 91.0961 273.412 91.0961C272.57 91.0961 272.043 90.549 272.043 89.7375C272.043 88.5731 273.098 87.934 274.962 87.934V87.509C274.962 87.0841 274.677 86.8298 274.07 86.8298C273.553 86.8298 273.006 86.9921 272.488 87.2447L272.266 86.5453C272.863 86.2107 273.635 86.0284 274.242 86.0284C275.317 86.0284 275.954 86.6156 275.954 87.5893H275.956ZM273.807 90.3248C274.182 90.3248 274.629 90.1324 274.962 89.7978V88.5413C273.745 88.5413 273.066 88.9161 273.066 89.5953C273.066 90.0203 273.329 90.3248 273.805 90.3248H273.807Z" fill="white"/>
<path d="M281.54 88.5631C281.54 90.1642 280.801 91.0961 279.594 91.0961C278.976 91.0961 278.439 90.8535 278.085 90.3365L277.972 90.9756H277.172V83.579H278.167V86.6089C278.551 86.2041 279.068 86.0317 279.586 86.0317C280.832 86.0317 281.542 86.9937 281.542 88.5647L281.54 88.5631ZM280.516 88.5631C280.516 87.499 280.069 86.8716 279.299 86.8716C278.864 86.8716 278.438 87.074 278.165 87.4287V89.6991C278.449 90.0538 278.854 90.2462 279.289 90.2462C280.059 90.2462 280.516 89.6489 280.516 88.5647V88.5631Z" fill="white"/>
<path d="M282.544 83.5774H283.538V90.9739H282.544V83.5774Z" fill="white"/>
<path d="M284.541 88.5631C284.541 86.9419 285.372 86.0301 286.77 86.0301C288.167 86.0301 288.756 86.8515 288.756 88.3205C288.756 88.4108 288.756 88.5932 288.736 88.7253H285.563C285.563 89.7392 286.08 90.2445 286.962 90.2445C287.57 90.2445 288.117 90.032 288.523 89.6773L288.636 90.4871C288.2 90.8819 287.551 91.0944 286.791 91.0944C285.362 91.0944 284.542 90.1826 284.542 88.5614L284.541 88.5631ZM287.734 88.0963C287.734 87.3166 287.389 86.8699 286.74 86.8699C286 86.8699 285.635 87.3769 285.575 88.0963H287.734Z" fill="white"/>
<path d="M296.82 86.1505L294.996 91.1663C294.611 92.2806 294.155 93 293.202 93C293.04 93 292.878 92.9799 292.715 92.9498L292.583 92.1083C292.695 92.1384 292.816 92.1484 292.928 92.1484C293.353 92.1484 293.718 92.0162 294.002 91.1044L292.198 86.1505H293.303L294.57 89.8898L295.796 86.1505H296.82Z" fill="white"/>
<path d="M214.223 83.8601H215.692L217.668 88.8157H217.738L219.755 83.8601H221.194L221.387 90.8518H220.222L220.09 85.7139H220.009L218.115 90.303H217.193L215.319 85.7139H215.238L215.086 90.8518H214L214.223 83.8601Z" fill="white"/>
<path d="M222.503 88.4409C222.503 86.8197 223.324 85.9079 224.774 85.9079C226.223 85.9079 227.055 86.8197 227.055 88.4409C227.055 90.0621 226.233 90.9739 224.774 90.9739C223.314 90.9739 222.503 90.0621 222.503 88.4409ZM226.05 88.4409C226.05 87.3468 225.605 86.7495 224.784 86.7495C223.962 86.7495 223.507 87.3468 223.507 88.4409C223.507 89.5351 223.954 90.1223 224.784 90.1223C225.614 90.1223 226.05 89.5351 226.05 88.4409Z" fill="white"/>
<path d="M231.979 86.0301L230.226 90.8535H229.101L227.357 86.0301H228.452L229.729 89.7693L230.955 86.0301H231.979Z" fill="white"/>
<path d="M232.587 84.8539C232.587 84.4691 232.799 84.2667 233.194 84.2667C233.589 84.2667 233.792 84.4691 233.792 84.8539C233.792 85.2387 233.579 85.4311 233.194 85.4311C232.809 85.4311 232.587 85.2387 232.587 84.8539ZM232.689 86.0301H233.683V90.8535H232.689V86.0301Z" fill="white"/>
<path d="M234.978 83.4552H235.972V90.8518H234.978V83.4552Z" fill="white"/>
<path d="M237.167 84.8539C237.167 84.4691 237.38 84.2667 237.775 84.2667C238.17 84.2667 238.372 84.4691 238.372 84.8539C238.372 85.2387 238.16 85.4311 237.775 85.4311C237.39 85.4311 237.167 85.2387 237.167 84.8539ZM237.269 86.0301H238.263V90.8535H237.269V86.0301Z" fill="white"/>
<path d="M243.633 83.4552V90.8518H242.822L242.71 90.2127C242.355 90.7297 241.828 90.9723 241.2 90.9723C239.974 90.9723 239.264 90.0303 239.264 88.4493C239.264 86.8683 239.974 85.9062 241.22 85.9062C241.737 85.9062 242.254 86.0786 242.639 86.4834V83.4536H243.633V83.4552ZM242.639 89.5753V87.3049C242.365 86.9603 241.94 86.7478 241.505 86.7478C240.745 86.7478 240.288 87.3752 240.288 88.4292C240.288 89.5635 240.785 90.1207 241.525 90.1207C241.95 90.1207 242.367 89.9283 242.639 89.5736V89.5753Z" fill="white"/>
<path d="M248.498 87.4672V90.8518H247.666L247.576 90.2646C247.151 90.6996 246.542 90.9739 245.954 90.9739C245.113 90.9739 244.586 90.4268 244.586 89.6154C244.586 88.451 245.64 87.8119 247.504 87.8119V87.3869C247.504 86.962 247.22 86.7076 246.612 86.7076C246.095 86.7076 245.548 86.8699 245.031 87.1226L244.808 86.4232C245.405 86.0886 246.177 85.9062 246.784 85.9062C247.859 85.9062 248.496 86.4935 248.496 87.4672H248.498ZM246.349 90.2027C246.724 90.2027 247.171 90.0103 247.504 89.6756V88.4192C246.287 88.4192 245.608 88.7939 245.608 89.4732C245.608 89.8982 245.871 90.2027 246.348 90.2027H246.349Z" fill="white"/>
<path d="M253.789 83.4552V90.8518H252.978L252.866 90.2127C252.511 90.7297 251.984 90.9723 251.356 90.9723C250.13 90.9723 249.42 90.0303 249.42 88.4493C249.42 86.8683 250.13 85.9062 251.376 85.9062C251.893 85.9062 252.411 86.0786 252.795 86.4834V83.4536H253.789V83.4552ZM252.795 89.5753V87.3049C252.521 86.9603 252.096 86.7478 251.661 86.7478C250.901 86.7478 250.444 87.3752 250.444 88.4292C250.444 89.5635 250.941 90.1207 251.681 90.1207C252.106 90.1207 252.523 89.9283 252.795 89.5736V89.5753Z" fill="white"/>
<path d="M326.266 72.7243V80.1208H325.455L325.343 79.4817C324.988 79.9987 324.461 80.2413 323.833 80.2413C322.606 80.2413 321.897 79.2994 321.897 77.7183C321.897 76.1373 322.606 75.1753 323.853 75.1753C324.37 75.1753 324.887 75.3476 325.272 75.7525V72.7226H326.266V72.7243ZM325.272 78.8443V76.574C324.998 76.2293 324.573 76.0168 324.138 76.0168C323.378 76.0168 322.921 76.6442 322.921 77.6983C322.921 78.8326 323.418 79.3897 324.158 79.3897C324.583 79.3897 324.999 79.1973 325.272 78.8426V78.8443Z" fill="white"/>
<path d="M327.269 77.71C327.269 76.0888 328.1 75.177 329.498 75.177C330.895 75.177 331.484 75.9984 331.484 77.4674C331.484 77.5577 331.484 77.7401 331.464 77.8723H328.291C328.291 78.8861 328.808 79.3914 329.69 79.3914C330.298 79.3914 330.845 79.1789 331.251 78.8242L331.364 79.634C330.929 80.0288 330.279 80.2413 329.519 80.2413C328.09 80.2413 327.27 79.3295 327.27 77.7083L327.269 77.71ZM330.462 77.2432C330.462 76.4636 330.117 76.0168 329.468 76.0168C328.728 76.0168 328.363 76.5238 328.303 77.2432H330.462Z" fill="white"/>
<path d="M266.75 0.0618926C269.24 -0.0602402 271.528 0.798036 273.745 1.88385C274.314 2.16325 274.644 2.6568 274.214 3.33271C274.075 3.55188 273.958 3.78444 273.822 4.00528C272.947 5.44243 272.887 5.48593 271.443 4.76317C269.001 3.54184 266.419 3.22229 263.855 4.0103C260.784 4.95223 258.43 6.87289 256.994 9.86766C255.824 12.3053 255.625 14.8249 256.161 17.393C256.603 19.5095 257.724 21.3465 259.29 22.8288C260.599 24.0685 262.138 25.0071 263.929 25.4204C267.58 26.2652 270.894 25.5826 273.785 23.1383C274.426 22.5962 274.997 21.9772 275.459 21.2645C275.673 20.9332 275.713 20.6906 275.39 20.3477C273.114 17.9201 270.889 15.4473 268.603 13.0297C267.943 12.3337 267.115 11.8921 266.068 12.2183C264.859 12.5947 264.21 13.4195 264.111 14.6543C264.034 15.623 264.725 16.7138 265.634 17.0919C266.362 17.3947 267.142 17.4064 267.856 17.0852C268.534 16.7824 269.014 16.8711 269.455 17.475C269.759 17.8933 270.171 18.2346 270.48 18.6529C270.778 19.0577 270.862 19.5764 270.388 19.8692C267.609 21.5857 263.651 21.3749 261.631 18.1995C260.025 15.6748 260.152 13.1887 261.827 10.9802C264.195 7.85999 268.375 7.4501 271.304 10.6607C273.861 13.4647 276.455 16.2353 279.02 19.031C279.902 19.993 279.895 20.8747 279.219 21.9722C278.131 23.7423 276.866 25.3133 275.176 26.5697C273.099 28.114 270.808 28.9773 268.26 29.3002C265.396 29.6632 262.659 29.1479 260.179 27.8162C257.051 26.1364 254.763 23.6252 253.405 20.2339C252.064 16.8911 251.947 13.5149 253.01 10.1972C254.256 6.29903 256.75 3.27917 260.537 1.48566C262.486 0.562136 264.52 -0.0301253 266.752 0.0602196L266.75 0.0618926Z" fill="white"/>
<path d="M289.474 0.0418148C293.194 0.015046 296.23 1.10588 298.763 3.17879C302.641 6.35257 304.587 10.6172 304.262 15.6263C303.979 20.0047 302.037 23.6804 298.494 26.4292C296.111 28.2779 293.408 29.2667 290.44 29.3955C287.645 29.5177 284.994 28.8585 282.568 27.3862C282.037 27.065 282.213 26.6534 282.228 26.2351C282.228 26.19 282.302 26.1515 282.332 26.1046C283.838 23.8644 283.403 23.8895 285.915 25.0473C287.367 25.7165 288.97 25.8788 290.568 25.7566C293.482 25.5341 295.97 24.3714 297.873 22.1362C300.348 19.2301 301.354 15.9375 300.393 12.128C299.541 8.75006 297.588 6.27394 294.503 4.72469C290.276 2.60326 285.232 3.65561 282.116 6.99837C281.634 7.51534 280.926 8.08753 280.893 8.61956C280.862 9.10307 281.687 9.64849 282.149 10.1537C284.05 12.2267 285.96 14.2929 287.862 16.3675C288.637 17.2124 289.994 17.5771 290.888 17.1638C291.849 16.7205 292.516 15.6062 292.416 14.6074C292.285 13.2924 291.472 12.3772 290.209 12.1213C289.722 12.0225 289.265 12.148 288.838 12.3521C288.088 12.7118 287.486 12.5797 287.002 11.8971C286.835 11.6595 286.658 11.4253 286.462 11.2111C285.496 10.1454 285.577 9.88271 286.914 9.2252C288.865 8.26487 290.803 8.17118 292.72 9.24193C294.98 10.5034 296.206 12.8273 295.882 15.5192C295.629 17.6172 294.583 19.0845 292.863 20.1686C291.919 20.7643 290.858 20.9466 289.775 20.9416C287.886 20.9316 286.373 20.1084 285.113 18.7131C282.671 16.0078 280.243 13.289 277.715 10.669C276.684 9.59997 276.609 8.72663 277.273 7.53709C278.956 4.52392 281.405 2.28371 284.611 1.03895C286.253 0.401521 287.996 -0.155605 289.471 0.0451609L289.474 0.0418148Z" fill="white"/>
<path d="M278.448 50.8073C278.448 53.2884 278.483 55.7695 278.434 58.249C278.406 59.656 278.13 61.0179 277.41 62.2794C276.413 64.0277 274.723 64.6434 272.942 64.8576C270.659 65.1319 268.435 64.7806 266.571 63.2163C266.074 62.7997 265.664 62.3095 265.386 61.7423C265.134 61.2254 265.053 60.7134 265.8 60.3922C266.118 60.255 266.424 59.999 266.754 59.82C267.594 59.3616 268.071 59.4402 268.599 60.2182C269.926 62.174 273.573 62.1138 274.517 60.1897C274.975 59.2562 274.922 58.2523 274.915 57.2552C274.913 56.8938 274.634 56.9139 274.41 56.944C273.887 57.0109 273.374 57.1448 272.852 57.1966C270.618 57.4175 268.439 57.3857 266.641 55.7327C265.54 54.7222 265.063 53.3871 265.025 51.9817C264.938 48.8531 265 45.7212 265.003 42.5909C265.003 42.4152 264.946 42.171 265.038 42.0723C265.798 41.2508 266.795 41.6055 267.697 41.6306C268.275 41.6473 268.561 42.0371 268.551 42.7164C268.509 45.5505 268.534 48.3864 268.539 51.2222C268.543 52.8015 269.645 53.9442 271.212 53.9275C272.177 53.9175 273.146 54.0563 274.112 53.7836C274.716 53.613 274.947 53.3654 274.938 52.6978C274.898 49.4789 274.922 46.2599 274.925 43.041C274.925 41.8146 275.133 41.6088 276.359 41.5887C276.565 41.5854 276.772 41.5837 276.98 41.5837C278.183 41.5787 278.448 41.8297 278.449 43.0108C278.453 45.6091 278.449 48.209 278.449 50.8073H278.453H278.448Z" fill="white"/>
<path d="M227.272 52.9772C227.722 50.5463 228.664 48.286 229.407 45.9688C230.339 43.0644 231.312 40.1734 232.22 37.2606C232.619 35.9824 233.106 35.544 234.471 35.5256C234.915 35.5189 235.358 35.5055 235.8 35.5306C236.54 35.5725 236.836 35.9639 236.591 36.6466C235.976 38.3731 235.311 40.0813 234.689 41.8063C234.018 43.6667 233.387 45.5405 232.711 47.3993C232.035 49.2597 231.322 51.1068 230.632 52.9622C230.145 54.2722 229.662 55.5838 229.197 56.9022C229.076 57.2452 228.919 57.461 228.524 57.4761C228.174 57.4895 227.828 57.5932 227.478 57.5965C225.368 57.62 225.418 57.5965 224.747 55.6106C223.994 53.3838 223.125 51.1954 222.33 48.9836C221.522 46.7367 220.682 44.5032 219.941 42.2312C219.32 40.3289 218.547 38.4752 217.824 36.6064C217.579 35.9757 217.765 35.6109 218.515 35.544C219.159 35.4871 219.814 35.5139 220.461 35.544C222.006 35.6143 222.073 36.9477 222.443 37.9699C223.006 39.5259 223.49 41.1119 224.011 42.6846C224.687 44.7257 225.363 46.7685 226.069 48.7963C226.547 50.1698 226.809 51.5852 227.272 52.9806V52.9772Z" fill="white"/>
<path d="M299.21 52.9605C299.657 50.9528 300.358 49.0372 300.986 47.0981C301.637 45.0838 302.214 43.0426 302.94 41.055C303.501 39.5242 303.978 37.9683 304.51 36.4307C304.654 36.0158 304.937 35.8385 305.305 35.7113C306.167 35.4152 307.059 35.5005 307.935 35.5574C308.627 35.6026 308.698 36.143 308.511 36.6716C307.897 38.3982 307.233 40.1064 306.615 41.8313C305.834 44.0147 305.092 46.2147 304.306 48.3964C303.506 50.6165 302.672 52.8266 301.851 55.0384C301.658 55.5571 301.389 56.0573 301.268 56.591C301.098 57.3489 300.574 57.5246 299.928 57.5848C299.869 57.5898 299.811 57.5898 299.751 57.5932C297.513 57.7253 297.162 57.4292 296.377 54.9498C295.903 53.454 295.385 51.9717 294.852 50.4944C294.153 48.5537 293.422 46.628 292.772 44.6672C292.033 42.4303 291.149 40.2403 290.321 38.0335C290.127 37.5149 289.993 36.9812 289.732 36.4792C289.387 35.8134 289.966 35.6026 290.409 35.5624C291.166 35.4938 291.932 35.4855 292.7 35.6026C293.482 35.723 293.825 36.1898 294.044 36.8774C294.546 38.4534 295.08 40.0178 295.6 41.5887C296.266 43.5998 296.881 45.6292 297.617 47.6134C298.044 48.7645 298.348 49.949 298.753 51.1001C298.967 51.7074 298.904 52.3615 299.212 52.9588L299.21 52.9605Z" fill="white"/>
<path d="M317.116 50.7353C315.7 50.7353 314.283 50.7588 312.867 50.7236C312.28 50.7086 312.114 50.9143 312.126 51.4865C312.161 53.1512 313.021 54.8561 315.223 54.8745C316.846 54.8878 318.306 54.749 319.305 53.2181C319.641 52.7028 320.23 52.3716 320.861 52.9622C320.901 53.0006 320.965 53.014 321.02 53.0358C322.95 53.802 322.799 54.5817 321.604 55.9168C320.28 57.3958 318.518 57.8508 316.646 57.9646C314.914 58.0717 313.213 57.9696 311.614 57.113C309.793 56.1376 309.018 54.4913 308.797 52.6175C308.508 50.1665 308.392 47.6987 309.095 45.2561C309.616 43.4408 311.374 41.8899 313.255 41.5034C314.932 41.1571 316.532 41.1538 318.212 41.4967C320.694 42.0053 322.615 44.3208 322.739 46.7652C322.782 47.6184 322.747 48.4767 322.742 49.3333C322.735 50.3572 322.402 50.7153 321.366 50.7303C319.951 50.7521 318.533 50.7353 317.118 50.7353H317.116ZM315.663 48.0902V48.0936C316.637 48.0936 317.61 48.1003 318.582 48.0886C318.823 48.0852 319.193 48.1956 319.189 47.7874C319.184 47.237 319.271 46.6899 319.075 46.1311C318.619 44.8278 317.546 44.3777 316.366 44.2439C314.072 43.9829 312.4 44.9181 312.132 47.3106C312.072 47.851 312.204 48.1321 312.834 48.1019C313.776 48.0568 314.72 48.0902 315.663 48.0902Z" fill="white"/>
<path d="M250.317 51.0147C250.317 52.4904 250.335 53.9643 250.312 55.4399C250.292 56.6931 249.84 57.1615 248.622 57.4593C246.105 58.075 243.556 58.1854 241.014 57.7939C238.836 57.4576 237.12 56.2263 237.165 53.4323C237.189 51.9684 237.181 50.558 238.437 49.5056C239.559 48.5654 240.946 48.4918 242.285 48.2709C243.633 48.0484 244.991 48.2023 246.343 48.2726C246.559 48.2843 246.796 48.3997 246.913 48.0517C247.258 47.0312 246.646 45.1975 245.63 44.7291C244.244 44.09 241.898 44.1703 240.824 45.6543C240.566 46.0106 240.368 46.4992 239.843 46.3904C239.023 46.2214 238.146 46.0474 237.609 45.3447C237.385 45.0503 237.504 44.5802 237.755 44.187C238.816 42.524 240.34 41.6774 242.259 41.3344C244.142 40.9998 245.983 41.137 247.665 41.9367C249.308 42.7197 250.135 44.2706 250.259 46.0625C250.372 47.7054 250.284 49.3634 250.284 51.0164C250.295 51.0164 250.305 51.0164 250.317 51.0164V51.0147ZM246.922 52.8618C246.922 52.4201 246.923 51.9767 246.922 51.535C246.922 51.3259 246.922 51.1017 246.629 51.085C245.027 50.998 243.417 50.5898 241.833 51.2289C240.941 51.5886 240.624 52.1173 240.727 53.347C240.794 54.1517 241.227 54.6436 242.059 54.8527C243.116 55.1187 244.174 55.0819 245.216 54.9397C246.928 54.7071 246.922 54.6586 246.922 52.8618Z" fill="white"/>
<path d="M325.41 50.118C325.41 48.199 325.41 46.2817 325.41 44.3627C325.41 42.8753 326.04 42.1911 327.486 41.8682C328.656 41.6072 329.831 41.3813 331.016 41.2675C333.434 41.0333 335.775 41.1705 337.545 43.1832C338.621 44.4062 338.78 45.922 338.8 47.4478C338.839 50.3991 338.827 53.3503 338.826 56.3016C338.826 57.3606 338.618 57.5597 337.575 57.6099C335.36 57.717 335.313 57.6685 335.316 55.435C335.321 52.8969 335.328 50.3589 335.316 47.8209C335.31 46.4674 335.057 45.1423 333.559 44.7207C332.137 44.3209 330.656 44.3644 329.23 44.888C328.79 45.0503 328.957 45.4351 328.957 45.7262C328.944 49.1794 328.945 52.6326 328.942 56.0858C328.942 57.4175 328.768 57.5882 327.409 57.6133C326.077 57.6367 325.411 56.9987 325.411 55.6993C325.411 53.8405 325.411 51.9801 325.411 50.1213H325.408L325.41 50.118Z" fill="white"/>
<path d="M285.148 47.7355C286.358 47.7355 287.568 47.7473 288.776 47.7305C289.37 47.7222 289.633 47.9564 289.621 48.5704C289.574 51.1251 290.014 51.1318 287.206 51.1118C285.407 51.0984 283.607 51.1118 281.808 51.1017C280.839 51.0967 280.62 50.8675 280.588 49.9021C280.54 48.4555 281.234 47.7311 282.67 47.7289C283.496 47.7289 284.321 47.7289 285.148 47.7289C285.148 47.7322 285.148 47.7339 285.148 47.7372V47.7355Z" fill="white"/>
<path d="M257.382 47.7355C258.647 47.7355 259.913 47.7506 261.178 47.7272C261.616 47.7188 261.783 47.8794 261.872 48.3027C262.001 48.9201 261.968 49.5357 261.927 50.1464C261.886 50.7738 261.559 51.1268 260.843 51.1168C258.577 51.0867 256.311 51.1017 254.045 51.1084C253.302 51.1101 252.864 50.8441 252.944 50.0142C252.978 49.6646 252.949 49.3082 252.949 48.9552C252.948 47.7372 252.946 47.7339 254.206 47.7272C255.265 47.7222 256.325 47.7272 257.384 47.7272C257.384 47.7305 257.384 47.7339 257.384 47.7372L257.382 47.7355Z" fill="white"/>
</g>
<g clip-path="url(#clip1_102_294)">
<path d="M119.895 47.681H126.598V37.8739L113.093 22.6782H104.192L119.895 41.2392V47.681Z" fill="white"/>
<path d="M127.656 32.2517L144.731 12.0396H135.968L123.107 27.259L127.656 32.2517Z" fill="white"/>
<path d="M92.5512 47.681H85.8484V18.6753L82.0955 12H118.794L113.204 18.6753H92.5512V47.681Z" fill="white"/>
<path d="M80.0481 18.6753H67.6165L63.9152 12H76.3031L80.0481 18.6753Z" fill="white"/>
<path d="M51.5114 12.0475L57.6736 12L73.3294 39.9525H66.0143L54.672 21.8269L41.5367 47.681H34.2734L51.5114 12.0475Z" fill="white"/>
<path d="M3.30767 85.1437L5.36304 89H3.99545L3.70921 88.4338H1.65384L1.3676 89H0L2.05934 85.1437H3.30767ZM3.19238 87.4123L2.68351 86.4027L2.17464 87.4123H3.19238Z" fill="white"/>
<path d="M8.26521 86.2246C8.12607 86.2246 8.01475 86.2444 7.92729 86.2879C7.83983 86.3315 7.76827 86.3909 7.71658 86.4661C7.6649 86.5413 7.62912 86.6324 7.60924 86.7353C7.58936 86.8383 7.57744 86.9491 7.57744 87.0719C7.57744 87.1946 7.58936 87.3094 7.60924 87.4124C7.62912 87.5153 7.6649 87.6064 7.71658 87.6816C7.76827 87.7568 7.83585 87.8162 7.92729 87.8598C8.01475 87.9033 8.13004 87.9231 8.26521 87.9231H9.26308C9.43403 87.9231 9.57317 87.8954 9.67654 87.8439C9.78388 87.7885 9.84749 87.7053 9.87532 87.5866H8.23341V86.8739H11.1833V89H10.4438L10.2967 88.6635C10.1894 88.7348 10.0741 88.7941 9.95483 88.8377C9.83556 88.8813 9.71629 88.9169 9.601 88.9406C9.48174 88.9644 9.37042 88.9802 9.2591 88.9881C9.14779 88.9961 9.0484 89 8.95299 89H8.32882C8.21353 89 8.08233 88.9921 7.93524 88.9802C7.78814 88.9683 7.64105 88.9406 7.486 88.8931C7.33493 88.8496 7.18386 88.7823 7.04074 88.6991C6.89762 88.616 6.76642 88.5012 6.65511 88.3586C6.54379 88.2161 6.45235 88.0379 6.38477 87.8281C6.31718 87.6182 6.2814 87.3648 6.2814 87.0679C6.2814 86.771 6.31718 86.5215 6.38477 86.3077C6.45235 86.0979 6.54379 85.9197 6.65511 85.7772C6.76642 85.6346 6.89364 85.5198 7.04074 85.4367C7.18386 85.3535 7.33493 85.2862 7.486 85.2427C7.63707 85.1991 7.78814 85.1674 7.93524 85.1556C8.08233 85.1437 8.21353 85.1358 8.32882 85.1358H9.16767C9.27103 85.1358 9.3903 85.1397 9.52149 85.1516C9.65269 85.1635 9.78785 85.1833 9.92302 85.2189C10.0582 85.2545 10.1934 85.3021 10.3285 85.3694C10.4637 85.4327 10.5869 85.5198 10.7022 85.6307C10.8175 85.7415 10.9129 85.8762 10.9964 86.0345C11.0799 86.1969 11.1395 86.3869 11.1753 86.6086H9.85544C9.82761 86.4542 9.76003 86.3513 9.65666 86.2958C9.5533 86.2404 9.41018 86.2167 9.2273 86.2167H8.25726L8.26521 86.2246Z" fill="white"/>
<path d="M17.0274 85.1437V86.1691H14.0536V86.6165H17.0274V87.4757H14.0536V87.9746H17.0274V89H12.8133V85.1437H17.0274Z" fill="white"/>
<path d="M22.3427 85.1437H23.5831V89H21.8537L19.8977 86.4661V89H18.6573V85.1437H20.3947L22.3467 87.6776V85.1437H22.3427Z" fill="white"/>
<path d="M27.0816 86.2246C26.9424 86.2246 26.8311 86.2444 26.7437 86.2879C26.6562 86.3315 26.5886 86.3908 26.5369 86.4661C26.4853 86.5413 26.4495 86.6324 26.4296 86.7353C26.4097 86.8382 26.4018 86.9491 26.4018 87.0718C26.4018 87.1946 26.4097 87.3094 26.4296 87.4123C26.4495 87.5153 26.4853 87.6063 26.5369 87.6816C26.5886 87.7568 26.6562 87.8162 26.7437 87.8597C26.8311 87.9033 26.9424 87.9231 27.0816 87.9231H28.0596C28.159 87.9231 28.2504 87.9152 28.322 87.9033C28.3975 87.8875 28.4571 87.8637 28.5088 87.8241C28.5605 87.7845 28.6003 87.733 28.6321 87.6697C28.6639 87.6063 28.6917 87.5232 28.7076 87.4203H30.0156C29.9877 87.6618 29.9321 87.8677 29.8486 88.0379C29.7651 88.2082 29.6697 88.3546 29.5544 88.4695C29.4391 88.5882 29.3159 88.6793 29.1807 88.7466C29.0455 88.8139 28.9064 88.8694 28.7672 88.905C28.6281 88.9406 28.4889 88.9683 28.3538 88.9763C28.2186 88.9881 28.0993 88.9921 27.992 88.9921H27.1452C27.0299 88.9921 26.8987 88.9842 26.7516 88.9723C26.6045 88.9604 26.4574 88.9327 26.3024 88.8852C26.1513 88.8416 26.0042 88.7743 25.8611 88.6912C25.718 88.608 25.5907 88.4932 25.4755 88.3507C25.3602 88.2082 25.2687 88.03 25.2011 87.8201C25.1336 87.6103 25.0978 87.3569 25.0978 87.06C25.0978 86.763 25.1336 86.5136 25.2011 86.2998C25.2687 86.086 25.3602 85.9118 25.4755 85.7692C25.5907 85.6267 25.718 85.5119 25.8611 85.4287C26.0042 85.3456 26.1513 85.2783 26.3024 85.2347C26.4534 85.1912 26.6045 85.1595 26.7516 85.1476C26.8987 85.1358 27.0299 85.1278 27.1452 85.1278H27.992C28.0993 85.1278 28.2226 85.1318 28.3538 85.1437C28.4889 85.1556 28.6241 85.1793 28.7672 85.2149C28.9064 85.2545 29.0455 85.306 29.1807 85.3733C29.3159 85.4406 29.4391 85.5356 29.5544 85.6505C29.6697 85.7692 29.7651 85.9118 29.8486 86.082C29.9281 86.2523 29.9838 86.4582 30.0156 86.6997H28.7076C28.6837 86.5136 28.6201 86.3829 28.5168 86.3117C28.4174 86.2404 28.2623 86.2048 28.0556 86.2048H27.0776L27.0816 86.2246Z" fill="white"/>
<path d="M31.5342 85.1437H32.7746V89H31.5342V85.1437Z" fill="white"/>
<path d="M37.3863 85.1437L39.4416 89H38.074L37.7878 88.4338H35.7324L35.4462 89H34.0786L36.1379 85.1437H37.3863ZM37.271 87.4123L36.7621 86.4027L36.2532 87.4123H37.2749H37.271Z" fill="white"/>
<path d="M143.685 85.1437L141.824 87.4598V89H140.584V87.4598L138.724 85.1437H140.254L141.204 86.4225L142.154 85.1437H143.689H143.685Z" fill="white"/>
<path d="M148.674 85.1397H149.915V87.0679C149.915 87.3648 149.879 87.6143 149.811 87.8281C149.744 88.0419 149.652 88.2161 149.541 88.3586C149.43 88.5011 149.303 88.616 149.155 88.6991C149.012 88.7822 148.861 88.8496 148.71 88.8931C148.559 88.9367 148.408 88.9683 148.261 88.9802C148.114 88.9921 147.983 89 147.867 89H147.028C146.913 89 146.782 88.9921 146.635 88.9802C146.488 88.9683 146.341 88.9406 146.186 88.8931C146.035 88.8496 145.884 88.7822 145.74 88.6991C145.597 88.616 145.466 88.5011 145.355 88.3586C145.243 88.2161 145.152 88.0379 145.084 87.8281C145.017 87.6182 144.981 87.3648 144.981 87.0679V85.1397H146.221V87.0679C146.221 87.1906 146.233 87.3054 146.261 87.4084C146.285 87.5113 146.329 87.6024 146.384 87.6776C146.44 87.7528 146.52 87.8122 146.611 87.8558C146.706 87.8993 146.822 87.9191 146.957 87.9191H147.983C148.122 87.9191 148.233 87.8993 148.321 87.8558C148.408 87.8122 148.48 87.7528 148.531 87.6776C148.583 87.6024 148.619 87.5113 148.639 87.4084C148.658 87.3054 148.67 87.1906 148.67 87.0679V85.1397H148.674Z" fill="white"/>
<path d="M153.417 86.2206C153.278 86.2206 153.167 86.2404 153.079 86.2839C152.992 86.3275 152.924 86.3869 152.873 86.4621C152.821 86.5373 152.785 86.6284 152.765 86.7313C152.745 86.8343 152.733 86.9451 152.733 87.0679C152.733 87.1906 152.745 87.3054 152.765 87.4084C152.785 87.5113 152.821 87.6024 152.873 87.6776C152.924 87.7528 152.992 87.8122 153.079 87.8558C153.167 87.8993 153.278 87.9191 153.417 87.9191H154.395C154.495 87.9191 154.586 87.9112 154.658 87.8993C154.729 87.8874 154.793 87.8597 154.844 87.8201C154.896 87.7805 154.936 87.7291 154.968 87.6657C154.999 87.6024 155.027 87.5192 155.043 87.4163H156.351C156.323 87.6578 156.268 87.8637 156.184 88.0339C156.101 88.2042 156.005 88.3507 155.89 88.4655C155.775 88.5843 155.651 88.6753 155.516 88.7426C155.381 88.81 155.242 88.8654 155.103 88.901C154.964 88.9367 154.825 88.9644 154.689 88.9723C154.554 88.9842 154.435 88.9881 154.328 88.9881H153.481C153.366 88.9881 153.234 88.9802 153.087 88.9683C152.94 88.9564 152.793 88.9287 152.638 88.8812C152.487 88.8377 152.34 88.7704 152.197 88.6872C152.054 88.6041 151.926 88.4893 151.811 88.3467C151.696 88.2042 151.604 88.026 151.537 87.8162C151.469 87.6063 151.433 87.3529 151.433 87.056C151.433 86.7591 151.469 86.5096 151.537 86.2958C151.604 86.086 151.696 85.9078 151.811 85.7653C151.926 85.6227 152.054 85.5079 152.197 85.4248C152.34 85.3416 152.487 85.2743 152.638 85.2308C152.789 85.1872 152.94 85.1555 153.087 85.1437C153.234 85.1318 153.366 85.1239 153.481 85.1239H154.328C154.435 85.1239 154.558 85.1278 154.689 85.1397C154.825 85.1516 154.96 85.1753 155.103 85.211C155.242 85.2506 155.381 85.302 155.516 85.3693C155.651 85.4367 155.775 85.5317 155.89 85.6465C156.005 85.7653 156.101 85.9078 156.184 86.0781C156.264 86.2483 156.319 86.4542 156.351 86.6957H155.043C155.019 86.5096 154.956 86.379 154.852 86.3077C154.753 86.2364 154.598 86.2008 154.391 86.2008H153.413L153.417 86.2206Z" fill="white"/>
<path d="M160.581 85.1397L162.637 88.996H161.269L160.983 88.4299H158.927L158.641 88.996H157.274L159.333 85.1397H160.581ZM160.466 87.4084L159.957 86.3988L159.448 87.4084H160.466Z" fill="white"/>
<path d="M163.07 85.1397H166.97V86.2206H165.626V88.996H164.378V86.2206H163.07V85.1397Z" fill="white"/>
<path d="M170.715 85.1397L172.77 88.996H171.403L171.116 88.4299H169.061L168.775 88.996H167.407L169.467 85.1397H170.715ZM170.401 84.7517H169.582L170.337 83.5243H171.613L170.405 84.7517H170.401ZM170.6 87.4084L170.091 86.3988L169.582 87.4084H170.6Z" fill="white"/>
<path d="M177.76 85.1397H179V88.996H177.271L175.311 86.4621V88.996H174.07V85.1397H175.808L177.76 87.6737V85.1397Z" fill="white"/>
<path d="M49.1261 87.0717C49.1261 87.3686 49.0903 87.6181 49.0227 87.8319C48.9552 88.0457 48.8637 88.2199 48.7484 88.3624C48.6331 88.505 48.5059 88.6198 48.3628 88.7029C48.2197 88.7861 48.0726 88.8534 47.9215 88.8969C47.7704 88.9405 47.6194 88.9722 47.4723 88.984C47.3252 88.9959 47.194 89.0038 47.0787 89.0038H44.1884V85.1475H47.0787C47.194 85.1475 47.3252 85.1554 47.4723 85.1673C47.6194 85.1792 47.7665 85.2069 47.9215 85.2544C48.0726 85.2979 48.2197 85.3652 48.3628 85.4484C48.5059 85.5315 48.6331 85.6464 48.7484 85.7889C48.8637 85.9314 48.9552 86.1096 49.0227 86.3194C49.0903 86.5293 49.1261 86.7827 49.1261 87.0796V87.0717ZM47.1463 87.9269C47.2854 87.9269 47.3967 87.9071 47.4842 87.8636C47.5717 87.82 47.6392 87.7606 47.6909 87.6854C47.7426 87.6102 47.7784 87.5191 47.7983 87.4162C47.8181 87.3132 47.8261 87.1984 47.8261 87.0757C47.8261 86.9529 47.8181 86.8421 47.7983 86.7391C47.7784 86.6362 47.7426 86.5491 47.6909 86.4699C47.6392 86.3947 47.5717 86.3353 47.4842 86.2917C47.3967 86.2482 47.2854 86.2284 47.1463 86.2284H45.4368V87.9309H47.1463V87.9269Z" fill="white"/>
<path d="M54.6601 85.1437V86.1691H51.6864V86.6165H54.6601V87.4757H51.6864V87.9746H54.6601V89H50.446V85.1437H54.6601Z" fill="white"/>
<path d="M60.0192 85.0764H63.9192V86.1572H62.5755V88.9327H61.3271V86.1572H60.0192V85.0764Z" fill="white"/>
<path d="M70.0018 86.5176C70.0018 86.7314 69.974 86.9135 69.9223 87.0639C69.8666 87.2183 69.7951 87.345 69.7036 87.4519C69.6122 87.5588 69.5088 87.642 69.3935 87.7093C69.2783 87.7766 69.151 87.8241 69.0238 87.8598L70.2006 88.9288H68.5786L67.5608 87.9548H66.6345V88.9288H65.3862V85.0724H68.1571C68.2724 85.0724 68.3996 85.0764 68.5388 85.0843C68.6779 85.0922 68.8131 85.116 68.9523 85.1476C69.0914 85.1793 69.2226 85.2268 69.3498 85.2902C69.477 85.3535 69.5883 85.4406 69.6877 85.5475C69.7871 85.6544 69.8627 85.789 69.9223 85.9435C69.9819 86.0979 70.0137 86.2919 70.0137 86.5136L70.0018 86.5176ZM66.6265 86.8778H68.0259C68.1651 86.8778 68.2764 86.8739 68.3639 86.866C68.4513 86.8581 68.5189 86.8383 68.5706 86.8105C68.6223 86.7828 68.6581 86.7472 68.6779 86.6997C68.6978 86.6522 68.7097 86.5928 68.7097 86.5176C68.7097 86.4423 68.6978 86.379 68.6779 86.3354C68.6581 86.2879 68.6223 86.2523 68.5706 86.2246C68.5189 86.1969 68.4513 86.181 68.3639 86.1691C68.2764 86.1573 68.1651 86.1573 68.0259 86.1573H66.6265V86.8818V86.8778Z" fill="white"/>
<path d="M74.4823 85.0764L76.5377 88.9327H75.1701L74.8838 88.3665H72.8285L72.5422 88.9327H71.1746L73.234 85.0764H74.4823ZM74.367 87.345L73.8581 86.3354L73.3493 87.345H74.367Z" fill="white"/>
<path d="M81.531 85.0764H82.7713V88.9327H81.042L79.086 86.3988V88.9327H77.8456V85.0764H79.5829L81.5349 87.6103V85.0764H81.531Z" fill="white"/>
<path d="M85.5304 86.3315C85.5304 86.3988 85.5741 86.4859 85.6616 86.5096C85.7491 86.5334 85.8683 86.5492 86.0154 86.5571C86.1625 86.5651 86.3295 86.569 86.5163 86.569C86.7032 86.569 86.894 86.5769 87.0888 86.5928C87.2836 86.6086 87.4745 86.6403 87.6613 86.6838C87.8482 86.7274 88.0151 86.7947 88.1622 86.8897C88.3093 86.9847 88.4246 87.1075 88.5161 87.2619C88.6035 87.4163 88.6472 87.5786 88.6472 87.8201C88.6472 87.8914 88.6393 87.9706 88.6274 88.0577C88.6154 88.1448 88.5876 88.2319 88.5439 88.319C88.5002 88.4061 88.4365 88.4932 88.357 88.5764C88.2775 88.6595 88.1662 88.7308 88.031 88.7941C87.8959 88.8575 87.7289 88.9089 87.5301 88.9446C87.3313 88.9802 87.0928 89 86.8145 89H86.1267C85.8484 89 85.6099 88.9763 85.4151 88.9287C85.2163 88.8812 85.0533 88.8218 84.9182 88.7466C84.783 88.6714 84.6757 88.5882 84.5922 88.4893C84.5127 88.3903 84.449 88.2953 84.4053 88.1963C84.3616 88.0973 84.3338 87.9983 84.3218 87.9033C84.3099 87.8083 84.302 87.7251 84.302 87.6539H85.5423C85.5543 87.6934 85.5702 87.733 85.594 87.7726C85.6179 87.8122 85.6536 87.8479 85.7014 87.8795C85.7491 87.9112 85.8127 87.935 85.8882 87.9508C85.9637 87.9666 86.0592 87.9785 86.1744 87.9785H87.0411C87.1763 87.9785 87.2677 87.9666 87.3194 87.9389C87.3711 87.9152 87.3989 87.8716 87.3989 87.8162C87.3989 87.7449 87.3552 87.6578 87.2677 87.6261C87.1803 87.5984 87.061 87.5786 86.9139 87.5707C86.7668 87.5628 86.5998 87.5588 86.413 87.5588C86.2261 87.5588 86.0353 87.5549 85.8405 87.539C85.6457 87.5232 85.4549 87.4955 85.268 87.4519C85.0812 87.4123 84.9142 87.345 84.7671 87.254C84.62 87.1629 84.5047 87.0402 84.4133 86.8858C84.3258 86.7313 84.2821 86.573 84.2821 86.3315C84.2821 86.2206 84.298 86.0939 84.3338 85.9593C84.3695 85.8207 84.449 85.694 84.5723 85.5713C84.6955 85.4525 84.8824 85.3496 85.1209 85.2664C85.3634 85.1833 85.6934 85.1437 86.1069 85.1437H86.8026C87.0809 85.1437 87.3194 85.1674 87.5142 85.2149C87.709 85.2625 87.876 85.3218 88.0112 85.3971C88.1463 85.4723 88.2537 85.5594 88.3372 85.6544C88.4167 85.7494 88.4803 85.8484 88.524 85.9474C88.5677 86.0464 88.5956 86.1454 88.6075 86.2404C88.6194 86.3354 88.6274 86.4186 88.6274 86.4938H87.387C87.3671 86.3948 87.3154 86.3156 87.228 86.2562C87.1405 86.1968 86.9815 86.1691 86.7549 86.1691H85.8882C85.7491 86.1691 85.6576 86.181 85.602 86.2048C85.5503 86.2285 85.5224 86.2721 85.5224 86.3315H85.5304Z" fill="white"/>
<path d="M92.9409 85.0764C93.0562 85.0764 93.1834 85.0803 93.3225 85.0882C93.4617 85.0962 93.5968 85.1199 93.736 85.1516C93.8751 85.1833 94.0063 85.2308 94.1335 85.2941C94.2608 85.3575 94.376 85.4446 94.4715 85.5515C94.5669 85.6584 94.6464 85.793 94.706 85.9474C94.7657 86.1018 94.7975 86.2958 94.7975 86.5175C94.7975 86.7393 94.7657 86.9293 94.706 87.0877C94.6464 87.246 94.5669 87.3767 94.4715 87.4836C94.376 87.5905 94.2608 87.6776 94.1335 87.7409C94.0063 87.8043 93.8711 87.8518 93.736 87.8835C93.6008 87.9152 93.4617 87.935 93.3225 87.9468C93.1834 87.9587 93.0601 87.9587 92.9409 87.9587H91.4182V88.9327H90.1699V85.0764H92.9409ZM92.8176 86.8818C92.9528 86.8818 93.0681 86.8778 93.1555 86.8699C93.243 86.862 93.3106 86.8422 93.3623 86.8145C93.414 86.7868 93.4497 86.7511 93.4696 86.7036C93.4895 86.6561 93.5014 86.5967 93.5014 86.5215C93.5014 86.4463 93.4895 86.3829 93.4696 86.3394C93.4497 86.2918 93.414 86.2562 93.3623 86.2285C93.3106 86.2008 93.243 86.1849 93.1555 86.1731C93.0681 86.1612 92.9568 86.1612 92.8176 86.1612H91.4182V86.8857H92.8176V86.8818Z" fill="white"/>
<path d="M99.091 85.0764C99.2063 85.0764 99.3375 85.0843 99.4846 85.0961C99.6317 85.108 99.7788 85.1357 99.9339 85.1833C100.085 85.2268 100.232 85.2941 100.379 85.3773C100.522 85.4604 100.653 85.5752 100.765 85.7178C100.876 85.8603 100.968 86.0385 101.035 86.2483C101.103 86.4581 101.138 86.7115 101.138 87.0085C101.138 87.3054 101.103 87.5549 101.035 87.7687C100.968 87.9785 100.876 88.1567 100.765 88.2992C100.653 88.4417 100.526 88.5566 100.379 88.6397C100.236 88.7228 100.085 88.7902 99.9339 88.8337C99.7828 88.8773 99.6317 88.9089 99.4846 88.9208C99.3375 88.9327 99.2063 88.9406 99.091 88.9406H98.2482C98.1329 88.9406 98.0017 88.9327 97.8546 88.9208C97.7075 88.9089 97.5604 88.8812 97.4054 88.8337C97.2543 88.7902 97.1072 88.7228 96.9601 88.6397C96.817 88.5566 96.6858 88.4417 96.5745 88.2992C96.4632 88.1567 96.3718 87.9785 96.3042 87.7687C96.2366 87.5588 96.2008 87.3054 96.2008 87.0085C96.2008 86.7115 96.2366 86.4621 96.3042 86.2483C96.3718 86.0385 96.4632 85.8603 96.5745 85.7178C96.6858 85.5752 96.813 85.4604 96.9601 85.3773C97.1033 85.2941 97.2543 85.2268 97.4054 85.1833C97.5565 85.1397 97.7075 85.108 97.8546 85.0961C98.0017 85.0843 98.1329 85.0764 98.2482 85.0764H99.091ZM99.1547 87.8597C99.2898 87.8597 99.4051 87.8399 99.4926 87.7964C99.58 87.7528 99.6516 87.6934 99.7033 87.6182C99.755 87.543 99.7907 87.4519 99.8106 87.349C99.8305 87.246 99.8424 87.1312 99.8424 87.0085C99.8424 86.8857 99.8305 86.7749 99.8106 86.6719C99.7907 86.569 99.755 86.4819 99.7033 86.4027C99.6516 86.3275 99.584 86.2681 99.4926 86.2245C99.4051 86.181 99.2898 86.1612 99.1547 86.1612H98.1846C98.0455 86.1612 97.9342 86.181 97.8467 86.2245C97.7592 86.2681 97.6877 86.3275 97.636 86.4027C97.5843 86.4779 97.5485 86.569 97.5287 86.6719C97.5088 86.7749 97.4968 86.8857 97.4968 87.0085C97.4968 87.1312 97.5088 87.246 97.5287 87.349C97.5485 87.4519 97.5843 87.543 97.636 87.6182C97.6877 87.6934 97.7553 87.7528 97.8467 87.7964C97.9342 87.8399 98.0494 87.8597 98.1846 87.8597H99.1547Z" fill="white"/>
<path d="M107.277 86.5176C107.277 86.7314 107.249 86.9135 107.197 87.0639C107.142 87.2183 107.07 87.345 106.979 87.4519C106.887 87.5588 106.784 87.642 106.668 87.7093C106.553 87.7766 106.426 87.8241 106.299 87.8598L107.476 88.9288H105.853L104.832 87.9548H103.905V88.9288H102.657V85.0724H105.428C105.543 85.0724 105.671 85.0764 105.81 85.0843C105.945 85.0922 106.084 85.116 106.223 85.1476C106.362 85.1793 106.494 85.2268 106.621 85.2902C106.748 85.3535 106.859 85.4406 106.959 85.5475C107.058 85.6544 107.134 85.789 107.193 85.9435C107.253 86.0979 107.281 86.2919 107.281 86.5136L107.277 86.5176ZM103.901 86.8778H105.301C105.44 86.8778 105.551 86.8739 105.639 86.866C105.726 86.8581 105.794 86.8383 105.846 86.8105C105.897 86.7828 105.933 86.7472 105.953 86.6997C105.973 86.6522 105.985 86.5928 105.985 86.5176C105.985 86.4423 105.973 86.379 105.953 86.3354C105.933 86.2879 105.897 86.2523 105.846 86.2246C105.794 86.1969 105.726 86.181 105.639 86.1691C105.551 86.1573 105.44 86.1573 105.301 86.1573H103.901V86.8818V86.8778Z" fill="white"/>
<path d="M108.664 85.0764H112.564V86.1572H111.221V88.9327H109.972V86.1572H108.664V85.0764Z" fill="white"/>
<path d="M118.261 85.0645V86.0899H115.288V86.5373H118.261V87.3965H115.288V87.8954H118.261V88.9208H114.047V85.0645H118.261Z" fill="white"/>
<path d="M128.16 87.0677C128.16 87.3647 128.125 87.6141 128.057 87.8279C127.989 88.0417 127.898 88.2159 127.783 88.3585C127.667 88.501 127.54 88.6158 127.397 88.699C127.254 88.7821 127.107 88.8494 126.956 88.893C126.805 88.9365 126.654 88.9682 126.507 88.9801C126.359 88.9919 126.228 88.9999 126.113 88.9999H123.223V85.1435H126.113C126.228 85.1435 126.359 85.1514 126.507 85.1633C126.654 85.1752 126.801 85.2029 126.956 85.2504C127.107 85.294 127.254 85.3613 127.397 85.4444C127.54 85.5276 127.667 85.6424 127.783 85.7849C127.898 85.9275 127.989 86.1056 128.057 86.3155C128.125 86.5253 128.16 86.7787 128.16 87.0756V87.0677ZM126.181 87.9229C126.32 87.9229 126.431 87.9031 126.519 87.8596C126.606 87.816 126.674 87.7566 126.725 87.6814C126.777 87.6062 126.813 87.5151 126.833 87.4122C126.852 87.3092 126.86 87.1944 126.86 87.0717C126.86 86.949 126.852 86.8381 126.833 86.7351C126.813 86.6322 126.777 86.5451 126.725 86.4659C126.674 86.3907 126.606 86.3313 126.519 86.2878C126.431 86.2442 126.32 86.2244 126.181 86.2244H124.471V87.9269H126.181V87.9229Z" fill="white"/>
<path d="M133.694 85.1397V86.1652H130.721V86.6126H133.694V87.4717H130.721V87.9706H133.694V88.996H129.48V85.1397H133.694Z" fill="white"/>
</g>
<defs>
<clipPath id="clip0_102_294">
<rect width="128" height="93" fill="white" transform="translate(214)"/>
</clipPath>
<clipPath id="clip1_102_294">
<rect width="179" height="77" fill="white" transform="translate(0 12)"/>
</clipPath>
</defs>
</svg>
