<svg width="1440" height="1024" viewBox="0 0 1440 1024" fill="none" xmlns="http://www.w3.org/2000/svg">
<g clip-path="url(#clip0_99_130)">
<rect width="1440" height="1024" fill="#007BFF"/>
<g clip-path="url(#clip1_99_130)">
<path d="M1148.63 558.951L1149.08 557.414C1149.83 557.845 1150.81 558.152 1151.89 558.152C1153.04 558.152 1153.88 557.645 1153.88 556.693C1153.88 555.664 1152.91 555.235 1151.84 554.728C1150.47 554.083 1148.87 553.315 1148.87 551.501C1148.87 549.687 1150.38 548.691 1152.38 548.691C1153.39 548.691 1154.65 548.937 1155.31 549.32L1154.9 550.809C1154.2 550.441 1153.18 550.195 1152.44 550.195C1151.39 550.195 1150.72 550.656 1150.72 551.501C1150.72 552.452 1151.7 552.929 1152.76 553.452C1154.14 554.081 1155.73 554.804 1155.73 556.678C1155.73 558.553 1154.28 559.659 1151.96 559.659C1150.86 559.659 1149.47 559.397 1148.63 558.951Z" fill="white"/>
<path d="M1157.18 550.38C1157.18 549.797 1157.51 549.49 1158.1 549.49C1158.7 549.49 1159.01 549.797 1159.01 550.38C1159.01 550.963 1158.69 551.255 1158.1 551.255C1157.52 551.255 1157.18 550.963 1157.18 550.38ZM1157.34 552.163H1158.84V559.476H1157.34V552.163Z" fill="white"/>
<path d="M1160.35 558.966L1160.47 557.645C1161.11 558.061 1162.39 558.398 1163.22 558.398C1164.05 558.398 1164.56 558.106 1164.56 557.477C1164.56 556.848 1163.74 556.541 1162.85 556.28C1161.73 555.943 1160.44 555.481 1160.44 554.099C1160.44 552.64 1161.58 551.978 1163.03 551.978C1163.83 551.978 1164.82 552.178 1165.57 552.501L1165.46 553.746C1164.86 553.469 1163.85 553.163 1163.16 553.163C1162.47 553.163 1161.95 553.485 1161.95 554.022C1161.95 554.652 1162.65 554.821 1163.48 555.068C1164.64 555.39 1165.97 555.882 1165.97 557.34C1165.97 558.893 1164.79 559.659 1163.05 559.659C1162.05 559.659 1160.95 559.382 1160.35 558.966Z" fill="white"/>
<path d="M1171.02 559.243C1170.59 559.458 1170.16 559.565 1169.72 559.565C1168.43 559.565 1167.69 558.842 1167.69 557.569V553.437H1166.57L1166.89 552.161H1167.69V549.563H1169.2V552.161H1170.64V553.437H1169.2V557.508C1169.2 558.03 1169.46 558.322 1169.95 558.322C1170.2 558.322 1170.44 558.307 1170.66 558.215L1171.03 559.245L1171.02 559.243Z" fill="white"/>
<path d="M1171.56 555.818C1171.56 553.36 1172.82 551.978 1174.94 551.978C1177.06 551.978 1177.95 553.223 1177.95 555.451C1177.95 555.588 1177.95 555.864 1177.92 556.064H1173.11C1173.11 557.602 1173.9 558.368 1175.23 558.368C1176.15 558.368 1176.98 558.045 1177.6 557.508L1177.77 558.735C1177.11 559.334 1176.12 559.656 1174.97 559.656C1172.81 559.656 1171.56 558.274 1171.56 555.816L1171.56 555.818ZM1176.4 555.111C1176.4 553.929 1175.88 553.251 1174.89 553.251C1173.77 553.251 1173.22 554.02 1173.13 555.111H1176.4Z" fill="white"/>
<path d="M1189.98 553.989V559.474H1188.47V554.497C1188.47 553.774 1187.98 553.315 1187.29 553.315C1186.68 553.315 1186.01 553.698 1185.48 554.284V559.476H1183.97V554.499C1183.97 553.776 1183.48 553.317 1182.79 553.317C1182.17 553.317 1181.5 553.7 1180.97 554.286V559.479H1179.47V552.166H1180.68L1180.82 553.211C1181.51 552.457 1182.4 551.981 1183.38 551.981C1184.36 551.981 1185.1 552.457 1185.36 553.256C1185.9 552.473 1186.9 551.981 1187.88 551.981C1189.16 551.981 1189.97 552.749 1189.97 553.992L1189.98 553.989Z" fill="white"/>
<path d="M1197.28 554.342V559.474H1196.01L1195.88 558.583C1195.23 559.243 1194.31 559.659 1193.42 559.659C1192.14 559.659 1191.35 558.829 1191.35 557.599C1191.35 555.834 1192.94 554.865 1195.77 554.865V554.22C1195.77 553.576 1195.34 553.19 1194.42 553.19C1193.63 553.19 1192.8 553.437 1192.02 553.82L1191.68 552.759C1192.59 552.252 1193.76 551.975 1194.68 551.975C1196.31 551.975 1197.27 552.866 1197.27 554.342H1197.28ZM1194.02 558.489C1194.59 558.489 1195.26 558.198 1195.77 557.69V555.785C1193.92 555.785 1192.9 556.354 1192.9 557.383C1192.9 558.028 1193.3 558.489 1194.02 558.489Z" fill="white"/>
<path d="M1203.41 548.873H1205.64L1208.64 556.387H1208.74L1211.8 548.873H1213.98L1214.27 559.474H1212.51L1212.31 551.684H1212.18L1209.31 558.642H1207.92L1205.07 551.684H1204.95L1204.72 559.474H1203.08L1203.42 548.873H1203.41Z" fill="white"/>
<path d="M1215.96 555.818C1215.96 553.36 1217.22 551.978 1219.34 551.978C1221.46 551.978 1222.35 553.223 1222.35 555.451C1222.35 555.588 1222.35 555.864 1222.32 556.064H1217.51C1217.51 557.602 1218.3 558.368 1219.63 558.368C1220.55 558.368 1221.38 558.045 1222 557.508L1222.17 558.735C1221.51 559.334 1220.53 559.656 1219.37 559.656C1217.21 559.656 1215.97 558.274 1215.97 555.816L1215.96 555.818ZM1220.8 555.111C1220.8 553.929 1220.28 553.251 1219.3 553.251C1218.17 553.251 1217.62 554.02 1217.53 555.111H1220.8Z" fill="white"/>
<path d="M1227.53 559.243C1227.1 559.458 1226.67 559.565 1226.22 559.565C1224.93 559.565 1224.2 558.842 1224.2 557.569V553.437H1223.07L1223.4 552.161H1224.2V549.563H1225.7V552.161H1227.15V553.437H1225.7V557.508C1225.7 558.03 1225.96 558.322 1226.46 558.322C1226.7 558.322 1226.95 558.307 1227.16 558.215L1227.53 559.245L1227.53 559.243Z" fill="white"/>
<path d="M1232.49 553.251C1231.61 553.297 1230.77 553.65 1230.14 554.236V559.474H1228.63V552.161H1229.84L1230.01 553.19C1230.69 552.437 1231.6 551.975 1232.37 551.975L1232.49 553.251H1232.49Z" fill="white"/>
<path d="M1233.01 555.818C1233.01 553.36 1234.26 551.978 1236.45 551.978C1238.65 551.978 1239.91 553.36 1239.91 555.818C1239.91 558.276 1238.67 559.659 1236.45 559.659C1234.24 559.659 1233.01 558.276 1233.01 555.818ZM1238.39 555.818C1238.39 554.159 1237.71 553.254 1236.47 553.254C1235.22 553.254 1234.53 554.159 1234.53 555.818C1234.53 557.477 1235.21 558.368 1236.47 558.368C1237.73 558.368 1238.39 557.477 1238.39 555.818Z" fill="white"/>
<path d="M1248.05 555.818C1248.05 558.246 1246.93 559.659 1245.1 559.659C1244.21 559.659 1243.46 559.337 1242.92 558.644V562.545H1241.41V552.161H1242.62L1242.78 553.005C1243.39 552.267 1244.24 551.975 1245.07 551.975C1246.8 551.975 1248.05 553.404 1248.05 555.816L1248.05 555.818ZM1246.5 555.818C1246.5 554.205 1245.81 553.254 1244.65 553.254C1243.98 553.254 1243.35 553.561 1242.92 554.114V557.523C1243.33 558.076 1243.95 558.368 1244.62 558.368C1245.79 558.368 1246.5 557.462 1246.5 555.818Z" fill="white"/>
<path d="M1250.37 555.818C1250.37 553.36 1251.62 551.978 1253.81 551.978C1256.01 551.978 1257.27 553.36 1257.27 555.818C1257.27 558.276 1256.02 559.659 1253.81 559.659C1251.6 559.659 1250.37 558.276 1250.37 555.818ZM1255.75 555.818C1255.75 554.159 1255.07 553.254 1253.83 553.254C1252.58 553.254 1251.89 554.159 1251.89 555.818C1251.89 557.477 1252.57 558.368 1253.83 558.368C1255.09 558.368 1255.75 557.477 1255.75 555.818Z" fill="white"/>
<path d="M1258.77 548.259H1260.28V559.474H1258.77V548.259Z" fill="white"/>
<path d="M1262.09 550.38C1262.09 549.797 1262.41 549.49 1263.01 549.49C1263.61 549.49 1263.91 549.797 1263.91 550.38C1263.91 550.963 1263.59 551.255 1263.01 551.255C1262.43 551.255 1262.09 550.963 1262.09 550.38ZM1262.24 552.163H1263.75V559.476H1262.24V552.163Z" fill="white"/>
<path d="M1269.4 559.243C1268.97 559.458 1268.54 559.565 1268.09 559.565C1266.8 559.565 1266.07 558.842 1266.07 557.569V553.437H1264.95L1265.27 552.161H1266.07V549.563H1267.57V552.161H1269.02V553.437H1267.57V557.508C1267.57 558.03 1267.84 558.322 1268.33 558.322C1268.57 558.322 1268.82 558.307 1269.04 558.215L1269.4 559.245L1269.4 559.243Z" fill="white"/>
<path d="M1275.96 554.342V559.474H1274.7L1274.56 558.583C1273.92 559.243 1272.99 559.659 1272.1 559.659C1270.83 559.659 1270.03 558.829 1270.03 557.599C1270.03 555.834 1271.63 554.865 1274.45 554.865V554.22C1274.45 553.576 1274.02 553.19 1273.1 553.19C1272.32 553.19 1271.49 553.437 1270.7 553.82L1270.37 552.759C1271.27 552.252 1272.44 551.975 1273.36 551.975C1274.99 551.975 1275.96 552.866 1275.96 554.342H1275.96ZM1272.7 558.489C1273.27 558.489 1273.95 558.198 1274.45 557.69V555.785C1272.61 555.785 1271.58 556.354 1271.58 557.383C1271.58 558.028 1271.98 558.489 1272.7 558.489Z" fill="white"/>
<path d="M1283.81 553.989V559.474H1282.3V554.497C1282.3 553.774 1281.81 553.315 1281.12 553.315C1280.51 553.315 1279.83 553.698 1279.31 554.284V559.476H1277.8V552.163H1279.01L1279.15 553.208C1279.84 552.455 1280.73 551.978 1281.71 551.978C1282.99 551.978 1283.8 552.747 1283.8 553.989H1283.81Z" fill="white"/>
<path d="M1285.21 555.818C1285.21 553.36 1286.45 551.978 1288.65 551.978C1290.84 551.978 1292.11 553.36 1292.11 555.818C1292.11 558.276 1290.86 559.659 1288.65 559.659C1286.44 559.659 1285.21 558.276 1285.21 555.818ZM1290.58 555.818C1290.58 554.159 1289.91 553.254 1288.66 553.254C1287.42 553.254 1286.73 554.159 1286.73 555.818C1286.73 557.477 1287.4 558.368 1288.66 558.368C1289.92 558.368 1290.58 557.477 1290.58 555.818Z" fill="white"/>
<path d="M1262.87 575.221L1263.32 573.683C1264.07 574.115 1265.05 574.422 1266.13 574.422C1267.28 574.422 1268.12 573.914 1268.12 572.963C1268.12 571.933 1267.15 571.504 1266.08 570.997C1264.71 570.353 1263.12 569.584 1263.12 567.771C1263.12 565.957 1264.62 564.96 1266.62 564.96C1267.63 564.96 1268.89 565.206 1269.55 565.589L1269.14 567.078C1268.44 566.71 1267.42 566.464 1266.68 566.464C1265.63 566.464 1264.96 566.926 1264.96 567.771C1264.96 568.722 1265.94 569.199 1267 569.721C1268.38 570.35 1269.97 571.073 1269.97 572.948C1269.97 574.822 1268.52 575.928 1266.2 575.928C1265.1 575.928 1263.71 575.667 1262.87 575.221Z" fill="white"/>
<path d="M1271.09 572.088C1271.09 569.63 1272.33 568.247 1274.53 568.247C1276.73 568.247 1277.99 569.63 1277.99 572.088C1277.99 574.546 1276.74 575.928 1274.53 575.928C1272.32 575.928 1271.09 574.546 1271.09 572.088ZM1276.46 572.088C1276.46 570.429 1275.79 569.523 1274.54 569.523C1273.3 569.523 1272.61 570.429 1272.61 572.088C1272.61 573.747 1273.29 574.637 1274.54 574.637C1275.8 574.637 1276.46 573.747 1276.46 572.088Z" fill="white"/>
<path d="M1279 575.236L1279.12 573.914C1279.76 574.33 1281.04 574.668 1281.87 574.668C1282.7 574.668 1283.21 574.376 1283.21 573.747C1283.21 573.118 1282.39 572.811 1281.5 572.55C1280.38 572.212 1279.09 571.751 1279.09 570.368C1279.09 568.91 1280.23 568.247 1281.68 568.247C1282.48 568.247 1283.46 568.448 1284.22 568.77L1284.11 570.015C1283.51 569.739 1282.5 569.432 1281.81 569.432C1281.12 569.432 1280.6 569.754 1280.6 570.292C1280.6 570.921 1281.3 571.091 1282.13 571.337C1283.28 571.659 1284.62 572.151 1284.62 573.61C1284.62 575.162 1283.44 575.928 1281.7 575.928C1280.7 575.928 1279.6 575.652 1279 575.236Z" fill="white"/>
<path d="M1289.67 575.512C1289.24 575.728 1288.81 575.834 1288.37 575.834C1287.08 575.834 1286.34 575.111 1286.34 573.838V569.706H1285.22L1285.54 568.43H1286.34V565.833H1287.85V568.43H1289.29V569.706H1287.85V573.777C1287.85 574.3 1288.11 574.591 1288.6 574.591C1288.85 574.591 1289.09 574.576 1289.31 574.485L1289.68 575.515L1289.67 575.512Z" fill="white"/>
<path d="M1290.21 572.088C1290.21 569.63 1291.47 568.247 1293.59 568.247C1295.71 568.247 1296.6 569.493 1296.6 571.72C1296.6 571.857 1296.6 572.134 1296.57 572.334H1291.76C1291.76 573.871 1292.54 574.637 1293.88 574.637C1294.8 574.637 1295.63 574.315 1296.25 573.777L1296.42 575.005C1295.76 575.604 1294.77 575.926 1293.62 575.926C1291.46 575.926 1290.21 574.543 1290.21 572.085L1290.21 572.088ZM1295.05 571.38C1295.05 570.198 1294.53 569.521 1293.54 569.521C1292.42 569.521 1291.87 570.289 1291.78 571.38H1295.05Z" fill="white"/>
<path d="M1304.13 570.259V575.743H1302.62V570.766C1302.62 570.043 1302.13 569.584 1301.44 569.584C1300.83 569.584 1300.15 569.967 1299.63 570.553V575.746H1298.12V568.433H1299.33L1299.47 569.478C1300.16 568.724 1301.05 568.247 1302.03 568.247C1303.31 568.247 1304.12 569.016 1304.12 570.259H1304.13Z" fill="white"/>
<path d="M1305.82 566.649C1305.82 566.066 1306.14 565.759 1306.74 565.759C1307.34 565.759 1307.64 566.066 1307.64 566.649C1307.64 567.233 1307.32 567.525 1306.74 567.525C1306.15 567.525 1305.82 567.233 1305.82 566.649ZM1305.97 568.433H1307.48V575.746H1305.97V568.433Z" fill="white"/>
<path d="M1316.06 572.088C1316.06 574.515 1314.94 575.928 1313.11 575.928C1312.18 575.928 1311.36 575.56 1310.83 574.777L1310.66 575.746H1309.44V564.531H1310.95V569.125C1311.53 568.511 1312.32 568.25 1313.1 568.25C1314.99 568.25 1316.07 569.709 1316.07 572.09L1316.06 572.088ZM1314.51 572.088C1314.51 570.475 1313.83 569.523 1312.67 569.523C1312.01 569.523 1311.36 569.83 1310.95 570.368V573.81C1311.38 574.348 1311.99 574.64 1312.65 574.64C1313.82 574.64 1314.51 573.734 1314.51 572.09V572.088Z" fill="white"/>
<path d="M1317.58 564.529H1319.09V575.743H1317.58V564.529Z" fill="white"/>
<path d="M1320.61 572.088C1320.61 569.63 1321.87 568.247 1323.99 568.247C1326.1 568.247 1327 569.493 1327 571.72C1327 571.857 1327 572.134 1326.97 572.334H1322.16C1322.16 573.871 1322.94 574.637 1324.28 574.637C1325.2 574.637 1326.03 574.315 1326.65 573.777L1326.81 575.005C1326.16 575.604 1325.17 575.926 1324.02 575.926C1321.85 575.926 1320.61 574.543 1320.61 572.085L1320.61 572.088ZM1325.45 571.38C1325.45 570.198 1324.93 569.521 1323.94 569.521C1322.82 569.521 1322.27 570.289 1322.18 571.38H1325.45Z" fill="white"/>
<path d="M1205.07 573.3H1200.64L1199.73 575.928H1197.87L1201.74 565.328H1204.09L1207.96 575.928H1205.98L1205.08 573.3H1205.07ZM1204.61 571.948L1202.92 567.002H1202.82L1201.11 571.948H1204.62H1204.61Z" fill="white"/>
<path d="M1219.61 570.444V575.928H1218.1V570.951C1218.1 570.229 1217.61 569.769 1216.92 569.769C1216.31 569.769 1215.64 570.152 1215.11 570.738V575.931H1213.6V570.954C1213.6 570.231 1213.11 569.772 1212.42 569.772C1211.8 569.772 1211.13 570.155 1210.6 570.741V575.933H1209.1V568.62H1210.31L1210.45 569.665C1211.14 568.912 1212.03 568.435 1213.01 568.435C1213.99 568.435 1214.73 568.912 1214.99 569.711C1215.53 568.927 1216.53 568.435 1217.51 568.435C1218.79 568.435 1219.6 569.204 1219.6 570.447L1219.61 570.444Z" fill="white"/>
<path d="M1226.9 570.797V575.928H1225.64L1225.5 575.038C1224.86 575.697 1223.94 576.113 1223.05 576.113C1221.77 576.113 1220.97 575.284 1220.97 574.054C1220.97 572.288 1222.57 571.319 1225.4 571.319V570.675C1225.4 570.031 1224.96 569.645 1224.04 569.645C1223.26 569.645 1222.43 569.891 1221.65 570.274L1221.31 569.214C1222.21 568.707 1223.38 568.43 1224.3 568.43C1225.93 568.43 1226.9 569.32 1226.9 570.797H1226.9ZM1223.65 574.944C1224.21 574.944 1224.89 574.652 1225.4 574.145V572.24C1223.55 572.24 1222.52 572.808 1222.52 573.838C1222.52 574.482 1222.92 574.944 1223.64 574.944H1223.65Z" fill="white"/>
<path d="M1235.37 572.273C1235.37 574.701 1234.24 576.113 1232.42 576.113C1231.48 576.113 1230.67 575.746 1230.13 574.962L1229.96 575.931H1228.75V564.717H1230.25V569.31C1230.84 568.696 1231.62 568.435 1232.4 568.435C1234.29 568.435 1235.37 569.894 1235.37 572.276L1235.37 572.273ZM1233.81 572.273C1233.81 570.66 1233.14 569.709 1231.97 569.709C1231.31 569.709 1230.66 570.015 1230.25 570.553V573.995C1230.68 574.533 1231.29 574.825 1231.95 574.825C1233.12 574.825 1233.81 573.919 1233.81 572.276V572.273Z" fill="white"/>
<path d="M1236.89 564.714H1238.39V575.928H1236.89V564.714Z" fill="white"/>
<path d="M1239.91 572.273C1239.91 569.815 1241.17 568.433 1243.29 568.433C1245.41 568.433 1246.3 569.678 1246.3 571.905C1246.3 572.042 1246.3 572.319 1246.27 572.519H1241.46C1241.46 574.056 1242.25 574.822 1243.58 574.822C1244.5 574.822 1245.33 574.5 1245.95 573.962L1246.12 575.19C1245.46 575.789 1244.48 576.111 1243.32 576.111C1241.16 576.111 1239.92 574.728 1239.92 572.271L1239.91 572.273ZM1244.75 571.565C1244.75 570.383 1244.23 569.706 1243.25 569.706C1242.12 569.706 1241.57 570.475 1241.48 571.565H1244.75Z" fill="white"/>
<path d="M1258.52 568.615L1255.76 576.22C1255.18 577.909 1254.48 579 1253.04 579C1252.8 579 1252.55 578.97 1252.3 578.924L1252.1 577.648C1252.27 577.694 1252.46 577.709 1252.63 577.709C1253.27 577.709 1253.82 577.509 1254.25 576.126L1251.52 568.615H1253.19L1255.11 574.285L1256.97 568.615H1258.52Z" fill="white"/>
<path d="M1133.34 565.143H1135.56L1138.56 572.656H1138.67L1141.72 565.143H1143.9L1144.2 575.743H1142.43L1142.23 567.953H1142.11L1139.24 574.911H1137.84L1135 567.953H1134.88L1134.65 575.743H1133L1133.34 565.143Z" fill="white"/>
<path d="M1145.89 572.088C1145.89 569.63 1147.13 568.247 1149.33 568.247C1151.53 568.247 1152.79 569.63 1152.79 572.088C1152.79 574.546 1151.54 575.928 1149.33 575.928C1147.12 575.928 1145.89 574.546 1145.89 572.088ZM1151.26 572.088C1151.26 570.429 1150.59 569.523 1149.34 569.523C1148.1 569.523 1147.41 570.429 1147.41 572.088C1147.41 573.747 1148.09 574.637 1149.34 574.637C1150.6 574.637 1151.26 573.747 1151.26 572.088Z" fill="white"/>
<path d="M1160.25 568.433L1157.59 575.746H1155.89L1153.24 568.433H1154.9L1156.84 574.102L1158.7 568.433H1160.25Z" fill="white"/>
<path d="M1161.17 566.649C1161.17 566.066 1161.49 565.759 1162.09 565.759C1162.69 565.759 1163 566.066 1163 566.649C1163 567.233 1162.67 567.525 1162.09 567.525C1161.51 567.525 1161.17 567.233 1161.17 566.649ZM1161.33 568.433H1162.83V575.746H1161.33V568.433Z" fill="white"/>
<path d="M1164.8 564.529H1166.3V575.743H1164.8V564.529Z" fill="white"/>
<path d="M1168.11 566.649C1168.11 566.066 1168.43 565.759 1169.03 565.759C1169.63 565.759 1169.94 566.066 1169.94 566.649C1169.94 567.233 1169.62 567.525 1169.03 567.525C1168.45 567.525 1168.11 567.233 1168.11 566.649ZM1168.27 568.433H1169.77V575.746H1168.27V568.433Z" fill="white"/>
<path d="M1177.91 564.529V575.743H1176.68L1176.51 574.774C1175.98 575.558 1175.18 575.926 1174.23 575.926C1172.37 575.926 1171.29 574.498 1171.29 572.101C1171.29 569.703 1172.37 568.245 1174.26 568.245C1175.04 568.245 1175.82 568.506 1176.41 569.12V564.526H1177.91V564.529ZM1176.41 573.808V570.366C1175.99 569.843 1175.35 569.521 1174.69 569.521C1173.54 569.521 1172.84 570.472 1172.84 572.07C1172.84 573.79 1173.6 574.635 1174.72 574.635C1175.36 574.635 1175.99 574.343 1176.41 573.805V573.808Z" fill="white"/>
<path d="M1185.29 570.612V575.743H1184.03L1183.89 574.853C1183.24 575.512 1182.32 575.928 1181.43 575.928C1180.16 575.928 1179.36 575.099 1179.36 573.869C1179.36 572.103 1180.95 571.134 1183.78 571.134V570.49C1183.78 569.846 1183.35 569.46 1182.43 569.46C1181.64 569.46 1180.81 569.706 1180.03 570.089L1179.69 569.029C1180.6 568.521 1181.77 568.245 1182.69 568.245C1184.32 568.245 1185.28 569.135 1185.28 570.612H1185.29ZM1182.03 574.759C1182.6 574.759 1183.27 574.467 1183.78 573.96V572.055C1181.94 572.055 1180.91 572.623 1180.91 573.653C1180.91 574.297 1181.3 574.759 1182.03 574.759H1182.03Z" fill="white"/>
<path d="M1193.31 564.529V575.743H1192.08L1191.91 574.774C1191.37 575.558 1190.57 575.926 1189.62 575.926C1187.76 575.926 1186.68 574.498 1186.68 572.101C1186.68 569.703 1187.76 568.245 1189.65 568.245C1190.43 568.245 1191.22 568.506 1191.8 569.12V564.526H1193.31V564.529ZM1191.8 573.808V570.366C1191.38 569.843 1190.74 569.521 1190.08 569.521C1188.93 569.521 1188.24 570.472 1188.24 572.07C1188.24 573.79 1188.99 574.635 1190.11 574.635C1190.75 574.635 1191.39 574.343 1191.8 573.805V573.808Z" fill="white"/>
<path d="M1303.15 548.259V559.474H1301.92L1301.75 558.505C1301.22 559.288 1300.42 559.656 1299.47 559.656C1297.61 559.656 1296.53 558.228 1296.53 555.831C1296.53 553.434 1297.61 551.975 1299.5 551.975C1300.28 551.975 1301.06 552.237 1301.65 552.851V548.257H1303.15V548.259ZM1301.65 557.538V554.096C1301.23 553.573 1300.59 553.251 1299.93 553.251C1298.78 553.251 1298.08 554.203 1298.08 555.801C1298.08 557.52 1298.84 558.365 1299.96 558.365C1300.6 558.365 1301.23 558.073 1301.65 557.536V557.538Z" fill="white"/>
<path d="M1304.67 555.818C1304.67 553.36 1305.93 551.978 1308.05 551.978C1310.17 551.978 1311.06 553.223 1311.06 555.451C1311.06 555.588 1311.06 555.864 1311.03 556.064H1306.22C1306.22 557.602 1307.01 558.368 1308.34 558.368C1309.26 558.368 1310.09 558.045 1310.71 557.508L1310.88 558.735C1310.22 559.334 1309.24 559.656 1308.08 559.656C1305.92 559.656 1304.68 558.274 1304.68 555.816L1304.67 555.818ZM1309.51 555.111C1309.51 553.929 1308.99 553.251 1308.01 553.251C1306.88 553.251 1306.33 554.02 1306.24 555.111H1309.51Z" fill="white"/>
<path d="M1212.95 438.094C1216.72 437.909 1220.19 439.21 1223.55 440.856C1224.41 441.28 1224.91 442.028 1224.26 443.053C1224.05 443.385 1223.87 443.738 1223.67 444.073C1222.34 446.251 1222.25 446.317 1220.06 445.222C1216.36 443.37 1212.45 442.885 1208.56 444.08C1203.91 445.508 1200.34 448.42 1198.16 452.961C1196.39 456.656 1196.09 460.476 1196.9 464.37C1197.57 467.579 1199.27 470.364 1201.64 472.611C1203.63 474.491 1205.96 475.914 1208.67 476.541C1214.21 477.822 1219.23 476.787 1223.61 473.081C1224.58 472.259 1225.45 471.32 1226.15 470.24C1226.47 469.737 1226.53 469.37 1226.04 468.85C1222.6 465.169 1219.22 461.42 1215.76 457.755C1214.76 456.7 1213.5 456.03 1211.91 456.525C1210.08 457.095 1209.1 458.346 1208.95 460.218C1208.83 461.686 1209.88 463.34 1211.26 463.914C1212.36 464.373 1213.54 464.39 1214.63 463.903C1215.65 463.444 1216.38 463.579 1217.05 464.494C1217.51 465.129 1218.13 465.646 1218.6 466.28C1219.05 466.894 1219.18 467.68 1218.46 468.124C1214.25 470.727 1208.25 470.407 1205.19 465.593C1202.76 461.765 1202.95 457.996 1205.49 454.647C1209.08 449.917 1215.41 449.295 1219.85 454.163C1223.73 458.414 1227.66 462.615 1231.55 466.853C1232.88 468.312 1232.87 469.649 1231.85 471.313C1230.2 473.996 1228.28 476.378 1225.72 478.283C1222.57 480.624 1219.1 481.933 1215.24 482.423C1210.9 482.973 1206.75 482.192 1202.99 480.173C1198.25 477.626 1194.78 473.819 1192.72 468.677C1190.69 463.609 1190.51 458.49 1192.12 453.46C1194.01 447.55 1197.79 442.972 1203.53 440.252C1206.49 438.852 1209.57 437.954 1212.95 438.091L1212.95 438.094Z" fill="white"/>
<path d="M1247.39 438.063C1253.03 438.023 1257.63 439.677 1261.47 442.819C1267.35 447.631 1270.3 454.097 1269.8 461.692C1269.38 468.33 1266.43 473.903 1261.06 478.07C1257.45 480.873 1253.35 482.372 1248.85 482.567C1244.62 482.753 1240.6 481.753 1236.92 479.521C1236.12 479.034 1236.39 478.41 1236.41 477.776C1236.41 477.707 1236.52 477.649 1236.57 477.578C1238.85 474.182 1238.19 474.22 1242 475.975C1244.2 476.99 1246.63 477.236 1249.05 477.05C1253.46 476.713 1257.24 474.95 1260.12 471.561C1263.87 467.155 1265.4 462.163 1263.94 456.388C1262.65 451.266 1259.69 447.512 1255.01 445.163C1248.61 441.947 1240.96 443.542 1236.24 448.61C1235.51 449.394 1234.43 450.262 1234.38 451.068C1234.34 451.801 1235.59 452.628 1236.29 453.394C1239.17 456.537 1242.06 459.67 1244.95 462.815C1246.12 464.096 1248.18 464.649 1249.53 464.023C1250.99 463.35 1252 461.661 1251.85 460.147C1251.65 458.153 1250.42 456.766 1248.5 456.377C1247.77 456.228 1247.07 456.418 1246.43 456.727C1245.29 457.273 1244.38 457.072 1243.64 456.038C1243.39 455.677 1243.12 455.322 1242.82 454.998C1241.36 453.382 1241.48 452.983 1243.51 451.987C1246.47 450.531 1249.4 450.389 1252.31 452.012C1255.73 453.925 1257.59 457.448 1257.1 461.529C1256.72 464.71 1255.13 466.935 1252.53 468.578C1251.1 469.481 1249.49 469.758 1247.85 469.75C1244.98 469.735 1242.69 468.487 1240.78 466.371C1237.08 462.27 1233.4 458.148 1229.57 454.176C1228.01 452.555 1227.89 451.231 1228.9 449.427C1231.45 444.859 1235.16 441.462 1240.02 439.575C1242.51 438.609 1245.15 437.764 1247.39 438.068L1247.39 438.063Z" fill="white"/>
<path d="M1230.68 515.03C1230.68 518.792 1230.73 522.554 1230.66 526.313C1230.62 528.446 1230.2 530.511 1229.11 532.424C1227.59 535.074 1225.03 536.008 1222.33 536.332C1218.87 536.748 1215.5 536.216 1212.68 533.844C1211.92 533.212 1211.3 532.469 1210.88 531.609C1210.5 530.826 1210.38 530.049 1211.51 529.562C1211.99 529.354 1212.46 528.966 1212.95 528.695C1214.23 528 1214.95 528.119 1215.75 529.299C1217.76 532.264 1223.29 532.172 1224.72 529.255C1225.42 527.84 1225.33 526.318 1225.32 524.806C1225.32 524.258 1224.9 524.289 1224.56 524.334C1223.77 524.436 1222.99 524.639 1222.2 524.718C1218.81 525.052 1215.51 525.004 1212.78 522.498C1211.12 520.966 1210.39 518.942 1210.33 516.811C1210.2 512.068 1210.3 507.319 1210.3 502.573C1210.3 502.307 1210.22 501.937 1210.35 501.787C1211.51 500.542 1213.02 501.079 1214.39 501.117C1215.26 501.143 1215.69 501.734 1215.68 502.764C1215.62 507.06 1215.65 511.36 1215.66 515.659C1215.67 518.054 1217.34 519.786 1219.71 519.761C1221.17 519.746 1222.64 519.956 1224.11 519.543C1225.02 519.284 1225.37 518.909 1225.36 517.897C1225.3 513.016 1225.33 508.136 1225.34 503.256C1225.34 501.396 1225.65 501.084 1227.51 501.054C1227.83 501.049 1228.14 501.046 1228.45 501.046C1230.28 501.039 1230.68 501.419 1230.68 503.21C1230.69 507.149 1230.68 511.091 1230.68 515.03H1230.69H1230.68Z" fill="white"/>
<path d="M1153.12 518.32C1153.8 514.635 1155.23 511.208 1156.35 507.695C1157.76 503.291 1159.24 498.908 1160.62 494.492C1161.22 492.554 1161.96 491.889 1164.03 491.861C1164.7 491.851 1165.37 491.831 1166.04 491.869C1167.16 491.932 1167.61 492.526 1167.24 493.561C1166.31 496.179 1165.3 498.768 1164.36 501.384C1163.34 504.204 1162.38 507.045 1161.36 509.863C1160.33 512.684 1159.25 515.484 1158.21 518.297C1157.47 520.284 1156.74 522.272 1156.03 524.271C1155.85 524.791 1155.61 525.118 1155.01 525.141C1154.48 525.161 1153.96 525.319 1153.43 525.324C1150.23 525.359 1150.31 525.324 1149.29 522.313C1148.15 518.937 1146.83 515.619 1145.63 512.266C1144.4 508.859 1143.13 505.473 1142 502.028C1141.06 499.144 1139.89 496.333 1138.8 493.5C1138.43 492.544 1138.71 491.991 1139.84 491.889C1140.82 491.803 1141.81 491.844 1142.79 491.889C1145.13 491.996 1145.24 494.017 1145.8 495.567C1146.65 497.926 1147.38 500.331 1148.17 502.715C1149.2 505.81 1150.22 508.907 1151.29 511.981C1152.02 514.064 1152.41 516.21 1153.12 518.325V518.32Z" fill="white"/>
<path d="M1262.15 518.295C1262.82 515.251 1263.89 512.347 1264.84 509.407C1265.82 506.353 1266.7 503.258 1267.8 500.245C1268.65 497.924 1269.37 495.565 1270.18 493.234C1270.4 492.605 1270.83 492.336 1271.38 492.143C1272.69 491.694 1274.04 491.823 1275.37 491.91C1276.42 491.978 1276.53 492.797 1276.24 493.599C1275.31 496.217 1274.31 498.807 1273.37 501.422C1272.19 504.732 1271.06 508.068 1269.87 511.375C1268.66 514.741 1267.39 518.092 1266.15 521.445C1265.86 522.232 1265.45 522.99 1265.27 523.799C1265.01 524.948 1264.21 525.215 1263.23 525.306C1263.15 525.314 1263.06 525.314 1262.97 525.319C1259.57 525.519 1259.04 525.07 1257.85 521.311C1257.13 519.043 1256.35 516.796 1255.54 514.556C1254.48 511.614 1253.37 508.694 1252.39 505.721C1251.27 502.33 1249.93 499.009 1248.67 495.664C1248.38 494.877 1248.18 494.068 1247.78 493.307C1247.26 492.298 1248.14 491.978 1248.81 491.917C1249.95 491.813 1251.12 491.801 1252.28 491.978C1253.46 492.161 1253.98 492.868 1254.32 493.911C1255.08 496.3 1255.89 498.672 1256.68 501.054C1257.69 504.103 1258.62 507.18 1259.73 510.188C1260.38 511.933 1260.84 513.729 1261.45 515.474C1261.78 516.395 1261.68 517.387 1262.15 518.292L1262.15 518.295Z" fill="white"/>
<path d="M1289.29 514.921C1287.14 514.921 1284.99 514.957 1282.85 514.904C1281.96 514.881 1281.7 515.193 1281.72 516.06C1281.78 518.584 1283.08 521.169 1286.42 521.197C1288.88 521.217 1291.09 521.007 1292.6 518.686C1293.11 517.904 1294.01 517.402 1294.96 518.297C1295.02 518.356 1295.12 518.376 1295.2 518.409C1298.13 519.571 1297.9 520.753 1296.09 522.777C1294.08 525.019 1291.41 525.709 1288.57 525.882C1285.95 526.044 1283.37 525.889 1280.95 524.591C1278.19 523.112 1277.01 520.616 1276.68 517.775C1276.24 514.059 1276.06 510.317 1277.13 506.614C1277.92 503.862 1280.58 501.51 1283.43 500.925C1285.98 500.399 1288.4 500.394 1290.95 500.914C1294.71 501.686 1297.62 505.196 1297.81 508.902C1297.87 510.196 1297.82 511.497 1297.81 512.796C1297.8 514.348 1297.3 514.891 1295.73 514.914C1293.58 514.947 1291.43 514.921 1289.29 514.921H1289.29ZM1287.08 510.911V510.916C1288.56 510.916 1290.03 510.926 1291.51 510.908C1291.87 510.903 1292.43 511.071 1292.43 510.452C1292.42 509.617 1292.55 508.788 1292.26 507.941C1291.56 505.965 1289.94 505.282 1288.15 505.079C1284.67 504.684 1282.14 506.102 1281.73 509.729C1281.64 510.548 1281.84 510.974 1282.79 510.929C1284.22 510.86 1285.65 510.911 1287.08 510.911Z" fill="white"/>
<path d="M1188.04 515.345C1188.04 517.582 1188.07 519.817 1188.04 522.054C1188.01 523.954 1187.32 524.664 1185.47 525.116C1181.66 526.049 1177.8 526.217 1173.94 525.623C1170.64 525.113 1168.04 523.246 1168.11 519.01C1168.15 516.791 1168.13 514.652 1170.04 513.057C1171.74 511.631 1173.84 511.52 1175.87 511.185C1177.91 510.848 1179.97 511.081 1182.02 511.187C1182.35 511.205 1182.71 511.38 1182.88 510.853C1183.41 509.305 1182.48 506.525 1180.94 505.815C1178.84 504.846 1175.28 504.968 1173.65 507.218C1173.26 507.758 1172.96 508.499 1172.17 508.334C1170.93 508.078 1169.6 507.814 1168.78 506.749C1168.44 506.302 1168.62 505.589 1169 504.993C1170.61 502.472 1172.92 501.188 1175.83 500.668C1178.68 500.161 1181.47 500.369 1184.02 501.582C1186.51 502.769 1187.77 505.12 1187.95 507.837C1188.13 510.328 1187.99 512.841 1187.99 515.347C1188.01 515.347 1188.03 515.347 1188.04 515.347V515.345ZM1182.9 518.145C1182.9 517.476 1182.9 516.803 1182.9 516.134C1182.9 515.817 1182.9 515.477 1182.45 515.451C1180.03 515.32 1177.59 514.701 1175.18 515.67C1173.83 516.215 1173.35 517.017 1173.51 518.881C1173.61 520.101 1174.27 520.847 1175.53 521.164C1177.13 521.567 1178.73 521.511 1180.31 521.296C1182.91 520.943 1182.9 520.87 1182.9 518.145Z" fill="white"/>
<path d="M1301.86 513.985C1301.86 511.076 1301.86 508.169 1301.86 505.26C1301.86 503.005 1302.81 501.967 1305 501.478C1306.78 501.082 1308.56 500.739 1310.35 500.567C1314.02 500.212 1317.57 500.42 1320.25 503.471C1321.88 505.325 1322.12 507.624 1322.15 509.937C1322.21 514.411 1322.19 518.886 1322.19 523.36C1322.19 524.966 1321.87 525.268 1320.29 525.344C1316.94 525.506 1316.86 525.433 1316.87 522.047C1316.88 518.199 1316.89 514.351 1316.87 510.503C1316.86 508.451 1316.48 506.442 1314.21 505.802C1312.05 505.196 1309.81 505.262 1307.65 506.056C1306.98 506.302 1307.23 506.885 1307.23 507.327C1307.21 512.562 1307.21 517.798 1307.21 523.033C1307.21 525.052 1306.95 525.311 1304.89 525.349C1302.87 525.385 1301.86 524.417 1301.86 522.447C1301.86 519.629 1301.86 516.809 1301.86 513.99H1301.85L1301.86 513.985Z" fill="white"/>
<path d="M1240.83 510.373C1242.67 510.373 1244.5 510.391 1246.33 510.366C1247.23 510.353 1247.63 510.708 1247.61 511.639C1247.54 515.512 1248.21 515.522 1243.95 515.492C1241.23 515.472 1238.5 515.492 1235.77 515.477C1234.3 515.469 1233.97 515.122 1233.92 513.658C1233.85 511.465 1234.9 510.366 1237.08 510.363C1238.33 510.363 1239.58 510.363 1240.83 510.363C1240.83 510.368 1240.83 510.371 1240.83 510.376V510.373Z" fill="white"/>
<path d="M1198.75 510.373C1200.67 510.373 1202.59 510.396 1204.5 510.361C1205.17 510.348 1205.42 510.591 1205.56 511.233C1205.75 512.169 1205.7 513.103 1205.64 514.028C1205.58 514.98 1205.08 515.515 1204 515.5C1200.56 515.454 1197.13 515.477 1193.69 515.487C1192.57 515.489 1191.9 515.086 1192.03 513.828C1192.08 513.298 1192.03 512.758 1192.03 512.222C1192.03 510.376 1192.03 510.371 1193.94 510.361C1195.54 510.353 1197.15 510.361 1198.75 510.361C1198.75 510.366 1198.75 510.371 1198.75 510.376L1198.75 510.373Z" fill="white"/>
</g>
<g clip-path="url(#clip2_99_130)">
<path d="M273.8 492.973H283.349V478.963L264.11 457.255H251.429L273.8 483.77V492.973Z" fill="white"/>
<path d="M284.856 470.931L309.18 442.057H296.698L278.376 463.799L284.856 470.931Z" fill="white"/>
<path d="M234.847 492.973H225.298V451.536L219.952 442H272.232L264.269 451.536H234.847V492.973Z" fill="white"/>
<path d="M217.035 451.536H199.325L194.052 442H211.7L217.035 451.536Z" fill="white"/>
<path d="M176.382 442.068L185.161 442L207.464 481.932H197.043L180.885 456.038L162.172 492.973H151.825L176.382 442.068Z" fill="white"/>
<path d="M107.712 546.491L110.64 552H108.692L108.284 551.191H105.356L104.948 552H103L105.934 546.491H107.712ZM107.548 549.732L106.823 548.29L106.098 549.732H107.548Z" fill="white"/>
<path d="M114.774 548.035C114.576 548.035 114.418 548.063 114.293 548.126C114.168 548.188 114.066 548.273 113.993 548.38C113.919 548.488 113.868 548.618 113.84 548.765C113.812 548.912 113.795 549.07 113.795 549.245C113.795 549.421 113.812 549.585 113.84 549.732C113.868 549.879 113.919 550.009 113.993 550.117C114.066 550.224 114.163 550.309 114.293 550.371C114.418 550.433 114.582 550.462 114.774 550.462H116.196C116.439 550.462 116.638 550.422 116.785 550.348C116.938 550.269 117.028 550.15 117.068 549.981H114.729V548.963H118.931V552H117.878L117.668 551.519C117.515 551.621 117.351 551.706 117.181 551.768C117.011 551.83 116.842 551.881 116.677 551.915C116.507 551.949 116.349 551.972 116.19 551.983C116.032 551.994 115.89 552 115.754 552H114.865C114.701 552 114.514 551.989 114.304 551.972C114.095 551.955 113.885 551.915 113.664 551.847C113.449 551.785 113.234 551.689 113.03 551.57C112.826 551.451 112.639 551.287 112.481 551.084C112.322 550.88 112.192 550.626 112.095 550.326C111.999 550.026 111.948 549.664 111.948 549.24C111.948 548.816 111.999 548.459 112.095 548.154C112.192 547.854 112.322 547.6 112.481 547.396C112.639 547.192 112.82 547.028 113.03 546.909C113.234 546.791 113.449 546.695 113.664 546.632C113.88 546.57 114.095 546.525 114.304 546.508C114.514 546.491 114.701 546.48 114.865 546.48H116.06C116.207 546.48 116.377 546.485 116.564 546.502C116.751 546.519 116.943 546.548 117.136 546.598C117.329 546.649 117.521 546.717 117.714 546.813C117.906 546.904 118.082 547.028 118.246 547.187C118.41 547.345 118.546 547.537 118.665 547.764C118.784 547.995 118.869 548.267 118.92 548.584H117.04C117 548.363 116.904 548.216 116.757 548.137C116.609 548.058 116.405 548.024 116.145 548.024H114.763L114.774 548.035Z" fill="white"/>
<path d="M127.257 546.491V547.956H123.02V548.595H127.257V549.822H123.02V550.535H127.257V552H121.253V546.491H127.257Z" fill="white"/>
<path d="M134.829 546.491H136.596V552H134.132L131.346 548.38V552H129.579V546.491H132.054L134.835 550.111V546.491H134.829Z" fill="white"/>
<path d="M141.58 548.035C141.382 548.035 141.223 548.063 141.099 548.126C140.974 548.188 140.878 548.273 140.804 548.38C140.73 548.488 140.68 548.618 140.651 548.765C140.623 548.912 140.612 549.07 140.612 549.245C140.612 549.421 140.623 549.585 140.651 549.732C140.68 549.879 140.73 550.009 140.804 550.117C140.878 550.224 140.974 550.309 141.099 550.371C141.223 550.433 141.382 550.462 141.58 550.462H142.973C143.115 550.462 143.245 550.45 143.347 550.433C143.455 550.411 143.54 550.377 143.613 550.32C143.687 550.264 143.743 550.19 143.789 550.1C143.834 550.009 143.874 549.89 143.896 549.743H145.76C145.72 550.088 145.641 550.382 145.522 550.626C145.403 550.869 145.267 551.078 145.103 551.242C144.938 551.412 144.763 551.542 144.57 551.638C144.378 551.734 144.18 551.813 143.981 551.864C143.783 551.915 143.585 551.955 143.392 551.966C143.2 551.983 143.03 551.989 142.877 551.989H141.671C141.506 551.989 141.319 551.977 141.11 551.96C140.9 551.943 140.691 551.904 140.47 551.836C140.255 551.774 140.045 551.678 139.841 551.559C139.637 551.44 139.456 551.276 139.292 551.072C139.128 550.869 138.997 550.614 138.901 550.314C138.805 550.015 138.754 549.653 138.754 549.229C138.754 548.804 138.805 548.448 138.901 548.143C138.997 547.837 139.128 547.588 139.292 547.385C139.456 547.181 139.637 547.017 139.841 546.898C140.045 546.779 140.255 546.683 140.47 546.621C140.685 546.559 140.9 546.514 141.11 546.497C141.319 546.48 141.506 546.468 141.671 546.468H142.877C143.03 546.468 143.205 546.474 143.392 546.491C143.585 546.508 143.777 546.542 143.981 546.593C144.18 546.649 144.378 546.723 144.57 546.819C144.763 546.915 144.938 547.051 145.103 547.215C145.267 547.385 145.403 547.588 145.522 547.831C145.635 548.075 145.714 548.369 145.76 548.714H143.896C143.862 548.448 143.772 548.261 143.625 548.16C143.483 548.058 143.262 548.007 142.968 548.007H141.574L141.58 548.035Z" fill="white"/>
<path d="M147.923 546.491H149.69V552H147.923V546.491Z" fill="white"/>
<path d="M156.26 546.491L159.188 552H157.239L156.832 551.191H153.904L153.496 552H151.548L154.481 546.491H156.26ZM156.095 549.732L155.37 548.29L154.646 549.732H156.101H156.095Z" fill="white"/>
<path d="M307.691 546.491L305.04 549.8V552H303.273V549.8L300.623 546.491H302.803L304.157 548.318L305.51 546.491H307.697H307.691Z" fill="white"/>
<path d="M314.799 546.485H316.566V549.24C316.566 549.664 316.515 550.02 316.418 550.326C316.322 550.631 316.192 550.88 316.033 551.084C315.875 551.287 315.693 551.451 315.484 551.57C315.28 551.689 315.065 551.785 314.849 551.847C314.634 551.91 314.419 551.955 314.21 551.972C314 551.989 313.813 552 313.649 552H312.454C312.29 552 312.103 551.989 311.893 551.972C311.684 551.955 311.474 551.915 311.253 551.847C311.038 551.785 310.823 551.689 310.619 551.57C310.415 551.451 310.228 551.287 310.069 551.084C309.911 550.88 309.781 550.626 309.684 550.326C309.588 550.026 309.537 549.664 309.537 549.24V546.485H311.304V549.24C311.304 549.415 311.321 549.579 311.361 549.726C311.395 549.873 311.457 550.003 311.536 550.111C311.616 550.218 311.729 550.303 311.859 550.365C311.995 550.428 312.159 550.456 312.352 550.456H313.813C314.011 550.456 314.17 550.428 314.294 550.365C314.419 550.303 314.521 550.218 314.595 550.111C314.668 550.003 314.719 549.873 314.748 549.726C314.776 549.579 314.793 549.415 314.793 549.24V546.485H314.799Z" fill="white"/>
<path d="M321.555 548.029C321.357 548.029 321.198 548.058 321.074 548.12C320.949 548.182 320.853 548.267 320.779 548.374C320.706 548.482 320.655 548.612 320.626 548.759C320.598 548.906 320.581 549.064 320.581 549.24C320.581 549.415 320.598 549.579 320.626 549.726C320.655 549.873 320.706 550.003 320.779 550.111C320.853 550.218 320.949 550.303 321.074 550.365C321.198 550.428 321.357 550.456 321.555 550.456H322.948C323.09 550.456 323.22 550.445 323.322 550.428C323.424 550.411 323.515 550.371 323.588 550.314C323.662 550.258 323.719 550.184 323.764 550.094C323.809 550.003 323.849 549.885 323.871 549.738H325.735C325.695 550.083 325.616 550.377 325.497 550.62C325.378 550.863 325.242 551.072 325.078 551.236C324.914 551.406 324.738 551.536 324.545 551.632C324.353 551.729 324.155 551.808 323.956 551.859C323.758 551.909 323.56 551.949 323.367 551.96C323.175 551.977 323.005 551.983 322.852 551.983H321.646C321.481 551.983 321.295 551.972 321.085 551.955C320.875 551.938 320.666 551.898 320.445 551.83C320.23 551.768 320.02 551.672 319.816 551.553C319.613 551.434 319.431 551.27 319.267 551.067C319.103 550.863 318.973 550.609 318.876 550.309C318.78 550.009 318.729 549.647 318.729 549.223C318.729 548.799 318.78 548.442 318.876 548.137C318.973 547.837 319.103 547.583 319.267 547.379C319.431 547.175 319.613 547.011 319.816 546.893C320.02 546.774 320.23 546.678 320.445 546.615C320.66 546.553 320.875 546.508 321.085 546.491C321.295 546.474 321.481 546.463 321.646 546.463H322.852C323.005 546.463 323.181 546.468 323.367 546.485C323.56 546.502 323.753 546.536 323.956 546.587C324.155 546.644 324.353 546.717 324.545 546.813C324.738 546.909 324.914 547.045 325.078 547.209C325.242 547.379 325.378 547.583 325.497 547.826C325.61 548.069 325.689 548.363 325.735 548.708H323.871C323.837 548.442 323.747 548.256 323.6 548.154C323.458 548.052 323.237 548.001 322.943 548.001H321.549L321.555 548.029Z" fill="white"/>
<path d="M331.761 546.485L334.689 551.994H332.741L332.333 551.186H329.405L328.997 551.994H327.049L329.983 546.485H331.761ZM331.597 549.726L330.872 548.284L330.147 549.726H331.597Z" fill="white"/>
<path d="M335.306 546.485H340.862V548.029H338.948V551.994H337.169V548.029H335.306V546.485Z" fill="white"/>
<path d="M346.197 546.485L349.125 551.994H347.177L346.769 551.186H343.841L343.433 551.994H341.485L344.419 546.485H346.197ZM345.75 545.931H344.583L345.659 544.178H347.477L345.755 545.931H345.75ZM346.033 549.726L345.308 548.284L344.583 549.726H346.033Z" fill="white"/>
<path d="M356.233 546.485H358V551.994H355.536L352.744 548.374V551.994H350.977V546.485H353.452L356.233 550.105V546.485Z" fill="white"/>
<path d="M172.984 549.245C172.984 549.669 172.933 550.026 172.837 550.331C172.741 550.637 172.61 550.886 172.446 551.089C172.282 551.293 172.101 551.457 171.897 551.576C171.693 551.694 171.483 551.791 171.268 551.853C171.053 551.915 170.838 551.96 170.628 551.977C170.418 551.994 170.232 552.005 170.067 552.005H165.95V546.496H170.067C170.232 546.496 170.418 546.508 170.628 546.525C170.838 546.542 171.047 546.581 171.268 546.649C171.483 546.711 171.693 546.807 171.897 546.926C172.101 547.045 172.282 547.209 172.446 547.413C172.61 547.616 172.741 547.871 172.837 548.171C172.933 548.47 172.984 548.832 172.984 549.257V549.245ZM170.164 550.467C170.362 550.467 170.52 550.439 170.645 550.376C170.77 550.314 170.866 550.229 170.94 550.122C171.013 550.014 171.064 549.884 171.092 549.737C171.121 549.59 171.132 549.426 171.132 549.251C171.132 549.076 171.121 548.917 171.092 548.77C171.064 548.623 171.013 548.499 170.94 548.386C170.866 548.278 170.77 548.193 170.645 548.131C170.52 548.069 170.362 548.041 170.164 548.041H167.728V550.473H170.164V550.467Z" fill="white"/>
<path d="M180.868 546.491V547.956H176.631V548.595H180.868V549.822H176.631V550.535H180.868V552H174.864V546.491H180.868Z" fill="white"/>
<path d="M188.502 546.395H194.058V547.939H192.144V551.904H190.365V547.939H188.502V546.395Z" fill="white"/>
<path d="M202.723 548.454C202.723 548.759 202.684 549.019 202.61 549.234C202.531 549.455 202.429 549.636 202.299 549.788C202.168 549.941 202.021 550.06 201.857 550.156C201.693 550.252 201.511 550.32 201.33 550.371L203.006 551.898H200.696L199.246 550.507H197.926V551.898H196.148V546.389H200.095C200.26 546.389 200.441 546.395 200.639 546.406C200.837 546.417 201.03 546.451 201.228 546.497C201.426 546.542 201.613 546.61 201.794 546.7C201.976 546.791 202.134 546.915 202.276 547.068C202.417 547.221 202.525 547.413 202.61 547.633C202.695 547.854 202.74 548.131 202.74 548.448L202.723 548.454ZM197.915 548.968H199.909C200.107 548.968 200.265 548.963 200.39 548.951C200.515 548.94 200.611 548.912 200.684 548.872C200.758 548.833 200.809 548.782 200.837 548.714C200.866 548.646 200.883 548.561 200.883 548.454C200.883 548.346 200.866 548.256 200.837 548.193C200.809 548.126 200.758 548.075 200.684 548.035C200.611 547.995 200.515 547.973 200.39 547.956C200.265 547.939 200.107 547.939 199.909 547.939H197.915V548.974V548.968Z" fill="white"/>
<path d="M209.106 546.395L212.034 551.904H210.086L209.678 551.095H206.75L206.342 551.904H204.394L207.328 546.395H209.106ZM208.942 549.636L208.217 548.193L207.492 549.636H208.942Z" fill="white"/>
<path d="M219.148 546.395H220.915V551.904H218.451L215.664 548.284V551.904H213.897V546.395H216.372L219.153 550.015V546.395H219.148Z" fill="white"/>
<path d="M224.845 548.188C224.845 548.284 224.907 548.408 225.032 548.442C225.156 548.476 225.326 548.499 225.536 548.51C225.745 548.521 225.983 548.527 226.25 548.527C226.516 548.527 226.788 548.538 227.065 548.561C227.343 548.584 227.614 548.629 227.881 548.691C228.147 548.753 228.385 548.85 228.594 548.985C228.804 549.121 228.968 549.296 229.098 549.517C229.223 549.738 229.285 549.969 229.285 550.314C229.285 550.416 229.274 550.529 229.257 550.654C229.24 550.778 229.2 550.903 229.138 551.027C229.076 551.152 228.985 551.276 228.872 551.395C228.758 551.514 228.6 551.615 228.407 551.706C228.215 551.796 227.977 551.87 227.694 551.921C227.411 551.972 227.071 552 226.674 552H225.695C225.298 552 224.958 551.966 224.681 551.898C224.398 551.83 224.165 551.745 223.973 551.638C223.78 551.531 223.627 551.412 223.508 551.27C223.395 551.129 223.305 550.993 223.242 550.852C223.18 550.71 223.14 550.569 223.123 550.433C223.106 550.298 223.095 550.179 223.095 550.077H224.862C224.879 550.133 224.902 550.19 224.936 550.247C224.97 550.303 225.021 550.354 225.089 550.399C225.156 550.445 225.247 550.479 225.355 550.501C225.462 550.524 225.598 550.541 225.762 550.541H226.997C227.19 550.541 227.32 550.524 227.394 550.484C227.467 550.45 227.507 550.388 227.507 550.309C227.507 550.207 227.445 550.083 227.32 550.037C227.195 549.998 227.025 549.969 226.816 549.958C226.606 549.947 226.368 549.941 226.102 549.941C225.836 549.941 225.564 549.936 225.287 549.913C225.009 549.89 224.737 549.851 224.471 549.788C224.205 549.732 223.967 549.636 223.758 549.506C223.548 549.376 223.384 549.2 223.254 548.98C223.129 548.759 223.067 548.533 223.067 548.188C223.067 548.029 223.089 547.848 223.14 547.656C223.191 547.458 223.305 547.277 223.48 547.102C223.656 546.932 223.922 546.785 224.262 546.666C224.607 546.548 225.077 546.491 225.666 546.491H226.657C227.054 546.491 227.394 546.525 227.671 546.593C227.949 546.661 228.186 546.745 228.379 546.853C228.572 546.96 228.725 547.085 228.843 547.221C228.957 547.356 229.047 547.498 229.11 547.639C229.172 547.781 229.212 547.922 229.229 548.058C229.246 548.193 229.257 548.312 229.257 548.42H227.49C227.462 548.278 227.388 548.165 227.263 548.08C227.139 547.995 226.912 547.956 226.589 547.956H225.355C225.156 547.956 225.026 547.973 224.947 548.007C224.873 548.041 224.834 548.103 224.834 548.188H224.845Z" fill="white"/>
<path d="M235.402 546.395C235.566 546.395 235.747 546.4 235.946 546.412C236.144 546.423 236.336 546.457 236.535 546.502C236.733 546.548 236.92 546.615 237.101 546.706C237.282 546.796 237.446 546.921 237.582 547.074C237.718 547.226 237.831 547.419 237.916 547.639C238.001 547.86 238.047 548.137 238.047 548.454C238.047 548.77 238.001 549.042 237.916 549.268C237.831 549.494 237.718 549.681 237.582 549.834C237.446 549.986 237.282 550.111 237.101 550.201C236.92 550.292 236.727 550.36 236.535 550.405C236.342 550.45 236.144 550.479 235.946 550.495C235.747 550.512 235.572 550.512 235.402 550.512H233.233V551.904H231.454V546.395H235.402ZM235.226 548.974C235.419 548.974 235.583 548.968 235.708 548.957C235.832 548.946 235.929 548.917 236.002 548.878C236.076 548.838 236.127 548.787 236.155 548.719C236.183 548.652 236.2 548.567 236.2 548.459C236.2 548.352 236.183 548.261 236.155 548.199C236.127 548.131 236.076 548.08 236.002 548.041C235.929 548.001 235.832 547.979 235.708 547.962C235.583 547.945 235.424 547.945 235.226 547.945H233.233V548.98H235.226V548.974Z" fill="white"/>
<path d="M244.163 546.395C244.328 546.395 244.514 546.406 244.724 546.423C244.934 546.44 245.143 546.48 245.364 546.548C245.579 546.61 245.789 546.706 245.998 546.825C246.202 546.943 246.389 547.107 246.548 547.311C246.706 547.515 246.836 547.769 246.933 548.069C247.029 548.369 247.08 548.731 247.08 549.155C247.08 549.579 247.029 549.936 246.933 550.241C246.836 550.541 246.706 550.795 246.548 550.999C246.389 551.202 246.208 551.367 245.998 551.485C245.794 551.604 245.579 551.7 245.364 551.762C245.149 551.825 244.934 551.87 244.724 551.887C244.514 551.904 244.328 551.915 244.163 551.915H242.963C242.798 551.915 242.611 551.904 242.402 551.887C242.192 551.87 241.983 551.83 241.762 551.762C241.547 551.7 241.337 551.604 241.128 551.485C240.924 551.367 240.737 551.202 240.578 550.999C240.42 550.795 240.289 550.541 240.193 550.241C240.097 549.941 240.046 549.579 240.046 549.155C240.046 548.731 240.097 548.374 240.193 548.069C240.289 547.769 240.42 547.515 240.578 547.311C240.737 547.107 240.918 546.943 241.128 546.825C241.332 546.706 241.547 546.61 241.762 546.548C241.977 546.485 242.192 546.44 242.402 546.423C242.611 546.406 242.798 546.395 242.963 546.395H244.163ZM244.254 550.371C244.446 550.371 244.611 550.343 244.735 550.281C244.86 550.218 244.962 550.133 245.035 550.026C245.109 549.919 245.16 549.788 245.188 549.641C245.217 549.494 245.234 549.33 245.234 549.155C245.234 548.98 245.217 548.821 245.188 548.674C245.16 548.527 245.109 548.403 245.035 548.29C244.962 548.182 244.866 548.097 244.735 548.035C244.611 547.973 244.446 547.945 244.254 547.945H242.872C242.674 547.945 242.515 547.973 242.391 548.035C242.266 548.097 242.164 548.182 242.09 548.29C242.017 548.397 241.966 548.527 241.938 548.674C241.909 548.821 241.892 548.98 241.892 549.155C241.892 549.33 241.909 549.494 241.938 549.641C241.966 549.788 242.017 549.919 242.09 550.026C242.164 550.133 242.26 550.218 242.391 550.281C242.515 550.343 242.679 550.371 242.872 550.371H244.254Z" fill="white"/>
<path d="M255.824 548.454C255.824 548.759 255.785 549.019 255.711 549.234C255.632 549.455 255.53 549.636 255.4 549.788C255.269 549.941 255.122 550.06 254.958 550.156C254.794 550.252 254.612 550.32 254.431 550.371L256.108 551.898H253.797L252.341 550.507H251.022V551.898H249.243V546.389H253.191C253.355 546.389 253.536 546.395 253.735 546.406C253.927 546.417 254.125 546.451 254.324 546.497C254.522 546.542 254.709 546.61 254.89 546.7C255.071 546.791 255.23 546.915 255.371 547.068C255.513 547.221 255.621 547.413 255.705 547.633C255.79 547.854 255.83 548.131 255.83 548.448L255.824 548.454ZM251.016 548.968H253.01C253.208 548.968 253.366 548.963 253.491 548.951C253.616 548.94 253.712 548.912 253.786 548.872C253.859 548.833 253.91 548.782 253.938 548.714C253.967 548.646 253.984 548.561 253.984 548.454C253.984 548.346 253.967 548.256 253.938 548.193C253.91 548.126 253.859 548.075 253.786 548.035C253.712 547.995 253.616 547.973 253.491 547.956C253.366 547.939 253.208 547.939 253.01 547.939H251.016V548.974V548.968Z" fill="white"/>
<path d="M257.801 546.395H263.357V547.939H261.443V551.904H259.664V547.939H257.801V546.395Z" fill="white"/>
<path d="M271.473 546.378V547.843H267.236V548.482H271.473V549.709H267.236V550.422H271.473V551.887H265.469V546.378H271.473Z" fill="white"/>
<path d="M285.575 549.24C285.575 549.664 285.524 550.02 285.428 550.326C285.331 550.631 285.201 550.88 285.037 551.083C284.873 551.287 284.691 551.451 284.487 551.57C284.284 551.689 284.074 551.785 283.859 551.847C283.644 551.909 283.428 551.955 283.219 551.971C283.009 551.988 282.822 552 282.658 552H278.541V546.491H282.658C282.822 546.491 283.009 546.502 283.219 546.519C283.428 546.536 283.638 546.576 283.859 546.643C284.074 546.706 284.284 546.802 284.487 546.921C284.691 547.039 284.873 547.203 285.037 547.407C285.201 547.611 285.331 547.865 285.428 548.165C285.524 548.465 285.575 548.827 285.575 549.251V549.24ZM282.754 550.461C282.953 550.461 283.111 550.433 283.236 550.371C283.36 550.309 283.457 550.224 283.53 550.116C283.604 550.009 283.655 549.879 283.683 549.732C283.712 549.585 283.723 549.421 283.723 549.245C283.723 549.07 283.712 548.912 283.683 548.764C283.655 548.617 283.604 548.493 283.53 548.38C283.457 548.272 283.36 548.188 283.236 548.125C283.111 548.063 282.953 548.035 282.754 548.035H280.319V550.467H282.754V550.461Z" fill="white"/>
<path d="M293.458 546.485V547.95H289.222V548.589H293.458V549.817H289.222V550.529H293.458V551.994H287.455V546.485H293.458Z" fill="white"/>
</g>
<g clip-path="url(#clip3_99_130)">
<path d="M273.8 492.973H283.349V478.963L264.11 457.255H251.429L273.8 483.77V492.973Z" fill="white"/>
<path d="M284.856 470.931L309.18 442.057H296.698L278.376 463.799L284.856 470.931Z" fill="white"/>
<path d="M234.847 492.973H225.298V451.536L219.952 442H272.232L264.269 451.536H234.847V492.973Z" fill="white"/>
<path d="M217.035 451.536H199.325L194.052 442H211.7L217.035 451.536Z" fill="white"/>
<path d="M176.382 442.068L185.161 442L207.464 481.932H197.043L180.885 456.038L162.172 492.973H151.825L176.382 442.068Z" fill="white"/>
<path d="M107.712 546.491L110.64 552H108.692L108.284 551.191H105.356L104.948 552H103L105.934 546.491H107.712ZM107.548 549.732L106.823 548.29L106.098 549.732H107.548Z" fill="white"/>
<path d="M114.774 548.035C114.576 548.035 114.418 548.063 114.293 548.126C114.168 548.188 114.066 548.273 113.993 548.38C113.919 548.488 113.868 548.618 113.84 548.765C113.812 548.912 113.795 549.07 113.795 549.245C113.795 549.421 113.812 549.585 113.84 549.732C113.868 549.879 113.919 550.009 113.993 550.117C114.066 550.224 114.163 550.309 114.293 550.371C114.418 550.433 114.582 550.462 114.774 550.462H116.196C116.439 550.462 116.638 550.422 116.785 550.348C116.938 550.269 117.028 550.15 117.068 549.981H114.729V548.963H118.931V552H117.878L117.668 551.519C117.515 551.621 117.351 551.706 117.181 551.768C117.011 551.83 116.842 551.881 116.677 551.915C116.507 551.949 116.349 551.972 116.19 551.983C116.032 551.994 115.89 552 115.754 552H114.865C114.701 552 114.514 551.989 114.304 551.972C114.095 551.955 113.885 551.915 113.664 551.847C113.449 551.785 113.234 551.689 113.03 551.57C112.826 551.451 112.639 551.287 112.481 551.084C112.322 550.88 112.192 550.626 112.095 550.326C111.999 550.026 111.948 549.664 111.948 549.24C111.948 548.816 111.999 548.459 112.095 548.154C112.192 547.854 112.322 547.6 112.481 547.396C112.639 547.192 112.82 547.028 113.03 546.909C113.234 546.791 113.449 546.695 113.664 546.632C113.88 546.57 114.095 546.525 114.304 546.508C114.514 546.491 114.701 546.48 114.865 546.48H116.06C116.207 546.48 116.377 546.485 116.564 546.502C116.751 546.519 116.943 546.548 117.136 546.598C117.329 546.649 117.521 546.717 117.714 546.813C117.906 546.904 118.082 547.028 118.246 547.187C118.41 547.345 118.546 547.537 118.665 547.764C118.784 547.995 118.869 548.267 118.92 548.584H117.04C117 548.363 116.904 548.216 116.757 548.137C116.609 548.058 116.405 548.024 116.145 548.024H114.763L114.774 548.035Z" fill="white"/>
<path d="M127.257 546.491V547.956H123.02V548.595H127.257V549.822H123.02V550.535H127.257V552H121.253V546.491H127.257Z" fill="white"/>
<path d="M134.829 546.491H136.596V552H134.132L131.346 548.38V552H129.579V546.491H132.054L134.835 550.111V546.491H134.829Z" fill="white"/>
<path d="M141.58 548.035C141.382 548.035 141.223 548.063 141.099 548.126C140.974 548.188 140.878 548.273 140.804 548.38C140.73 548.488 140.68 548.618 140.651 548.765C140.623 548.912 140.612 549.07 140.612 549.245C140.612 549.421 140.623 549.585 140.651 549.732C140.68 549.879 140.73 550.009 140.804 550.117C140.878 550.224 140.974 550.309 141.099 550.371C141.223 550.433 141.382 550.462 141.58 550.462H142.973C143.115 550.462 143.245 550.45 143.347 550.433C143.455 550.411 143.54 550.377 143.613 550.32C143.687 550.264 143.743 550.19 143.789 550.1C143.834 550.009 143.874 549.89 143.896 549.743H145.76C145.72 550.088 145.641 550.382 145.522 550.626C145.403 550.869 145.267 551.078 145.103 551.242C144.938 551.412 144.763 551.542 144.57 551.638C144.378 551.734 144.18 551.813 143.981 551.864C143.783 551.915 143.585 551.955 143.392 551.966C143.2 551.983 143.03 551.989 142.877 551.989H141.671C141.506 551.989 141.319 551.977 141.11 551.96C140.9 551.943 140.691 551.904 140.47 551.836C140.255 551.774 140.045 551.678 139.841 551.559C139.637 551.44 139.456 551.276 139.292 551.072C139.128 550.869 138.997 550.614 138.901 550.314C138.805 550.015 138.754 549.653 138.754 549.229C138.754 548.804 138.805 548.448 138.901 548.143C138.997 547.837 139.128 547.588 139.292 547.385C139.456 547.181 139.637 547.017 139.841 546.898C140.045 546.779 140.255 546.683 140.47 546.621C140.685 546.559 140.9 546.514 141.11 546.497C141.319 546.48 141.506 546.468 141.671 546.468H142.877C143.03 546.468 143.205 546.474 143.392 546.491C143.585 546.508 143.777 546.542 143.981 546.593C144.18 546.649 144.378 546.723 144.57 546.819C144.763 546.915 144.938 547.051 145.103 547.215C145.267 547.385 145.403 547.588 145.522 547.831C145.635 548.075 145.714 548.369 145.76 548.714H143.896C143.862 548.448 143.772 548.261 143.625 548.16C143.483 548.058 143.262 548.007 142.968 548.007H141.574L141.58 548.035Z" fill="white"/>
<path d="M147.923 546.491H149.69V552H147.923V546.491Z" fill="white"/>
<path d="M156.26 546.491L159.188 552H157.239L156.832 551.191H153.904L153.496 552H151.548L154.481 546.491H156.26ZM156.095 549.732L155.37 548.29L154.646 549.732H156.101H156.095Z" fill="white"/>
<path d="M307.691 546.491L305.04 549.8V552H303.273V549.8L300.623 546.491H302.803L304.157 548.318L305.51 546.491H307.697H307.691Z" fill="white"/>
<path d="M314.799 546.485H316.566V549.24C316.566 549.664 316.515 550.02 316.418 550.326C316.322 550.631 316.192 550.88 316.033 551.084C315.875 551.287 315.693 551.451 315.484 551.57C315.28 551.689 315.065 551.785 314.849 551.847C314.634 551.91 314.419 551.955 314.21 551.972C314 551.989 313.813 552 313.649 552H312.454C312.29 552 312.103 551.989 311.893 551.972C311.684 551.955 311.474 551.915 311.253 551.847C311.038 551.785 310.823 551.689 310.619 551.57C310.415 551.451 310.228 551.287 310.069 551.084C309.911 550.88 309.781 550.626 309.684 550.326C309.588 550.026 309.537 549.664 309.537 549.24V546.485H311.304V549.24C311.304 549.415 311.321 549.579 311.361 549.726C311.395 549.873 311.457 550.003 311.536 550.111C311.616 550.218 311.729 550.303 311.859 550.365C311.995 550.428 312.159 550.456 312.352 550.456H313.813C314.011 550.456 314.17 550.428 314.294 550.365C314.419 550.303 314.521 550.218 314.595 550.111C314.668 550.003 314.719 549.873 314.748 549.726C314.776 549.579 314.793 549.415 314.793 549.24V546.485H314.799Z" fill="white"/>
<path d="M321.555 548.029C321.357 548.029 321.198 548.058 321.074 548.12C320.949 548.182 320.853 548.267 320.779 548.374C320.706 548.482 320.655 548.612 320.626 548.759C320.598 548.906 320.581 549.064 320.581 549.24C320.581 549.415 320.598 549.579 320.626 549.726C320.655 549.873 320.706 550.003 320.779 550.111C320.853 550.218 320.949 550.303 321.074 550.365C321.198 550.428 321.357 550.456 321.555 550.456H322.948C323.09 550.456 323.22 550.445 323.322 550.428C323.424 550.411 323.515 550.371 323.588 550.314C323.662 550.258 323.719 550.184 323.764 550.094C323.809 550.003 323.849 549.885 323.871 549.738H325.735C325.695 550.083 325.616 550.377 325.497 550.62C325.378 550.863 325.242 551.072 325.078 551.236C324.914 551.406 324.738 551.536 324.545 551.632C324.353 551.729 324.155 551.808 323.956 551.859C323.758 551.909 323.56 551.949 323.367 551.96C323.175 551.977 323.005 551.983 322.852 551.983H321.646C321.481 551.983 321.295 551.972 321.085 551.955C320.875 551.938 320.666 551.898 320.445 551.83C320.23 551.768 320.02 551.672 319.816 551.553C319.613 551.434 319.431 551.27 319.267 551.067C319.103 550.863 318.973 550.609 318.876 550.309C318.78 550.009 318.729 549.647 318.729 549.223C318.729 548.799 318.78 548.442 318.876 548.137C318.973 547.837 319.103 547.583 319.267 547.379C319.431 547.175 319.613 547.011 319.816 546.893C320.02 546.774 320.23 546.678 320.445 546.615C320.66 546.553 320.875 546.508 321.085 546.491C321.295 546.474 321.481 546.463 321.646 546.463H322.852C323.005 546.463 323.181 546.468 323.367 546.485C323.56 546.502 323.753 546.536 323.956 546.587C324.155 546.644 324.353 546.717 324.545 546.813C324.738 546.909 324.914 547.045 325.078 547.209C325.242 547.379 325.378 547.583 325.497 547.826C325.61 548.069 325.689 548.363 325.735 548.708H323.871C323.837 548.442 323.747 548.256 323.6 548.154C323.458 548.052 323.237 548.001 322.943 548.001H321.549L321.555 548.029Z" fill="white"/>
<path d="M331.761 546.485L334.689 551.994H332.741L332.333 551.186H329.405L328.997 551.994H327.049L329.983 546.485H331.761ZM331.597 549.726L330.872 548.284L330.147 549.726H331.597Z" fill="white"/>
<path d="M335.306 546.485H340.862V548.029H338.948V551.994H337.169V548.029H335.306V546.485Z" fill="white"/>
<path d="M346.197 546.485L349.125 551.994H347.177L346.769 551.186H343.841L343.433 551.994H341.485L344.419 546.485H346.197ZM345.75 545.931H344.583L345.659 544.178H347.477L345.755 545.931H345.75ZM346.033 549.726L345.308 548.284L344.583 549.726H346.033Z" fill="white"/>
<path d="M356.233 546.485H358V551.994H355.536L352.744 548.374V551.994H350.977V546.485H353.452L356.233 550.105V546.485Z" fill="white"/>
<path d="M172.984 549.245C172.984 549.669 172.933 550.026 172.837 550.331C172.741 550.637 172.61 550.886 172.446 551.089C172.282 551.293 172.101 551.457 171.897 551.576C171.693 551.694 171.483 551.791 171.268 551.853C171.053 551.915 170.838 551.96 170.628 551.977C170.418 551.994 170.232 552.005 170.067 552.005H165.95V546.496H170.067C170.232 546.496 170.418 546.508 170.628 546.525C170.838 546.542 171.047 546.581 171.268 546.649C171.483 546.711 171.693 546.807 171.897 546.926C172.101 547.045 172.282 547.209 172.446 547.413C172.61 547.616 172.741 547.871 172.837 548.171C172.933 548.47 172.984 548.832 172.984 549.257V549.245ZM170.164 550.467C170.362 550.467 170.52 550.439 170.645 550.376C170.77 550.314 170.866 550.229 170.94 550.122C171.013 550.014 171.064 549.884 171.092 549.737C171.121 549.59 171.132 549.426 171.132 549.251C171.132 549.076 171.121 548.917 171.092 548.77C171.064 548.623 171.013 548.499 170.94 548.386C170.866 548.278 170.77 548.193 170.645 548.131C170.52 548.069 170.362 548.041 170.164 548.041H167.728V550.473H170.164V550.467Z" fill="white"/>
<path d="M180.868 546.491V547.956H176.631V548.595H180.868V549.822H176.631V550.535H180.868V552H174.864V546.491H180.868Z" fill="white"/>
<path d="M188.502 546.395H194.058V547.939H192.144V551.904H190.365V547.939H188.502V546.395Z" fill="white"/>
<path d="M202.723 548.454C202.723 548.759 202.684 549.019 202.61 549.234C202.531 549.455 202.429 549.636 202.299 549.788C202.168 549.941 202.021 550.06 201.857 550.156C201.693 550.252 201.511 550.32 201.33 550.371L203.006 551.898H200.696L199.246 550.507H197.926V551.898H196.148V546.389H200.095C200.26 546.389 200.441 546.395 200.639 546.406C200.837 546.417 201.03 546.451 201.228 546.497C201.426 546.542 201.613 546.61 201.794 546.7C201.976 546.791 202.134 546.915 202.276 547.068C202.417 547.221 202.525 547.413 202.61 547.633C202.695 547.854 202.74 548.131 202.74 548.448L202.723 548.454ZM197.915 548.968H199.909C200.107 548.968 200.265 548.963 200.39 548.951C200.515 548.94 200.611 548.912 200.684 548.872C200.758 548.833 200.809 548.782 200.837 548.714C200.866 548.646 200.883 548.561 200.883 548.454C200.883 548.346 200.866 548.256 200.837 548.193C200.809 548.126 200.758 548.075 200.684 548.035C200.611 547.995 200.515 547.973 200.39 547.956C200.265 547.939 200.107 547.939 199.909 547.939H197.915V548.974V548.968Z" fill="white"/>
<path d="M209.106 546.395L212.034 551.904H210.086L209.678 551.095H206.75L206.342 551.904H204.394L207.328 546.395H209.106ZM208.942 549.636L208.217 548.193L207.492 549.636H208.942Z" fill="white"/>
<path d="M219.148 546.395H220.915V551.904H218.451L215.664 548.284V551.904H213.897V546.395H216.372L219.153 550.015V546.395H219.148Z" fill="white"/>
<path d="M224.845 548.188C224.845 548.284 224.907 548.408 225.032 548.442C225.156 548.476 225.326 548.499 225.536 548.51C225.745 548.521 225.983 548.527 226.25 548.527C226.516 548.527 226.788 548.538 227.065 548.561C227.343 548.584 227.614 548.629 227.881 548.691C228.147 548.753 228.385 548.85 228.594 548.985C228.804 549.121 228.968 549.296 229.098 549.517C229.223 549.738 229.285 549.969 229.285 550.314C229.285 550.416 229.274 550.529 229.257 550.654C229.24 550.778 229.2 550.903 229.138 551.027C229.076 551.152 228.985 551.276 228.872 551.395C228.758 551.514 228.6 551.615 228.407 551.706C228.215 551.796 227.977 551.87 227.694 551.921C227.411 551.972 227.071 552 226.674 552H225.695C225.298 552 224.958 551.966 224.681 551.898C224.398 551.83 224.165 551.745 223.973 551.638C223.78 551.531 223.627 551.412 223.508 551.27C223.395 551.129 223.305 550.993 223.242 550.852C223.18 550.71 223.14 550.569 223.123 550.433C223.106 550.298 223.095 550.179 223.095 550.077H224.862C224.879 550.133 224.902 550.19 224.936 550.247C224.97 550.303 225.021 550.354 225.089 550.399C225.156 550.445 225.247 550.479 225.355 550.501C225.462 550.524 225.598 550.541 225.762 550.541H226.997C227.19 550.541 227.32 550.524 227.394 550.484C227.467 550.45 227.507 550.388 227.507 550.309C227.507 550.207 227.445 550.083 227.32 550.037C227.195 549.998 227.025 549.969 226.816 549.958C226.606 549.947 226.368 549.941 226.102 549.941C225.836 549.941 225.564 549.936 225.287 549.913C225.009 549.89 224.737 549.851 224.471 549.788C224.205 549.732 223.967 549.636 223.758 549.506C223.548 549.376 223.384 549.2 223.254 548.98C223.129 548.759 223.067 548.533 223.067 548.188C223.067 548.029 223.089 547.848 223.14 547.656C223.191 547.458 223.305 547.277 223.48 547.102C223.656 546.932 223.922 546.785 224.262 546.666C224.607 546.548 225.077 546.491 225.666 546.491H226.657C227.054 546.491 227.394 546.525 227.671 546.593C227.949 546.661 228.186 546.745 228.379 546.853C228.572 546.96 228.725 547.085 228.843 547.221C228.957 547.356 229.047 547.498 229.11 547.639C229.172 547.781 229.212 547.922 229.229 548.058C229.246 548.193 229.257 548.312 229.257 548.42H227.49C227.462 548.278 227.388 548.165 227.263 548.08C227.139 547.995 226.912 547.956 226.589 547.956H225.355C225.156 547.956 225.026 547.973 224.947 548.007C224.873 548.041 224.834 548.103 224.834 548.188H224.845Z" fill="white"/>
<path d="M235.402 546.395C235.566 546.395 235.747 546.4 235.946 546.412C236.144 546.423 236.336 546.457 236.535 546.502C236.733 546.548 236.92 546.615 237.101 546.706C237.282 546.796 237.446 546.921 237.582 547.074C237.718 547.226 237.831 547.419 237.916 547.639C238.001 547.86 238.047 548.137 238.047 548.454C238.047 548.77 238.001 549.042 237.916 549.268C237.831 549.494 237.718 549.681 237.582 549.834C237.446 549.986 237.282 550.111 237.101 550.201C236.92 550.292 236.727 550.36 236.535 550.405C236.342 550.45 236.144 550.479 235.946 550.495C235.747 550.512 235.572 550.512 235.402 550.512H233.233V551.904H231.454V546.395H235.402ZM235.226 548.974C235.419 548.974 235.583 548.968 235.708 548.957C235.832 548.946 235.929 548.917 236.002 548.878C236.076 548.838 236.127 548.787 236.155 548.719C236.183 548.652 236.2 548.567 236.2 548.459C236.2 548.352 236.183 548.261 236.155 548.199C236.127 548.131 236.076 548.08 236.002 548.041C235.929 548.001 235.832 547.979 235.708 547.962C235.583 547.945 235.424 547.945 235.226 547.945H233.233V548.98H235.226V548.974Z" fill="white"/>
<path d="M244.163 546.395C244.328 546.395 244.514 546.406 244.724 546.423C244.934 546.44 245.143 546.48 245.364 546.548C245.579 546.61 245.789 546.706 245.998 546.825C246.202 546.943 246.389 547.107 246.548 547.311C246.706 547.515 246.836 547.769 246.933 548.069C247.029 548.369 247.08 548.731 247.08 549.155C247.08 549.579 247.029 549.936 246.933 550.241C246.836 550.541 246.706 550.795 246.548 550.999C246.389 551.202 246.208 551.367 245.998 551.485C245.794 551.604 245.579 551.7 245.364 551.762C245.149 551.825 244.934 551.87 244.724 551.887C244.514 551.904 244.328 551.915 244.163 551.915H242.963C242.798 551.915 242.611 551.904 242.402 551.887C242.192 551.87 241.983 551.83 241.762 551.762C241.547 551.7 241.337 551.604 241.128 551.485C240.924 551.367 240.737 551.202 240.578 550.999C240.42 550.795 240.289 550.541 240.193 550.241C240.097 549.941 240.046 549.579 240.046 549.155C240.046 548.731 240.097 548.374 240.193 548.069C240.289 547.769 240.42 547.515 240.578 547.311C240.737 547.107 240.918 546.943 241.128 546.825C241.332 546.706 241.547 546.61 241.762 546.548C241.977 546.485 242.192 546.44 242.402 546.423C242.611 546.406 242.798 546.395 242.963 546.395H244.163ZM244.254 550.371C244.446 550.371 244.611 550.343 244.735 550.281C244.86 550.218 244.962 550.133 245.035 550.026C245.109 549.919 245.16 549.788 245.188 549.641C245.217 549.494 245.234 549.33 245.234 549.155C245.234 548.98 245.217 548.821 245.188 548.674C245.16 548.527 245.109 548.403 245.035 548.29C244.962 548.182 244.866 548.097 244.735 548.035C244.611 547.973 244.446 547.945 244.254 547.945H242.872C242.674 547.945 242.515 547.973 242.391 548.035C242.266 548.097 242.164 548.182 242.09 548.29C242.017 548.397 241.966 548.527 241.938 548.674C241.909 548.821 241.892 548.98 241.892 549.155C241.892 549.33 241.909 549.494 241.938 549.641C241.966 549.788 242.017 549.919 242.09 550.026C242.164 550.133 242.26 550.218 242.391 550.281C242.515 550.343 242.679 550.371 242.872 550.371H244.254Z" fill="white"/>
<path d="M255.824 548.454C255.824 548.759 255.785 549.019 255.711 549.234C255.632 549.455 255.53 549.636 255.4 549.788C255.269 549.941 255.122 550.06 254.958 550.156C254.794 550.252 254.612 550.32 254.431 550.371L256.108 551.898H253.797L252.341 550.507H251.022V551.898H249.243V546.389H253.191C253.355 546.389 253.536 546.395 253.735 546.406C253.927 546.417 254.125 546.451 254.324 546.497C254.522 546.542 254.709 546.61 254.89 546.7C255.071 546.791 255.23 546.915 255.371 547.068C255.513 547.221 255.621 547.413 255.705 547.633C255.79 547.854 255.83 548.131 255.83 548.448L255.824 548.454ZM251.016 548.968H253.01C253.208 548.968 253.366 548.963 253.491 548.951C253.616 548.94 253.712 548.912 253.786 548.872C253.859 548.833 253.91 548.782 253.938 548.714C253.967 548.646 253.984 548.561 253.984 548.454C253.984 548.346 253.967 548.256 253.938 548.193C253.91 548.126 253.859 548.075 253.786 548.035C253.712 547.995 253.616 547.973 253.491 547.956C253.366 547.939 253.208 547.939 253.01 547.939H251.016V548.974V548.968Z" fill="white"/>
<path d="M257.801 546.395H263.357V547.939H261.443V551.904H259.664V547.939H257.801V546.395Z" fill="white"/>
<path d="M271.473 546.378V547.843H267.236V548.482H271.473V549.709H267.236V550.422H271.473V551.887H265.469V546.378H271.473Z" fill="white"/>
<path d="M285.575 549.24C285.575 549.664 285.524 550.02 285.428 550.326C285.331 550.631 285.201 550.88 285.037 551.083C284.873 551.287 284.691 551.451 284.487 551.57C284.284 551.689 284.074 551.785 283.859 551.847C283.644 551.909 283.428 551.955 283.219 551.971C283.009 551.988 282.822 552 282.658 552H278.541V546.491H282.658C282.822 546.491 283.009 546.502 283.219 546.519C283.428 546.536 283.638 546.576 283.859 546.643C284.074 546.706 284.284 546.802 284.487 546.921C284.691 547.039 284.873 547.203 285.037 547.407C285.201 547.611 285.331 547.865 285.428 548.165C285.524 548.465 285.575 548.827 285.575 549.251V549.24ZM282.754 550.461C282.953 550.461 283.111 550.433 283.236 550.371C283.36 550.309 283.457 550.224 283.53 550.116C283.604 550.009 283.655 549.879 283.683 549.732C283.712 549.585 283.723 549.421 283.723 549.245C283.723 549.07 283.712 548.912 283.683 548.764C283.655 548.617 283.604 548.493 283.53 548.38C283.457 548.272 283.36 548.188 283.236 548.125C283.111 548.063 282.953 548.035 282.754 548.035H280.319V550.467H282.754V550.461Z" fill="white"/>
<path d="M293.458 546.485V547.95H289.222V548.589H293.458V549.817H289.222V550.529H293.458V551.994H287.455V546.485H293.458Z" fill="white"/>
</g>
</g>
<defs>
<clipPath id="clip0_99_130">
<rect width="1440" height="1024" fill="white"/>
</clipPath>
<clipPath id="clip1_99_130">
<rect width="194" height="141" fill="white" transform="translate(1133 438)"/>
</clipPath>
<clipPath id="clip2_99_130">
<rect width="255" height="110" fill="white" transform="translate(103 442)"/>
</clipPath>
<clipPath id="clip3_99_130">
<rect width="255" height="110" fill="white" transform="translate(103 442)"/>
</clipPath>
</defs>
</svg>
